<svg xmlns:rdf="http://www.w3.org/1999/02/22-rdf-syntax-ns#" xmlns="http://www.w3.org/2000/svg" enable-background="new 0 0 100 100" xml:space="preserve" viewBox="0 0 100 100" version="1.1" y="0px" x="0px" xmlns:cc="http://creativecommons.org/ns#" xmlns:dc="http://purl.org/dc/elements/1.1/"><path d="m50 0c-28 0-50 22-50 50s22 50 50 50 50-22 50-50-22-50-50-50zm8 14c0.19-0.009 0.39-0.011 0.59 0 2.7-0.089 5.1 2 5.4 4.6 1.2 5.1-4.2 10-9.1 8.1-6-3-3-13 3-13zm-2 22c3.8-0.24 4.5 4.2 3.3 8.8-2.3 10-6 20-7.9 31 0.95 4.1 6.2-0.61 8.4-2.1 1.9-1.5 2.2 0.38 2.9 2-4.7 3.3-9.5 6.7-15 9.4-5 3-9-1.7-7.8-6.9 2-9.7 4.7-19 6.9-29 0.69-5.2-6.2 0.094-8.2 1.3-1.7 2.1-2.4 0.56-3.1-1.3 5.5-4 11-8.9 17-12 2-1 3-1 4-1z"/></svg>
