<svg xmlns:rdf="http://www.w3.org/1999/02/22-rdf-syntax-ns#" xmlns="http://www.w3.org/2000/svg" enable-background="new 0 0 26 26" xml:space="preserve" height="22" viewBox="0 0 26.000896 22.020857" width="26" version="1.1" y="0px" x="0px" xmlns:cc="http://creativecommons.org/ns#" xmlns:dc="http://purl.org/dc/elements/1.1/"><path d="m26 16c0.23 0.5 0.007 1.1-0.5 1.3l-11 5c-0.13 0.06-0.27 0.09-0.41 0.09-0.099 0-0.2-0.015-0.29-0.044l-13-4c-0.53-0.16-0.82-0.72-0.66-1.2 0.16-0.53 0.72-0.83 1.3-0.66l13 3.9 11-4.8c0.51-0.23 1.1-0.005 1.3 0.5zm-12 0.35-13-3.9c-0.53-0.16-1.1 0.13-1.3 0.66-0.16 0.53 0.13 1.1 0.66 1.2l13 4c0.096 0.029 0.2 0.044 0.29 0.044 0.14 0 0.28-0.03 0.41-0.09l11-5c0.5-0.23 0.72-0.82 0.5-1.3-0.23-0.5-0.82-0.73-1.3-0.5l-11 4.8zm-14-6.9c-0.021-0.42 0.22-0.81 0.61-0.97l7.3-3.1c1.4-0.61 2.1-1.4 2.1-4 0-0.31 0.14-0.6 0.38-0.79s0.56-0.26 0.86-0.18l13 3.2c0.45 0.11 0.76 0.51 0.76 0.97v0.15c0.001 3 0.002 4.9-3.6 6.4-2.4 1-6.9 3.1-6.9 3.1-0.13 0.064-0.28 0.096-0.43 0.096-0.099 0-0.2-0.015-0.29-0.044l-14-4c-0.4-0.12-0.68-0.49-0.7-0.91zm3.9-0.2 10 3.1c1.1-0.52 4.6-2.1 6.6-3 2.2-0.93 2.4-1.6 2.4-4l-11-2.7c-0.19 2.1-0.97 3.6-3.3 4.6l-4.8 2z"/></svg>
