<svg xmlns:rdf="http://www.w3.org/1999/02/22-rdf-syntax-ns#" xmlns="http://www.w3.org/2000/svg" height="2.2in" width="1.8in" version="1.1" xmlns:cc="http://creativecommons.org/ns#" xmlns:dc="http://purl.org/dc/elements/1.1/" viewBox="0 0 159.02313 194.96044">
<g transform="translate(-2.7e2 -3.4e2)">
<path d="m3e2 5.4e2c0.73-1.9 6.2-19 11-35 2.5-8 2.5-9.8 0.19-7.9-1.9 1.5-5.8-0.29-5.8-2.8 0-1.8-0.41-2-3.5-1.4-2.8 0.53-3.5 0.35-3.5-0.95 0-1.8-1.1-2.1-2.6-0.76-0.52 0.47-2.1 0.51-3.4 0.1-1.4-0.41-1.9-0.79-1.2-0.85 0.69-0.055 1.2-0.6 1.2-1.2 0-0.61-0.68-0.85-1.5-0.53-0.89 0.34-1.5 0.009-1.5-0.83 0-0.78-1.2-1.5-2.7-1.7-2.1-0.24-2.9-1.1-3.7-3.6-0.61-2.2-1.4-3.1-2.3-2.8-0.74 0.3-2 0.81-2.8 1.1-1.1 0.43-1.3 0.023-0.87-1.6 0.42-1.6 0.023-2.3-1.6-2.7-1.4-0.38-1.9-0.94-1.2-1.7 0.5-0.62 2.4-4.7 4.2-9.1s4.7-9.7 4.7-9.7 10-17 11-26c0-1.4 1.1-3.6 2.5-4.9 1.6-1.5 2.5-3.5 2.6-5.4 0.08-4.3 5.5-23 9.4-32 2.4-5.7 4.5-12 7.9-24 1.9-6.6 3.9-13 4.5-15l0.99-2.6 5.3 1.4c2.9 0.77 12 2.8 21 4.5 8.5 1.7 22 4.8 29 6.9 7.4 2.1 17 4.8 22 5.9 12 3.1 17 5.6 22 11 2.5 2.6 6 5.9 7.9 7.2 3.1 2.3 4.7 6.6 3.1 8-0.32 0.28-2.7 4.8-5.2 10s-7.2 14-10 18c-3.2 5-6.8 11-8.2 14-1.3 2.5-3.1 4.9-3.8 5.3-2.7 2.8-4.5 7.4-5.3 11 0.13 0.74-0.96 4-2.4 7.2-1.5 3.2-2.7 6.7-2.7 7.8 0 1-0.42 2.7-0.93 3.6-0.51 0.96-1.7 5.8-2.6 11-2.1 12-7 28-9.4 31-1.9 3.2-2.1 3.9-2.1 3.9-0.97 0.18-3.5 0.73-5 1.1-0.92 0.22-1.6-0.53-1.8-2-0.33-2.2-0.69-2.3-4.8-1.8-3.6 0.5-4.6 0.28-5.4-1.2-0.7-1.3-2-1.8-4.8-1.7l-3.8 0.1-0.63 14c-0.62 13-1.5 20-2.7 20-0.34 0.00064-0.49-8.7-0.32-19 0.36-23-0.066-25-5.5-25-3.2-0.085-3.4-0.2-1.3-0.8 1.4-0.38 2.5-1.3 2.5-2.1 0-1.9-3.2-2.5-5.9-1.1-1.2 0.58-3.7 1.4-5.6 1.9-4.3 1-4.2 2.5 0.21 3.4 2.5 0.53 2.4 0.57-0.71 0.17-2.2-0.29-6.3-0.48-9.2-0.42-4.4 0.081-5.3-0.22-5.8-1.9-1.1-3.5-2.3-2.2-2.4 2.7-0.066 4.7-8.2 41-9.5 42-1.8 1.8-1.4-1.6 1.8-15l4.1-17c0.29-0.96 0.12-1.8-0.38-1.8s-1.9 3.8-3.1 8.4c-2.7 10-7.6 23-9.2 25-0.9 0.83-1 0.61-0.44-0.91zm89-60c1.8-10 1.8-11 0.3-13-1.3-1.4-1.3-1.7-0.21-1.3 2.5 0.93 3.6-0.69 7.5-11 4.4-12 6.9-17 17-33 9.2-15 11-18 10-20-0.43-1.7-0.28-1.8 1.1-0.64 1.4 1.1 1.5 1 0.89-0.82-0.44-1.4-0.19-2.3 0.7-2.7 0.75-0.29 2.2-2.2 3.1-4.2l1.8-3.7-3.8-4.1c-9.5-10-9.6-10-11-8.7-0.85 0.85-2.7 4.9-4.2 9-4.9 14-7.4 20-8 21-0.34 0.28-1.1 2.1-1.8 4-1.2 3.7-7.1 14-7.1 13-0.009-0.49 0.87-2.3 1.9-4.1 2.8-4.6 18-46 17-47-1.6-1.6-11-4.2-67-18-7.7-1.9-16-4-18-4.7-2.3-0.67-4.5-0.96-4.8-0.66-0.31 0.31-1.6 5-3 10-1.3 5.4-6 21-10 34-4.5 13-8.1 25-8.1 28s-0.55 4.2-2.5 5.5c-1.5 1-2.5 2.6-2.5 4.1 0 2.4-13 32-16 34-1.6 2-4.6 9.2-4 9.8 0.25 0.25 2-0.051 3.8-0.66s4.9-0.98 6.8-0.83c3.1 0.24 3.5 0.63 3.7 3.3 0.14 1.6 0.74 5.4 1.3 8.3 0.9 4.4 1.4 5.2 2.8 4.6 0.91-0.39 3.7-1.4 6.2-2.2 2.5-0.83 6-2.1 7.8-2.9 5.2-2.2 8.1-1.8 8.8 1.2 0 0 0.58 2.9 1.3 7.1 0.089 4 1.3 4.8 4.8 3 1.5-0.81 6.4-2.5 11-3.7 4.4-1.2 9.3-2.9 11-3.7 2.8-1.4 3-1.3 5.2 1.4 1.3 1.6 3.4 5.2 4.8 8s3 5.5 3.6 5.9c2.2 1.4 5.7-3.6 8-11 1.2-4.2 3-9 4-11 0.97-1.6 2.5-5.5 3.5-8.5 0.97-3 2.4-6.8 3.3-8.5 0.84-1.6 1.9-4.4 2.3-6 2.9-11 4.6-16 9-24 5.5-11 5.5-9.8-0.095 5.8-2.1 5.8-4.3 13-4.9 16-0.98 5.2-0.91 6.2 0.62 7.9 1.7 1.9 1.7 1.9-0.51 0.57-1.2-0.76-2.3-2.3-2.3-3.4-0.02-1.1-0.91 0.47-2 3.5s-3.7 9.1-5.9 14c-3.7 7.3-9.9 22-9.9 26 2.6-0.89 4.9-4.1 8-5.4 2.7 2 3.8 8.4 5.6 11 7.1-9.5 8.1-17 10-29zm-1-18-2.4-2.8 2.8 2.4c2.6 2.3 3.2 3.1 2.4 3.1-0.18 0-1.4-1.2-2.8-2.8zm-56-5.7c-1.9-0.73-5.3-1.8-7.5-2.4-2.2-0.61-6.3-2.5-9.2-4.1-4.4-2.5-5.7-4-8.2-9.4-1.7-3.5-3.1-8.5-3.1-8.5s-0.59-2.5 0.96-8.9c2-8.4 3.1-7.2 2.4 2.5-0.55 7.7-0.37 9.3 1.4 13 2.5 4.9 7.4 9.3 13 12 13 5.1 23 6.2 30 3 4-1.8 11-9.6 15-16 1-1.8 2.2-3.2 2.7-3.2 1.2 0 1.1 0.29-2.3 6.8-3.3 6.4-10 13-16 16-4.3 1.8-14 1.8-19 0.022zm22-33c-4.7-3.7-3-14 3.3-19 3.9-3.3 7.2-3.2 10-1.3 2.2 1.5 2.3 3.4 1.8 7.8-0.55 5.7-4.6 11-9.5 13-2.7 1.1-3.4 1-5.7-0.78zm-37-9.1c-3.2-3.2 0.95-16 6.5-21 8.7-6.8 13 3.5 5.6 14-4.6 6.9-9.2 9.4-12 6.5zm1.1e2 -27c-1.1-0.95-2.7-2.6-3.5-3.7-0.78-1.1 0.25-0.45 2.3 1.4 3.3 3.1 4.2 4.1 3.5 4-0.14-0.012-1.2-0.8-2.3-1.8zm-7.5-9-2.4-2.8 2.8 2.4c2.6 2.3 3.2 3.1 2.4 3.1-0.18 0-1.4-1.2-2.8-2.8zm-77 1.4e2c-0.27-16 0.18-21 1.6-16 0.95 3.2 1.9 27 1.2 31-1.5 8-2.5 2.7-2.8-14zm0-10c-1.9-1.4-1.9-1.4 0.13-1.3 2.4 0.17 5.4 2.7 3.2 2.7-0.74 0-2.2-0.65-3.3-1.4z"/>
</g>
</svg>
