<svg xmlns:rdf="http://www.w3.org/1999/02/22-rdf-syntax-ns#" xmlns="http://www.w3.org/2000/svg" xml:space="preserve" height="78" viewBox="0 0 77.169786 76.075351" width="77" version="1.1" y="0px" x="0px" xmlns:cc="http://creativecommons.org/ns#" xmlns:dc="http://purl.org/dc/elements/1.1/" enable-background="new 0 0 1000 1000"><path fill="#010101" d="m31 50c8 2.5 14 0.11 22 2.8 5.1 2.7 10 12 9.9 16 0 0 5.5 4.2 8.8 7.7-11-30-34-59-71-78-2.4 5.9 4.7 13 4.7 13s8.2 2.7 11 3.7c-1.9 2.1-6.6 3-6.6 3 3.4 6 18 9.5 15 10-3.7 0.98-7.8-0.061-7.8-0.061 5.1 4.4 13 11 19 11-3.8 2.6-8.3 0.87-13 1.4 2.5 2.7 4.7 6.5 7.6 8.5z"/></svg>
