<?xml version="1.0" encoding="UTF-8" standalone="no"?>
<!-- Created with Inkscape (http://www.inkscape.org/) -->

<svg
   xmlns:osb="http://www.openswatchbook.org/uri/2009/osb"
   xmlns:dc="http://purl.org/dc/elements/1.1/"
   xmlns:cc="http://creativecommons.org/ns#"
   xmlns:rdf="http://www.w3.org/1999/02/22-rdf-syntax-ns#"
   xmlns:svg="http://www.w3.org/2000/svg"
   xmlns="http://www.w3.org/2000/svg"
   xmlns:sodipodi="http://sodipodi.sourceforge.net/DTD/sodipodi-0.dtd"
   xmlns:inkscape="http://www.inkscape.org/namespaces/inkscape"
   width="45.226631mm"
   height="55.880005mm"
   viewBox="0 0 160.25184 198.00002"
   id="svg2"
   version="1.1"
   inkscape:version="0.91 r13725"
   sodipodi:docname="404.svg">
  <defs
     id="defs4">
    <linearGradient
       id="linearGradient13956"
       osb:paint="solid">
      <stop
         style="stop-color:#000000;stop-opacity:1;"
         offset="0"
         id="stop13958" />
    </linearGradient>
    <pattern
       patternUnits="userSpaceOnUse"
       width="3.0304589"
       height="3.8664424"
       patternTransform="translate(180.56478,438.44199)"
       id="pattern15410">
      <path
         inkscape:connector-curvature="0"
         style="opacity:0.99199997;fill:#ffffff;fill-opacity:1;fill-rule:nonzero;stroke:none;stroke-width:3.79999995;stroke-linecap:round;stroke-linejoin:bevel;stroke-miterlimit:4;stroke-dasharray:none;stroke-dashoffset:0;stroke-opacity:1"
         inkscape:transform-center-x="10.972347"
         inkscape:transform-center-y="-7.5238953"
         d="m -2.85715,-17.67855 3.03046,0 0,3.86644 -3.03046,0 z"
         id="use15406" />
    </pattern>
    <pattern
       patternUnits="userSpaceOnUse"
       width="3.0304589"
       height="3.8664424"
       patternTransform="translate(213.01592,438.44199)"
       id="pattern15419">
      <path
         id="use15417"
         d="m -2.85714,-17.67856 3.03046,0 0,3.86644 -3.03046,0 z"
         style="fill:#fefefe;fill-opacity:1;stroke:none"
         inkscape:connector-curvature="0" />
    </pattern>
  </defs>
  <sodipodi:namedview
     id="base"
     pagecolor="#ffffff"
     bordercolor="#666666"
     borderopacity="1.0"
     inkscape:pageopacity="0.0"
     inkscape:pageshadow="2"
     inkscape:zoom="1.4"
     inkscape:cx="-47.471585"
     inkscape:cy="37.400987"
     inkscape:document-units="px"
     inkscape:current-layer="layer1"
     showgrid="false"
     inkscape:window-width="1366"
     inkscape:window-height="741"
     inkscape:window-x="0"
     inkscape:window-y="0"
     inkscape:window-maximized="1"
     fit-margin-top="0"
     fit-margin-left="0"
     fit-margin-right="0"
     fit-margin-bottom="0" />
  <metadata
     id="metadata7">
    <rdf:RDF>
      <cc:Work
         rdf:about="">
        <dc:format>image/svg+xml</dc:format>
        <dc:type
           rdf:resource="http://purl.org/dc/dcmitype/StillImage" />
        <dc:title></dc:title>
      </cc:Work>
    </rdf:RDF>
  </metadata>
  <g
     inkscape:label="Layer 1"
     inkscape:groupmode="layer"
     id="layer1"
     transform="translate(-308.06553,-371.24938)">
    <g
       id="g13936"
       transform="matrix(1.0076593,0,0,1.0076593,32.061739,22.417884)">
      <path
         id="path13938"
         d="m 300,540 c 0.73,-1.9 6.2,-19 11,-35 2.5,-8 2.5,-9.8 0.19,-7.9 -1.9,1.5 -5.8,-0.29 -5.8,-2.8 0,-1.8 -0.41,-2 -3.5,-1.4 -2.8,0.53 -3.5,0.35 -3.5,-0.95 0,-1.8 -1.1,-2.1 -2.6,-0.76 -0.52,0.47 -2.1,0.51 -3.4,0.1 -1.4,-0.41 -1.9,-0.79 -1.2,-0.85 0.69,-0.055 1.2,-0.6 1.2,-1.2 0,-0.61 -0.68,-0.85 -1.5,-0.53 -0.89,0.34 -1.5,0.009 -1.5,-0.83 0,-0.78 -1.2,-1.5 -2.7,-1.7 -2.1,-0.24 -2.9,-1.1 -3.7,-3.6 -0.61,-2.2 -1.4,-3.1 -2.3,-2.8 -0.74,0.3 -2,0.81 -2.8,1.1 -1.1,0.43 -1.3,0.023 -0.87,-1.6 0.42,-1.6 0.023,-2.3 -1.6,-2.7 -1.4,-0.38 -1.9,-0.94 -1.2,-1.7 0.5,-0.62 2.4,-4.7 4.2,-9.1 1.8,-4.4 4.7,-9.7 4.7,-9.7 0,0 10,-17 11,-26 0,-1.4 1.1,-3.6 2.5,-4.9 1.6,-1.5 2.5,-3.5 2.6,-5.4 0.08,-4.3 5.5,-23 9.4,-32 2.4,-5.7 4.5,-12 7.9,-24 1.9,-6.6 3.9,-13 4.5,-15 l 0.99,-2.6 5.3,1.4 c 2.9,0.77 12,2.8 21,4.5 8.5,1.7 22,4.8 29,6.9 7.4,2.1 17,4.8 22,5.9 12,3.1 17,5.6 22,11 2.5,2.6 6,5.9 7.9,7.2 3.1,2.3 4.7,6.6 3.1,8 -0.32,0.28 -2.7,4.8 -5.2,10 -2.5,5.2 -7.2,14 -10,18 -3.2,5 -6.8,11 -8.2,14 -1.3,2.5 -3.1,4.9 -3.8,5.3 -2.7,2.8 -4.5,7.4 -5.3,11 0.13,0.74 -0.96,4 -2.4,7.2 -1.5,3.2 -2.7,6.7 -2.7,7.8 0,1 -0.42,2.7 -0.93,3.6 -0.51,0.96 -1.7,5.8 -2.6,11 -2.1,12 -7,28 -9.4,31 -1.9,3.2 -2.1,3.9 -2.1,3.9 -0.97,0.18 -3.5,0.73 -5,1.1 -0.92,0.22 -1.6,-0.53 -1.8,-2 -0.33,-2.2 -0.69,-2.3 -4.8,-1.8 -3.6,0.5 -4.6,0.28 -5.4,-1.2 -0.7,-1.3 -2,-1.8 -4.8,-1.7 l -3.8,0.1 -0.63,14 c -0.62,13 -1.5,20 -2.7,20 -0.34,6.4e-4 -0.49,-8.7 -0.32,-19 0.36,-23 -0.066,-25 -5.5,-25 -3.2,-0.085 -3.4,-0.2 -1.3,-0.8 1.4,-0.38 2.5,-1.3 2.5,-2.1 0,-1.9 -3.2,-2.5 -5.9,-1.1 -1.2,0.58 -3.7,1.4 -5.6,1.9 -4.3,1 -4.2,2.5 0.21,3.4 2.5,0.53 2.4,0.57 -0.71,0.17 -2.2,-0.29 -6.3,-0.48 -9.2,-0.42 -4.4,0.081 -5.3,-0.22 -5.8,-1.9 -1.1,-3.5 -2.3,-2.2 -2.4,2.7 -0.066,4.7 -8.2,41 -9.5,42 -1.8,1.8 -1.4,-1.6 1.8,-15 l 4.1,-17 c 0.29,-0.96 0.12,-1.8 -0.38,-1.8 -0.5,0 -1.9,3.8 -3.1,8.4 -2.7,10 -7.6,23 -9.2,25 -0.9,0.83 -1,0.61 -0.44,-0.91 z m 89,-60 c 1.8,-10 1.8,-11 0.3,-13 -1.3,-1.4 -1.3,-1.7 -0.21,-1.3 2.5,0.93 3.6,-0.69 7.5,-11 4.4,-12 6.9,-17 17,-33 9.2,-15 11,-18 10,-20 -0.43,-1.7 -0.28,-1.8 1.1,-0.64 1.4,1.1 1.5,1 0.89,-0.82 -0.44,-1.4 -0.19,-2.3 0.7,-2.7 0.75,-0.29 2.2,-2.2 3.1,-4.2 l 1.8,-3.7 -3.8,-4.1 c -9.5,-10 -9.6,-10 -11,-8.7 -0.85,0.85 -2.7,4.9 -4.2,9 -4.9,14 -7.4,20 -8,21 -0.34,0.28 -1.1,2.1 -1.8,4 -1.2,3.7 -7.1,14 -7.1,13 -0.009,-0.49 0.87,-2.3 1.9,-4.1 2.8,-4.6 18,-46 17,-47 -1.6,-1.6 -11,-4.2 -67,-18 -7.7,-1.9 -16,-4 -18,-4.7 -2.3,-0.67 -4.5,-0.96 -4.8,-0.66 -0.31,0.31 -1.6,5 -3,10 -1.3,5.4 -6,21 -10,34 -4.5,13 -8.1,25 -8.1,28 0,3 -0.55,4.2 -2.5,5.5 -1.5,1 -2.5,2.6 -2.5,4.1 0,2.4 -13,32 -16,34 -1.6,2 -4.6,9.2 -4,9.8 0.25,0.25 2,-0.051 3.8,-0.66 1.8,-0.609 4.9,-0.98 6.8,-0.83 3.1,0.24 3.5,0.63 3.7,3.3 0.14,1.6 0.74,5.4 1.3,8.3 0.9,4.4 1.4,5.2 2.8,4.6 0.91,-0.39 3.7,-1.4 6.2,-2.2 2.5,-0.83 6,-2.1 7.8,-2.9 5.2,-2.2 8.1,-1.8 8.8,1.2 0,0 0.58,2.9 1.3,7.1 0.089,4 1.3,4.8 4.8,3 1.5,-0.81 6.4,-2.5 11,-3.7 4.4,-1.2 9.3,-2.9 11,-3.7 2.8,-1.4 3,-1.3 5.2,1.4 1.3,1.6 3.4,5.2 4.8,8 1.4,2.8 3,5.5 3.6,5.9 2.2,1.4 5.7,-3.6 8,-11 1.2,-4.2 3,-9 4,-11 0.97,-1.6 2.5,-5.5 3.5,-8.5 0.97,-3 2.4,-6.8 3.3,-8.5 0.84,-1.6 1.9,-4.4 2.3,-6 2.9,-11 4.6,-16 9,-24 5.5,-11 5.5,-9.8 -0.095,5.8 -2.1,5.8 -4.3,13 -4.9,16 -0.98,5.2 -0.91,6.2 0.62,7.9 1.7,1.9 1.7,1.9 -0.51,0.57 -1.2,-0.76 -2.3,-2.3 -2.3,-3.4 -0.02,-1.1 -0.91,0.47 -2,3.5 -1.09,3.03 -3.7,9.1 -5.9,14 -3.7,7.3 -9.9,22 -9.9,26 2.6,-0.89 4.9,-4.1 8,-5.4 2.7,2 3.8,8.4 5.6,11 7.1,-9.5 8.1,-17 10,-29 z m -1,-18 -2.4,-2.8 2.8,2.4 c 2.6,2.3 3.2,3.1 2.4,3.1 -0.18,0 -1.4,-1.2 -2.8,-2.8 z m 39,-74.8 c -1.1,-0.95 -2.7,-2.6 -3.5,-3.7 -0.78,-1.1 0.25,-0.45 2.3,1.4 3.3,3.1 4.2,4.1 3.5,4 -0.14,-0.012 -1.2,-0.8 -2.3,-1.8 z m -7.5,-9 -2.4,-2.8 2.8,2.4 c 2.6,2.3 3.2,3.1 2.4,3.1 -0.18,0 -1.4,-1.2 -2.8,-2.8 z m -77,140 c -0.27,-16 0.18,-21 1.6,-16 0.95,3.2 1.9,27 1.2,31 -1.5,8 -2.5,2.7 -2.8,-14 z m 0,-10 c -1.9,-1.4 -1.9,-1.4 0.13,-1.3 2.4,0.17 5.4,2.7 3.2,2.7 -0.74,0 -2.2,-0.65 -3.3,-1.4 z"
         inkscape:connector-curvature="0"
         sodipodi:nodetypes="cccscscccscscccccccsccccccccccccccsscccccscccccccccccccccsccccccccccsccccccccccccccccccccccsccsccssscsscccsccccccccsccccccccccccscccccccccscccccccccccscccccccccscc" />
    </g>
    <g
       transform="matrix(-1.0235454,0,0,-0.93583947,710.69085,891.44944)"
       id="use15574">
      <path
         sodipodi:nodetypes="cccccccccccscccc"
         inkscape:connector-curvature="0"
         d="m 332,456.3 c -1.9,-0.73 -5.3,-1.8 -7.5,-2.4 -2.2,-0.61 -6.3,-2.5 -9.2,-4.1 -4.4,-2.5 -5.7,-4 -8.2,-9.4 -1.7,-3.5 -3.1,-8.5 -3.1,-8.5 0,0 -0.59,-2.5 0.96,-8.9 2,-8.4 3.1,-7.2 2.4,2.5 -0.55,7.7 -0.37,9.3 1.4,13 2.5,4.9 7.4,9.3 13,12 13,5.1 23,6.2 30,3 4,-1.8 11,-9.6 15,-16 1,-1.8 2.2,-3.2 2.7,-3.2 1.2,0 1.1,0.29 -2.3,6.8 -3.3,6.4 -10,13 -16,16 -4.3,1.8 -14,1.8 -19,0.022 z"
         id="path15578" />
    </g>
    <path
       style="fill:#000000;fill-opacity:1;fill-rule:evenodd;stroke:none;stroke-width:1px;stroke-linecap:butt;stroke-linejoin:miter;stroke-opacity:1"
       d="m 352.85716,533.43363 1.57563,12.18487 4.93697,-2.83613 11.23949,4.93697 0,-16.07142 -10.92436,5.2521 z"
       id="path13948"
       inkscape:connector-curvature="0" />
    <path
       style="fill:#000000;fill-opacity:1;fill-rule:evenodd;stroke:none;stroke-width:1px;stroke-linecap:butt;stroke-linejoin:miter;stroke-opacity:1"
       d="m 347.28705,418.61451 c 0,0 -1.1395,4.40365 -1.744,6.59197 l 2.19135,0.60534 -1.04219,3.77276 3.28517,0.9075 -1.2107,4.38273 19.47376,5.37948 0.97511,-3.52991 3.77276,1.0422 1.076,-3.89513 6.20886,1.71515 -0.9751,3.5299 4.25847,1.17637 -1.17637,4.25847 2.79945,0.77333 -1.1436,4.13987 20.20421,5.58125 0.97511,-3.5299 3.16468,0.87422 1.27778,-4.62559 3.5299,0.97511 0.9413,-3.40752 2.79945,0.77332 1.1098,-4.0175 17.77,4.90882 1.00839,-3.65039 -89.52961,-24.73185 z m 88.52122,28.38225 -0.94867,3.66891 5.73419,1.5557 1.05619,-3.61084 -5.84176,-1.61374 z m -72.38978,-18.68611 2.92182,0.80713 -1.0292,3.7257 -2.92181,-0.80713 1.02919,-3.7257 z m 5.11129,1.41195 2.92182,0.80713 -1.02919,3.7257 -2.92182,-0.80713 1.02919,-3.7257 z m 31.27964,8.64076 2.92182,0.80713 -1.02919,3.7257 -2.92182,-0.80713 1.02919,-3.7257 z m 6.19757,1.71203 2.91994,0.80661 -1.02919,3.7257 -2.91994,-0.80661 1.02919,-3.7257 z m -10.28207,1.22031 2.92182,0.80713 -1.02971,3.72758 -2.92182,-0.80713 1.02971,-3.72758 z m 6.19569,1.71151 2.92182,0.80713 -1.02971,3.72758 -2.92182,-0.80713 1.02971,-3.72758 z m -42.01234,-11.47386 2.92182,0.80713 -1.02919,3.72568 -2.92182,-0.80712 1.02919,-3.72569 z m 4.99081,1.37867 2.91994,0.80661 -1.0292,3.72569 -2.91994,-0.80661 1.0292,-3.72569 z m 27.16201,11.80305 2.92182,0.80713 -1.02972,3.72758 -2.92181,-0.80713 1.02971,-3.72758 z m 6.19757,1.71203 2.91993,0.80661 -1.02972,3.72758 -2.91992,-0.80661 1.02971,-3.72758 z"
       id="path13952"
       inkscape:connector-curvature="0" />
  </g>
</svg>
