<?xml version="1.0" encoding="UTF-8" standalone="no"?>
<!-- Generator: Adobe Illustrator 18.0.0, SVG Export Plug-In . SVG Version: 6.00 Build 0)  -->

<svg
   xmlns:dc="http://purl.org/dc/elements/1.1/"
   xmlns:cc="http://creativecommons.org/ns#"
   xmlns:rdf="http://www.w3.org/1999/02/22-rdf-syntax-ns#"
   xmlns:svg="http://www.w3.org/2000/svg"
   xmlns="http://www.w3.org/2000/svg"
   xmlns:sodipodi="http://sodipodi.sourceforge.net/DTD/sodipodi-0.dtd"
   xmlns:inkscape="http://www.inkscape.org/namespaces/inkscape"
   version="1.1"
   id="Capa_1"
   x="0px"
   y="0px"
   viewBox="0 0 492.711 492.711"
   style="enable-background:new 0 0 492.711 492.711;"
   xml:space="preserve"
   inkscape:version="0.91 r13725"
   sodipodi:docname="documents31.svg"><metadata
     id="metadata45"><rdf:RDF><cc:Work
         rdf:about=""><dc:format>image/svg+xml</dc:format><dc:type
           rdf:resource="http://purl.org/dc/dcmitype/StillImage" /></cc:Work></rdf:RDF></metadata><defs
     id="defs43" /><sodipodi:namedview
     pagecolor="#ffffff"
     bordercolor="#666666"
     borderopacity="1"
     objecttolerance="10"
     gridtolerance="10"
     guidetolerance="10"
     inkscape:pageopacity="0"
     inkscape:pageshadow="2"
     inkscape:window-width="1366"
     inkscape:window-height="741"
     id="namedview41"
     showgrid="false"
     inkscape:zoom="0.6773837"
     inkscape:cx="182.49202"
     inkscape:cy="316.06548"
     inkscape:window-x="0"
     inkscape:window-y="0"
     inkscape:window-maximized="1"
     inkscape:current-layer="Capa_1" /><path
     style="opacity:0.99199997;fill:none;fill-opacity:1;fill-rule:nonzero;stroke:#000000;stroke-width:50;stroke-linecap:round;stroke-linejoin:bevel;stroke-miterlimit:4;stroke-dasharray:none;stroke-dashoffset:0;stroke-opacity:1"
     d="M 466.31944,246.3555 A 219.96394,219.96394 0 0 1 246.3555,466.31944 219.96394,219.96394 0 0 1 26.391556,246.3555 219.96394,219.96394 0 0 1 246.3555,26.391556 219.96394,219.96394 0 0 1 466.31944,246.3555 Z"
     id="path3376" /><path
     inkscape:connector-curvature="0"
     id="path9"
     d="m 81.392121,286.514 37.128879,0 41.35,0 33.015,91.029 c 3.436,9.459 12.239,15.898 22.295,16.32 0.341,0.016 0.678,0.016 1.033,0.016 9.641,0 18.469,-5.617 22.507,-14.451 l 78.528,-170.861 12.305,19.587 c 4.584,7.278 12.881,12.154 21.227,11.606 l 27.237,-0.26 35.843,-0.337 -0.12513,-49.633 -34.84587,0.356 -14.707,0.145 -29.303,-46.692 c -4.845,-7.699 -13.628,-12.153 -22.602,-11.557 -9.108,0.598 -17.134,6.119 -20.926,14.399 l -72.459,157.626 -18.324,-50.551 c -3.565,-9.801 -12.865,-16.342 -23.313,-16.342 l -59.428,0 -37.132,0 z"
     sodipodi:nodetypes="cccccsccccccccccccccsccc" /><g
     id="g11" /><g
     id="g13" /><g
     id="g15" /><g
     id="g17" /><g
     id="g19" /><g
     id="g21" /><g
     id="g23" /><g
     id="g25" /><g
     id="g27" /><g
     id="g29" /><g
     id="g31" /><g
     id="g33" /><g
     id="g35" /><g
     id="g37" /><g
     id="g39" /></svg>