<?xml version="1.0" encoding="UTF-8" standalone="no"?>
<svg
   xmlns:dc="http://purl.org/dc/elements/1.1/"
   xmlns:cc="http://creativecommons.org/ns#"
   xmlns:rdf="http://www.w3.org/1999/02/22-rdf-syntax-ns#"
   xmlns:svg="http://www.w3.org/2000/svg"
   xmlns="http://www.w3.org/2000/svg"
   xmlns:sodipodi="http://sodipodi.sourceforge.net/DTD/sodipodi-0.dtd"
   xmlns:inkscape="http://www.inkscape.org/namespaces/inkscape"
   height="2.4in"
   width="2in"
   version="1.1"
   viewBox="0 0 174.45054 214.35817"
   id="svg2"
   inkscape:version="0.91 r13725"
   sodipodi:docname="profile.svg"
   inkscape:export-filename="/home/rho/Public/httpd/rhoit.github.com/img/svg/profile.png"
   inkscape:export-xdpi="224.64638"
   inkscape:export-ydpi="224.64638">
  <metadata
     id="metadata12">
    <rdf:RDF>
      <cc:Work
         rdf:about="">
        <dc:format>image/svg+xml</dc:format>
        <dc:type
           rdf:resource="http://purl.org/dc/dcmitype/StillImage" />
        <dc:title />
      </cc:Work>
    </rdf:RDF>
  </metadata>
  <defs
     id="defs10" />
  <sodipodi:namedview
     pagecolor="#ffffff"
     bordercolor="#666666"
     borderopacity="1"
     objecttolerance="10"
     gridtolerance="10"
     guidetolerance="10"
     inkscape:pageopacity="0"
     inkscape:pageshadow="2"
     inkscape:window-width="1365"
     inkscape:window-height="740"
     id="namedview8"
     showgrid="false"
     inkscape:zoom="1.5451592"
     inkscape:cx="-70.058595"
     inkscape:cy="123.28661"
     inkscape:window-x="0"
     inkscape:window-y="0"
     inkscape:window-maximized="0"
     inkscape:current-layer="layer2" />
  <g
     inkscape:groupmode="layer"
     id="layer1"
     inkscape:label="bag"
     style="display:inline">
    <g
       transform="translate(-270,-340)"
       id="g4">
      <path
         sodipodi:nodetypes="ccaacccccccsccccccccccsscccccscccccccccccccccccccccccccccccccccccsscsscccsccccccccsccccccccccccsccccccccscccccccc"
         inkscape:connector-curvature="0"
         id="use4164"
         d="m 309.66462,494.85208 c -1.81379,-2.34904 -6.23688,3.23888 -8.545,-2.50066 -3.04196,-1.14376 -5.66839,0.73041 -7.74085,-0.83152 -1.2305,-0.92738 -0.56001,-3.29232 -1.74085,-4.28216 C 290.34539,486.15427 288.19,486.38 286.69,486.18 c -2.1,-0.24 -2.9,-1.1 -3.7,-3.6 -0.61,-2.2 -1.4,-3.1 -2.3,-2.8 -0.74,0.3 -2,0.81 -2.8,1.1 -1.1,0.43 -1.3,0.023 -0.87,-1.6 0.42,-1.6 0.023,-2.3 -1.6,-2.7 -1.4,-0.38 -1.9,-0.94 -1.2,-1.7 0.5,-0.62 2.4,-4.7 4.2,-9.1 1.8,-4.4 4.7,-9.7 4.7,-9.7 0,0 10,-17 11,-26 0,-1.4 1.1,-3.6 2.5,-4.9 1.6,-1.5 2.5,-3.5 2.6,-5.4 0.08,-4.3 5.5,-23 9.4,-32 6.34241,-15.45963 9.68379,-28.433 13.39,-41.6 l 5.3,1.4 c 24.27597,4.264 49.89851,12.23989 72,17.3 12,3.1 17,5.6 22,11 2.5,2.6 6,5.9 7.9,7.2 3.1,2.3 4.7,6.6 3.1,8 -0.32,0.28 -2.7,4.8 -5.2,10 -2.5,5.2 -7.2,14 -10,18 -3.2,5 -6.8,11 -8.2,14 -1.3,2.5 -3.1,4.9 -3.8,5.3 -2.7,2.8 -4.5,7.4 -5.3,11 0.13,0.74 -0.96,4 -2.4,7.2 -1.5,3.2 -2.7,6.7 -2.7,7.8 0,1 -0.42,2.7 -0.93,3.6 -0.51,0.96 -1.7,5.8 -2.6,11 -2.1,12 -7,28 -9.4,31 -1.9,3.2 -2.1,3.9 -2.1,3.9 -0.97,0.18 -3.5,0.73 -5,1.1 -0.92,0.22 -1.6,-0.53 -1.8,-2 -0.33,-2.2 -0.69,-2.3 -4.8,-1.8 -3.6,0.5 -4.6,0.28 -5.4,-1.2 -0.7,-1.3 -4.8,-1.7 -4.8,-1.7 l -11.75,-12.8 c 0,0 -3.2,-2.5 -5.9,-1.1 -1.2,0.58 -3.7,1.4 -5.6,1.9 -1.72107,4.28922 -14.3256,4.93379 -15.5,1.25 -4.01305,-5.87498 -3.63407,-5.53307 -9.46538,-2.67792 z M 389,480 c 1.8,-10 1.8,-11 0.3,-13 -1.3,-1.4 -1.3,-1.7 -0.21,-1.3 2.5,0.93 3.6,-0.69 7.5,-11 4.4,-12 6.9,-17 17,-33 9.2,-15 11,-18 10,-20 -0.43,-1.7 -0.28,-1.8 1.1,-0.64 1.4,1.1 1.5,1 0.89,-0.82 -0.44,-1.4 -0.19,-2.3 0.7,-2.7 0.75,-0.29 2.2,-2.2 3.1,-4.2 l 1.8,-3.7 -3.8,-4.1 c -9.5,-10 -9.6,-10 -11,-8.7 -0.85,0.85 -2.7,4.9 -4.2,9 -4.9,14 -7.4,20 -8,21 -0.34,0.28 -1.1,2.1 -1.8,4 -1.2,3.7 -7.1,14 -7.1,13 -0.009,-0.49 0.87,-2.3 1.9,-4.1 2.8,-4.6 18,-46 17,-47 -39.33791,-13.88344 -89.8,-23.36 -89.8,-23.36 -2.72733,22.28178 -20.25495,50.97398 -21.1,72 0,3 -0.55,4.2 -2.5,5.5 -1.5,1 -2.5,2.6 -2.5,4.1 0,2.4 -13,32 -16,34 -1.6,2 -4.6,9.2 -4,9.8 0.25,0.25 2,-0.051 3.8,-0.66 1.8,-0.609 4.9,-0.98 6.8,-0.83 3.1,0.24 3.5,0.63 3.7,3.3 0.14,1.6 0.74,5.4 1.3,8.3 0.9,4.4 1.4,5.2 2.8,4.6 0.91,-0.39 3.7,-1.4 6.2,-2.2 2.5,-0.83 6,-2.1 7.8,-2.9 5.2,-2.2 8.1,-1.8 8.8,1.2 0,0 0.58,2.9 1.3,7.1 0.089,4 1.3,4.8 4.8,3 1.5,-0.81 6.4,-2.5 11,-3.7 4.4,-1.2 9.3,-2.9 11,-3.7 2.8,-1.4 3,-1.3 5.2,1.4 1.3,1.6 3.4,5.2 4.8,8 1.4,2.8 3,5.5 3.6,5.9 2.2,1.4 5.7,-3.6 8,-11 1.2,-4.2 3,-9 4,-11 0.97,-1.6 2.5,-5.5 3.5,-8.5 0.97,-3 2.4,-6.8 3.3,-8.5 0.84,-1.6 1.9,-4.4 2.3,-6 2.9,-11 4.6,-16 9,-24 5.5,-11 5.5,-9.8 -0.095,5.8 -2.1,5.8 -4.3,13 -4.9,16 -0.98,5.2 -0.91,6.2 0.62,7.9 1.7,1.9 1.7,1.9 -0.51,0.57 -1.2,-0.76 -2.3,-2.3 -2.3,-3.4 -0.02,-1.1 -0.91,0.47 -2,3.5 -1.09,3.03 -3.7,9.1 -5.9,14 -3.7,7.3 -9.9,22 -9.9,26 2.6,-0.89 4.9,-4.1 8,-5.4 2.7,2 3.8,8.4 5.6,11 7.1,-9.5 8.1,-17 10,-29 z M 385.9412,459.58134 388.4,461.6 c 2.6,2.3 3.2,3.1 2.4,3.1 -0.18,0 -1.17293,-1.90961 -2.62639,-2.89905 -1.45346,-0.98944 -1.43241,-1.28627 -2.23241,-2.21961 z M 427,387.2 c -1.1,-0.95 -2.7,-2.6 -3.5,-3.7 -0.78,-1.1 0.25,-0.45 2.3,1.4 3.3,3.1 4.2,4.1 3.5,4 -0.14,-0.012 -1.2,-0.8 -2.3,-1.8 z" />
    </g>
  </g>
  <g
     inkscape:groupmode="layer"
     id="layer2"
     inkscape:label="marker"
     style="display:inline">
    <path
       style="display:inline"
       d="m 60.333002,119.85439 c -1.703449,-0.61 -4.87806,-2.5 -7.123516,-4.1 -6.810583,-5.66697 -9.799874,-16.53682 -8.006211,-26.8 1.54859,-8.4 2.400314,-7.2 1.858308,2.5 -0.803966,23.00166 21.702897,34.98656 34.378705,28 6.35317,-3.85825 11.931068,-20.82044 13.705025,-19.2 1.806175,1.64987 -7.738817,18.47931 -14.169601,22.8 -3.32947,1.8 -10.840133,1.8 -13.573395,0.135 -2.733262,-1.665 -5.365865,-2.735 -7.069315,-3.335 z"
       id="path4179"
       inkscape:connector-curvature="0" />
    <path
       style="display:inline"
       d="m 90.153274,71.167323 c 2.11343,-4.16412 7.57336,-9.4748 11.816596,-7.52506 3.35938,1.54362 2.10863,8.36504 1.57292,10.97904 -1.76516,6.37847 -7.489916,12.62829 -12.489736,10.4917 -4.2835,-1.83048 -3.00799,-9.79183 -0.89978,-13.94568 z"
       id="path4177"
       inkscape:connector-curvature="0" />
    <path
       style="display:inline"
       d="m 60.796926,54.484526 c 5.97511,-6.11878 12.54585,-0.13319 7.41659,12.41048 -3.46462,6.21878 -9.65414,10.98952 -12.70414,8.18952 -3.05,-2.8 -0.26245,-15.6 5.28755,-20.6 z"
       id="use4160"
       inkscape:connector-curvature="0" />
  </g>
  <g
     inkscape:groupmode="layer"
     id="layer3"
     inkscape:label="body"
     style="display:inline">
    <path
       id="path6"
       transform="translate(-270,-340)"
       style="display:inline"
       d="m 342.5,518.2 c -0.27,-16 0.18,-21 1.6,-16 0.95,3.2 1.9,27 1.2,31 -1.5,8 -2.5,2.7 -2.8,-14 z M 300,540 c 0.73,-1.9 13.10044,-35.51092 13.10044,-35.51092 0,0 1.52168,-6.48074 3.0358,-9.8073 0,0 3.23486,-2.22644 3.80214,0.46479 0.8426,3.99736 5.95265,3.04208 8.09646,3.08749 1.71738,0.0364 2.97478,-0.67927 4.71113,-1.91492 1.73635,-1.23565 2.26659,-1.82611 3.61105,-2.31009 2.82615,-1.01736 6.28492,-2.17893 8.94413,-1.09623 0.95561,0.38908 2.03778,1.23696 2.1083,2.26633 0.0694,1.01341 -0.82265,1.96858 -1.75196,2.49341 1.67315,-0.15702 2.98402,0.48642 3.93276,1.52394 2.13638,2.33632 1.98505,6.05876 2.6278,9.12673 l 0.66426,14.05677 c -0.62,13 -0.93231,20 -2.13231,20 -0.34,6.4e-4 -0.49,-8.7 -0.32,-19 0.36,-23 -0.066,-25 -5.5,-25 -3.2,-0.085 -3.4,-0.2 -1.3,-0.8 1.4,-0.38 2.5,-1.3 2.5,-2.1 0,-1.9 -3.2,-2.5 -5.9,-1.1 -1.2,0.58 -3.7,1.4 -5.6,1.9 -4.58386,4.78084 -6.30045,3.15437 -9.7,3.15 -2.03442,-0.003 -5.3,-0.22 -5.8,-1.9 -0.55,-1.75 -1.79203,-1.68974 -2.45492,-0.92009 -0.66288,0.76965 -1.59814,5.25742 -1.64814,7.70742 -0.033,2.35 -0.25668,5.07309 -0.25668,5.07309 0,0 -6.89026,32.33958 -7.54026,32.83958 -1.8,1.8 -1.4,-1.6 1.8,-15 l 4.1,-17 c 0.29,-0.96 0.12,-1.8 -0.38,-1.8 -0.5,0 -1.9,3.8 -3.1,8.4 -2.7,10 -7.6,23 -9.2,25 -0.9,0.83 -1,0.61 -0.44,-0.91 z"
       inkscape:connector-curvature="0"
       sodipodi:nodetypes="cccccccsscsasacaccccccsccacscccccscccc" />
  </g>
</svg>
