<svg xmlns:rdf="http://www.w3.org/1999/02/22-rdf-syntax-ns#" style="enable-background:new 0 0 100 100" xmlns="http://www.w3.org/2000/svg" xml:space="preserve" viewBox="0 0 100 100" version="1.1" y="0px" x="0px" xmlns:cc="http://creativecommons.org/ns#" xmlns:dc="http://purl.org/dc/elements/1.1/"><path d="m88 5.6h-77c-3.7 0-6.6 2.9-6.6 6.4v77c0 3.6 3 6.5 6.6 6.5h77c3.7 0 6.6-2.9 6.6-6.5v-78c0-3.5-3-6.4-7-6.4zm-56 75h-14v-41h14v41zm-7-46c-4.6 0-7.5-3.1-7.5-7 0-4 3-7 7.7-7s7.5 3 7.6 7c-1 4-4 7-9 7zm56 46h-14v-22c0-5.5-2-9.2-6.9-9.2-3.8 0-6 2.5-7 4.9-0.36 0.87-0.45 2.1-0.45 3.3v23h-14s0.18-37 0-41h14v5.8c1.8-2.8 5-6.7 12-6.7 8.9 0 16 5.8 16 18v24zm-28-35c0.024-0.038 0.056-0.084 0.088-0.13v0.13z"/></svg>
