<?xml version="1.0" encoding="UTF-8" standalone="no"?>
<svg xmlns:rdf="http://www.w3.org/1999/02/22-rdf-syntax-ns#" style="enable-background:new;" xmlns="http://www.w3.org/2000/svg" height="200" width="200" version="1.1" enable-background="new" xmlns:cc="http://creativecommons.org/ns#" xmlns:dc="http://purl.org/dc/elements/1.1/">
 <metadata>
  <rdf:RDF>
   <cc:Work rdf:about="">
    <dc:format>image/svg+xml</dc:format>
    <dc:type rdf:resource="http://purl.org/dc/dcmitype/StillImage"/>
    <dc:title/>
   </cc:Work>
  </rdf:RDF>
 </metadata>
 <g fill="#F00" transform="translate(0 -852.36)">
  <path d="m77.15,11.985s11.149-8.4994,24.115-8.4626c14.424,0.040989,23.185,9.1802,23.185,9.1802l-3.2366,11.958,3.1614-11.918s13.022-2.9229,26.517,6.0609c10.462,6.9653,13.637,17.93,13.637,17.93l-7.3473,7.9628,7.2999-7.9471s13.22,5.9089,19.051,17.22c5.8304,11.311,4.451,24.149,4.451,24.149l-11.222,2.478,11.191-2.478s7.6064,12.088,7.3422,23.912c-0.25501,11.409-7.6578,23.198-7.6578,23.198l-11.866-2.9335,11.866,2.954s2.8412,12.64-3.4548,24.436c-5.9814,11.207-19.495,16.236-19.495,16.236l-8.7655-9.2034,8.7345,9.1895s-2.3979,9.6899-15.392,17.551c-11.867,7.1792-25.464,5.1148-25.464,5.1148l-3.5325-11.988,3.6041,11.924s-7.178,7.4747-24.159,7.9094c-12.791,0.32751-23.52-8.192-23.52-8.192l3.8557-11.769-3.8481,11.773s-12.824,2.0458-24.778-5.2882c-13.622-8.3569-15.551-18.146-15.551-18.146l9.0647-8.4324-9.0734,8.407s-11.877-3.827-18.94-16.541c-7.3011-13.141-4.6088-24.244-4.6088-24.244l12.343-3.4724-12.28,3.3461s-8.5417-10.552-7.9076-24.749c0.6441-13.998,8.0706-23.247,8.0706-23.247l11.628,3.412-11.635-3.545s-0.50037-15.577,5.9346-25.128c7.8259-11.615,18.751-15.847,18.751-15.847l7.8602,10.449-7.7971-10.386s6.466-12.779,15.395-17.988c12.354-7.2081,24.499-4.8648,24.499-4.8648l3.3538,12.199z" transform="translate(0,852.36)" stroke="#000" stroke-width="2" fill="#F00"/>
 </g>
 <g fill="#a9c6e4" transform="translate(0 -852.36)">
  <path d="m165.67,101.51c0,43.237-35.05,78.287-78.287,78.287s-78.287-35.05-78.287-78.287,35.05-78.287,78.287-78.287,78.287,35.05,78.287,78.287z" transform="translate(13.132 850.85)" stroke="#000" stroke-width="2" fill="#a9c6e4"/>
 </g>
 <path d="m150.17,68.47c-8.5541-13.187-22.238-22.74-38.231-25.813,0.0543-0.44734,0.0937-0.91273,0.0937-1.375,0-6.2062-5.0438-11.219-11.25-11.219l0.00005,0.00005c-6.2062,0-11.219,5.0125-11.219,11.219,0,0.46551,0.03925,0.92442,0.09375,1.375-16.015,3.062-29.728,12.611-38.292,25.811" stroke="#000" stroke-width="2" fill="#f5e870"/>
 <path d="m49.676,71.21c-4.9393,8.6136-7.7384,18.587-7.7384,29.231,0,6.7749,1.1433,13.287,3.25,19.344-3.7942,1.8004-6.4375,5.6466-6.4375,10.125,0,6.2062,5.0438,11.25,11.25,11.25,2.4044,0,4.6143-0.77374,6.4375-2.0625,10.197,11.688,24.924,19.303,41.454,20.103" stroke="#000" stroke-width="2" fill="#f5e870"/>
 <path d="m101.1,159.24c17.06-0.09,32.395-7.4466,43.088-19.124,1.8775,1.4062,4.1974,2.25,6.7188,2.25,6.2062,0,11.219-5.0438,11.219-11.25,0-4.4077-2.5301-8.227-6.2188-10.062,2.407-6.4242,3.7188-13.392,3.7188-20.656,0-10.644-2.8274-20.617-7.7694-29.231" stroke="#000" stroke-width="2" fill="#f5e870"/>
 <g fill="#FFF" transform="translate(0 -852.36)">
  <path d="m100.78,882.42c-6.2062,0-11.219,5.0125-11.219,11.219,0,2.4226,2.0625,6.5,2.0625,6.5s-15.416,26.715-40.938,70.938c-0.2273-0.0137-0.45675-0.0312-0.6875-0.0312-6.2062,0-11.25,5.0125-11.25,11.219,0,6.2062,5.0438,11.25,11.25,11.25,4.0933,0,9.625-5.4688,9.625-5.4688l81,0.0312s5.7002,6.6875,10.281,6.6875c6.2062,0,11.219-5.0438,11.219-11.25s-5.0125-11.219-11.219-11.219h-0.0312l-41.031-72s2.1875-4.1627,2.1875-6.6562c0-6.2062-5.0438-11.219-11.25-11.219z" stroke="#000" stroke-width="2" fill="#FFF"/>
 </g>
 <path d="M51.104,71.25,64.25,95.22,78.969,69.689h-26.906" stroke="#000" stroke-width="2" fill="#fdaead"/>
 <path d="m149.47,69.69h-27.219l14.406,25.312,13.756-23.809" stroke="#000" stroke-width="2" fill="#fdaead"/>
 <path d="m100.22,158.14,12.932-22.409-26.719-0.0312v-0.00005l12.311,22.438" stroke="#000" stroke-width="2" fill="#fdaead"/>
 <path d="m69,103.88,13.094,23.906h-21.062c-0.38531-2.001-1.3304-3.8104-2.625-5.2812l10.593-18.64z" stroke="#000" stroke-width="2" fill="#f5e870"/>
 <path d="m131.88,103.31,11.25,19.75c-1.34,1.2837-2.3616,2.8761-2.9375,4.6875h-22.438l14.125-24.438z" stroke="#000" stroke-width="2" fill="#f5e870"/>
 <path d="m98.344,52.28c0.7881,0.1751,1.5967,0.25,2.4375,0.25,0.68974,0,1.3758-0.0685,2.0312-0.1875l9.875,17.344h-24.25l9.9062-17.406z" stroke="#000" stroke-width="2" fill="#f5e870"/>
 <path d="M88.438,69.69,69,103.88l13.094,23.906,35.656-0.0312,14.125-24.438-19.188-33.625h-24.25z" stroke="#000" stroke-width="2" fill="#fdaead"/>
 <g transform="translate(0 -852.36)">
  <path d="m124,1022.8c-0.23594-0.4578-0.80689-2.0096-1.2688-3.4484-0.46194-1.4389-1.044-2.8744-1.2935-3.1898-0.53335-0.6746-0.0984-1.5669,0.76369-1.5669,0.70766,0,3.8144,7.8645,3.3826,8.563-0.44465,0.7195-1.1058,0.5699-1.584-0.3579zm-49.713-1.4644c-1.1722-1.2953-0.9603-2.7052,0.68904-4.5836,1.0942-1.2461,1.2788-1.6814,0.71348-1.6814-0.44565,0-0.76276-0.3954-0.76276-0.9514,0-0.8705,0.31207-0.9499,3.6863-0.936,2.3086,0.01,3.9974,0.2512,4.5187,0.647,1.272,0.9654,1.0154,1.2404-1.1579,1.2404-3.4867,0-7.9006,2.743-7.2292,4.4927,0.31394,0.8181,1.2691,0.829,3.1549,0.037,0.6636-0.279,0.83239-0.1097,0.83239,0.8346,0,1.8276-3.0474,2.4455-4.445,0.9014zm19.853,0.1174c0.15879-0.4138,0.28872-0.8955,0.28872-1.0702,0-0.1748,2.9966-0.3179,6.6592-0.3179,6.5887,0,6.6592,0.012,6.6592,1.0704,0,1.061-0.0597,1.0702-6.9479,1.0702-6.1402,0-6.9143-0.088-6.6592-0.7525zm35.192-1.8409c-0.42916-1.1183,0.29516-1.7906,1.5814-1.4677,1.4741,0.3698,2.5187-0.4502,2.5187-1.9774v-1.1654l-1.2533,0.9858c-1.7724,1.3943-3.7599,1.2867-4.7721-0.2582-0.72982-1.1138-0.74187-1.3744-0.11519-2.4908,1.4651-2.6102,4.9334-2.5554,6.5769,0.1039,1.3468,2.1792,1.281,4.3352-0.17692,5.7929-1.3163,1.3163-3.9279,1.6021-4.3596,0.4769zm2.6732-5.584c0-1.1692-1.1998-1.592-2.6464-0.9329-1.3435,0.6122-1.5115,1.7308-0.35687,2.377,1.0931,0.6118,3.0033-0.3068,3.0033-1.4441zm-64.606,4.6983c-1.3633-1.4512-1.3083-2.9481,0.15492-4.2203,0.8142-0.7081,1.1891-1.5232,1.1891-2.586,0-1.7659,1.7766-3.517,2.4664-2.4311,0.57705,0.9085,0.46595,1.2117-0.56374,1.5386-0.52323,0.166-0.95131,0.6317-0.95131,1.0348,0,0.8987,2.1661,0.4857,3.4308-0.654,1.0079-0.9082,2.6581-0.4617,1.8577,0.5027-0.28957,0.3487-1.3928,1.0249-2.4516,1.5024-1.4296,0.6448-1.8415,1.0614-1.6003,1.6193,0.85874,1.9859,0.74964,3.2548-0.34582,4.0221-1.467,1.0276-1.9599,0.9767-3.1862-0.3285zm2.5332-2.1892c0-1.397-0.68794-1.7-1.8802-0.8283-1.1962,0.8747-0.64192,2.336,0.80788,2.1301,0.77487-0.1099,1.0723-0.4711,1.0723-1.3018zm68.82-2.2989c0.0953-0.502,0.67539-0.8921,1.462-0.9829,1.3356-0.1542,2.5311-1.6345,2.006-2.4838-0.17474-0.2827-0.78569-0.087-1.5131,0.4853-1.7418,1.3703-3.7331,1.2506-4.7388-0.2841-0.72981-1.1138-0.74187-1.3743-0.11518-2.491,1.5137-2.6968,5.0194-2.5139,6.9582,0.3629,1.3986,2.0755,1.3736,3.6022-0.0827,5.0585-1.4319,1.4319-4.2293,1.6675-3.9766,0.3351zm1.2437-4.0193c1.1091-1.1091,0.67751-2.2831-0.83944-2.2831-1.44,0-2.7371,1.4399-2.1511,2.388,0.40132,0.6494,2.303,0.5826,2.9905-0.1049zm-80.744,3.3194c-1.6036-0.8438-1.866-3.518-0.51372-5.2371,1.1514-1.4636,3.8593-2.4811,5.5048-2.068,0.63683,0.16,1.493,0.8021,1.9026,1.4272,0.6539,0.998,0.66264,1.3305,0.07169,2.7274-0.37017,0.8751-1.1041,1.9747-1.631,2.4437-1.265,1.126-3.8793,1.4724-5.3343,0.7068zm3.9975-1.9948c1.6615-0.6942,2.9021-2.3219,2.3952-3.142-0.45328-0.7335-4.19-0.5435-5.3545,0.272-1.2737,0.8922-2.1626,2.4391-1.7682,3.0773,0.41877,0.6776,2.8664,0.5702,4.7275-0.2073zm-9.2523-1.6888c0-0.5141-0.64213-1.5919-1.427-2.3946-1.6732-1.7117-1.7536-2.1701-0.49843-2.8418,0.73687-0.3944,1.1185-0.2931,1.8488,0.4908,0.69014,0.7408,1.3798,0.9502,2.7578,0.837,1.6027-0.1315,1.8375-0.3027,1.8375-1.34,0-1.0116-0.30183-1.256-2.0215-1.6372-1.4676-0.3253-2.0215-0.6837-2.0215-1.3081,0-0.6656,0.37606-0.86,1.6648-0.86,2.2986,0,3.7666,1.5014,3.3763,3.4528-0.3957,1.9784-1.0318,2.6315-3.1949,3.2796-1.6768,0.5023-2.5388,1.3539-1.3705,1.3539,0.2616,0,0.47565,0.428,0.47565,0.9513,0,0.5284-0.31711,0.9511-0.71348,0.9511-0.39242,0-0.71349-0.4205-0.71349-0.9348zm91.158-2.8775c-2.5929-2.7617-3.3331-4.274-2.0916-4.2735,0.8524,0.0005,6.1801,6.0874,5.8274,6.658-0.51846,0.8389-0.99505,0.5347-3.7358-2.3845zm22.526-33.522c-0.65017-1.052-1.5677-1.8009-2.5036-2.0434-0.81253-0.21056-1.5688-0.65716-1.6806-0.99246-0.15515-0.46545,0.30058-0.53412,1.9265-0.29029,1.5315,0.22966,2.5416,0.10642,3.5958-0.43873,1.7254-0.89221,1.9889-0.92641,1.9889-0.25816,0,0.27496-0.75405,0.815-1.6757,1.2001-1.4401,0.60169-1.6069,0.82863-1.1866,1.614,0.26901,0.50264,0.70199,1.0455,0.9622,1.2063,0.59481,0.36761,0.62303,1.6632,0.0363,1.6632-0.24027,0-0.89869-0.74726-1.4632-1.6606zm2.7987-5.3554c-0.0289-0.1962-0.0171-0.81229,0.0265-1.3691,0.0642-0.82163-0.26186-1.0711-1.7311-1.3243-3.7796-0.65146-4.4263-0.84478-4.4263-1.3234,0-0.41896,2.3518-0.31747,5.9344,0.25608,0.2554,0.0408,0.53786-0.40726,0.62766-0.99589,0.23155-1.5176,1.0495-1.3311,1.0432,0.23782-0.009,2.1702-0.56817,4.8755-1.0083,4.8755-0.2274,0-0.43712-0.16053-0.46607-0.35674zm-139.96-2.31c-0.5794-0.93749-1.258-8.3798-1.258-13.796,0-6.1712,0.84658-13.903,1.5223-13.903,0.2092,0,0.38037,0.30664,0.38037,0.68142,0,0.37479,0.44422,0.82243,0.98716,0.99475,1.1324,0.35943,1.1658,0.33783,1.5844-1.0264,0.25038-0.81599,0.07116-1.0753-0.9141-1.3226-0.67405-0.16918-1.4297-0.18137-1.6793-0.0272-0.24958,0.15426-0.45378,0.051-0.45378-0.22927,0-0.71009,1.7725-7.0373,2.1364-7.626,0.16391-0.26521,0.08885-0.48219-0.16681-0.48219-1.1957,0-2.0632,0.73014-2.7117,2.2824-0.44332,1.061-0.87406,1.5239-1.1558,1.2422-0.86956-0.86955,0.13172-2.613,2.1951-3.8223,1.1446-0.67078,2.0811-1.2863,2.0811-1.3677,0-0.47615-2.291,0.53587-3.0881,1.3641-0.86922,0.9032-0.96109,0.91517-1.1095,0.14454-0.2391-1.2415,0.79896-2.2215,2.3533-2.2215,1.0516,0,1.3687-0.22038,1.3687-0.9513,0-0.52322,0.23901-0.95132,0.53113-0.95132,0.29695,0,0.42145,0.41944,0.28236,0.95132-0.34413,1.3159,0.42752,1.204,0.82012-0.11892l0.31759-1.0702,0.41262,1.0069c0.29857,0.7286,1.2832,1.2426,3.5624,1.8595,2.1957,0.59433,2.9988,1.0036,2.6514,1.351-0.34742,0.34742-1.4503,0.24475-3.6407-0.33893-3.2346-0.8619-4.3922-0.70557-2.8929,0.39069,0.61788,0.45182,0.76753,0.96617,0.54226,1.8638-0.1951,0.77734-0.11451,1.2397,0.21607,1.2397,0.28998,0,0.52722-0.30578,0.52722-0.67951,0-0.73309,1.2488-2.1744,1.8839-2.1744,0.21394,0,0.85683,0.37884,1.4286,0.84185l1.0396,0.84187-1.0215,1.2986c-0.56181,0.71421-1.3602,1.2986-1.7742,1.2986-0.67388,0-0.67027-0.0911,0.03453-0.86984,0.80671-0.89139,1.0536-1.9841,0.44833-1.9841-0.18638,0-0.79429,0.57116-1.3509,1.2692-1.2822,1.608-2.8518,1.261-2.402-0.531,0.40317-1.6064-0.56013-2.0267-1.1413-0.49804-0.97999,2.5776-0.95744,2.5979,3.9759,3.5766,2.0011,0.397,2.6406,0.69792,2.2703,1.0683-0.37036,0.37037-1.4094,0.35091-3.6886-0.0691-2.1554-0.39714-3.3285-0.42916-3.6579-0.0998-0.59107,0.59108-0.12548,0.77395,3.6758,1.4438,3.1346,0.55233,3.3753,0.67411,2.8886,1.4616-0.21006,0.33989-0.93404,0.43854-1.8951,0.25826-1.9702-0.3696-2.7899,1.0056-1.2208,2.048,1.1644,0.77365,1.2909,2.2189,0.22984,2.6261-1.355,0.51997-2.1015,0.30428-2.1015-0.60714,0-0.59928-0.43303-0.97905-1.3081-1.1472-0.71943-0.1382-1.3476-0.21278-1.396-0.16574-0.04835,0.047-0.23646,1.2054-0.41802,2.5741l-0.33012,2.4886h1.505c0.82774,0,2.0182-0.33628,2.6455-0.7473,1.4341-0.93964,2.9549-0.2618,3.4011,1.5159,0.37877,1.5091-1.0188,3.5502-2.8862,4.2149-1.0735,0.38216-1.4244,0.30255-1.973-0.44766-0.36697-0.50186-0.66723-1.4067-0.66723-2.0107,0-0.78112-0.27468-1.0982-0.95131-1.0982-0.68428,0-0.95131,0.31711-0.95131,1.1297,0,0.62134-0.13378,1.7986-0.29728,2.6161l-0.29728,1.4864h3.8498c3.2266,0,3.8055,0.11551,3.576,0.7135-0.20673,0.53871-1.0769,0.71347-3.5525,0.71347h-3.2787v2.6161c0,2.4664,0.06739,2.6161,1.1772,2.6161,1.0542,0,1.1474-0.14908,0.89209-1.4258-0.3556-1.778,0.4729-2.8551,2.1961-2.8551,1.3001,0,2.8694,1.2562,2.8694,2.2968,0,0.78364-0.38398,0.69828-1.7728-0.39419-1.5111-1.1886-2.5081-1.2179-2.5081-0.0738,0,1.2836,1.5251,2.452,3.2006,2.452,1.3675,0,1.4621,0.11404,1.4808,1.7837,0.01098,0.98104-0.09297,2.1705-0.23096,2.6434-0.35222,1.2068-2.2644,1.8407-3.796,1.2583-1.1421-0.43423-1.2224-0.63608-0.9444-2.3746,0.30053-1.8794,0.28829-1.8988-1.13-1.7908-1.037,0.0791-1.375,0.31166-1.2214,0.84049,0.7906,2.7216,0.84886,5.1555,0.09419,3.9345zm5.8768-2.6694c0-1.3452-1.1263-2.4159-2.1344-2.029-0.72037,0.27644-0.9992,2.2461-0.40244,2.8428,0.1744,0.17441,0.81654,0.31711,1.427,0.31711,0.85151,0,1.1099-0.26327,1.1099-1.1309zm-0.08706-15.163c0.1909-1.6596-1.0925-2.2874-2.0611-1.0083-1.1634,1.5364-0.89385,2.6417,0.60229,2.4695,1.0282-0.1183,1.3403-0.43098,1.4588-1.4613zm131.48,13.322c-0.71944-0.10899-3.1596-0.14873-2.9898-0.87068,0.0681-0.28936,6.6823-0.0899,7.3701,0.56103,0.45147,0.42729-1.7655,0.70577-4.3804,0.30965zm-1.7558-2.6439c-1.4167-1.5655-0.42469-6.0692,1.1244-5.1118,0.43631,0.26967,0.38613,0.57062-0.20388,1.2226-0.96183,1.0628-0.7572,3.019,0.33761,3.2276,0.58701,0.11184,0.94338-0.35644,1.3115-1.7234,0.65063-2.4162,1.5297-3.1845,2.8409-2.4828,1.2379,0.66251,1.7389,2.6028,1.0579,4.0974-0.51264,1.1252-1.9732,1.6273-1.9732,0.67842,0-0.26161,0.18907-0.47566,0.42017-0.47566,0.54877,0,1.0139-1.8062,0.68554-2.662-0.48883-1.2739-1.4944-0.6573-2.1308,1.3065-0.76141,2.3497-2.2979,3.2184-3.47,1.9232zm-0.73709-5.972c0-0.39898,0.64214-1.1047,1.427-1.5683,0.94424-0.55779,1.427-1.2226,1.427-1.9654,0-0.97569-0.19685-1.1022-1.5059-0.96767-0.90219,0.0927-1.5855-0.0834-1.7044-0.4398-0.14396-0.43109,0.66248-0.6142,2.9328-0.66592,1.7223-0.0393,3.399-0.0927,3.726-0.11891,0.78055-0.0625,1.0559,3.6405,0.36646,4.9286-0.60008,1.1213-2.0752,1.2703-2.9638,0.2994-0.52469-0.57326-0.8367-0.53328-2.1592,0.27664-1.2886,0.78915-1.5459,0.82599-1.5459,0.22131zm5.8948-1.5316c0.1588-0.41381,0.28871-1.27,0.28871-1.9026,0-0.9098-0.24856-1.1502-1.1891-1.1502-0.98529,0-1.1891,0.22831-1.1891,1.3318,0,2.0184,1.501,3.2547,2.0896,1.721zm-6.3705-5.6095c0-0.62133-0.12947-1.777-0.2877-2.5682-0.32922-1.646-0.13794-1.7487,4.1706-2.2379,2.3444-0.2662,2.7263-0.19415,2.9449,0.55561,0.53857,1.847,0.52754,4.1168-0.0209,4.3-0.36549,0.12207-0.61803-0.53719-0.71347-1.8626-0.12133-1.6852-0.31759-2.0516-1.099-2.0516-0.78793,0-0.92473,0.26551-0.79656,1.5459,0.19661,1.9637-0.65222,2.0314-1.0419,0.0832-0.21245-1.0623-0.52174-1.4192-1.1297-1.3038-0.63271,0.12017-0.87252,0.70967-0.98209,2.4141-0.14577,2.2673-1.0442,3.2356-1.0442,1.1254zm2.0215-6.1378c-1.7553-0.28094-2.9728-0.71261-2.9728-1.054,0-0.62643,5.2895-4.5213,6.1402-4.5213,1.1305,0,0.40263,0.88143-1.9203,2.3254-1.3416,0.83398-2.3444,1.6112-2.2285,1.7272,0.11595,0.11593,1.3564,0.37566,2.7567,0.57717,1.4002,0.20152,2.6349,0.63355,2.7438,0.96007,0.22331,0.66991-0.25206,0.66837-4.519-0.0146zm-4.1216-4.5587c-0.39876-0.64521,0.1706-0.93751,3.7709-1.9358,2.402-0.66607,3.0858-0.7192,3.0858-0.2398,0,0.33872-1.1693,0.95579-2.5985,1.3713-1.4292,0.41546-2.9058,0.87333-3.2815,1.0175-0.37565,0.14414-0.81518,0.0483-0.9767-0.21313zm-0.51977-1.974c-0.16373-0.26496,0.56253-1.4881,1.6139-2.7182,1.0514-1.23,1.8483-2.2998,1.7708-2.3773s-1.0573,0.18251-2.1775,0.57771c-2.384,0.84113-2.3927,0.84224-2.3927,0.30664,0-0.41178,5.0826-2.442,6.1134-2.442,0.9824,0,0.57555,1.0408-1.156,2.9575-0.93599,1.036-1.6013,1.9842-1.4784,2.107,0.12287,0.12286,1.0218-0.11021,1.9977-0.51795,2.1045-0.87932,2.7524-0.93239,2.5101-0.20563-0.0982,0.29464-1.5608,1.0403-3.2503,1.6569-3.6322,1.3257-3.1875,1.2437-3.5512,0.65525zm-2.431-6.9104c-1.135-1.7322-0.30105-3.2401,2.4698-4.4657,2.3852-1.0551,3.0578-1.1934,3.0551-0.62809-0.00086,0.19621-1.1247,0.89185-2.4972,1.5459-2.6345,1.2554-3.2412,2.5177-1.6826,3.5009,0.62276,0.39282,1.3213,0.26583,2.9856-0.54274,2.4581-1.1943,2.6228-1.2321,2.6228-0.60214,0,0.55409-4.0626,2.4005-5.2817,2.4005-0.48393,0-1.2362-0.54388-1.6718-1.2086zm-119.3-4.8895c-2.0266-0.90205-2.8727-1.0892-3.0135-0.66681-0.10768,0.32304-0.38219,0.47213-0.61004,0.33131-0.22784-0.14082-0.29368-0.57025-0.14631-0.95428,0.19154-0.49914-0.07113-0.69824-0.9212-0.69824-1.3734,0-1.6967-0.63073-1.321-2.5769,0.27695-1.4346,0.92256-1.7939,4.311-2.3992,1.3777-0.2461,2.0529-0.84743,3.9156-3.4875,1.2379-1.7545,3.2108-4.1533,4.3842-5.3305s2.1405-2.276,2.1491-2.4417c0.0086-0.16569-0.41252-0.4132-0.93575-0.55004-0.6725-0.17587-0.94917-0.64517-0.94403-1.6014,0.01229-2.2878,0.52329-2.6262,3.7661-2.4938l2.9587,0.12074,3.6499-3.0856c5.5476-4.6898,12.39-8.5595,19.753-11.171,1.5899-0.56393,1.798-0.55847,1.5679,0.0411-0.14591,0.38024,0.25991,2.2355,0.90182,4.1228s1.1671,3.518,1.1671,3.6237c0,0.10577-0.62175,0.0558-1.3817-0.11117-0.79259-0.17409-1.5144-0.0887-1.6929,0.20003-0.5246,0.84884-1.937,0.56191-3.0463-0.61888-0.92465-0.98426-0.98302-1.2791-0.47422-2.3959,0.47691-1.0467,0.45547-1.3982-0.12034-1.974-0.59959-0.59959-0.83024-0.60575-1.6002-0.0427-0.87015,0.63626-0.84996,0.76184,0.61621,3.8313,0.83372,1.7454,1.5158,3.3711,1.5158,3.6128,0,1.0268-1.374-0.20938-2.1531-1.9371-0.94476-2.0951-1.8855-2.515-1.5357-0.68547,0.25347,1.3259-0.8647,1.6644-1.9642,0.59457-0.49391-0.48057-0.58054-0.36657-0.45188,0.59459,0.1207,0.90158,0.48232,1.2262,1.4954,1.3424,1.4385,0.16497,1.5275,1.1643,0.12778,1.4357-1.128,0.21869-3.1288-1.7379-3.1288-3.0596,0-0.76098,0.51162-1.317,1.7837-1.9386,2.1513-1.0512,2.8356-2.8438,0.90007-2.358-1.7786,0.4464-4.5864,2.2031-4.5864,2.8695,0,0.47518,1.2295,2.7099,3.4915,6.3464,0.23435,0.37673,0.10595,0.59458-0.35046,0.59458-0.39617,0-1.6094-1.4965-2.696-3.3256s-2.1664-3.2077-2.3995-3.0637c-0.74876,0.46276-0.45502,1.3315,1.4833,4.3869,1.044,1.6456,1.8981,3.0904,1.8981,3.2107,0,0.12029-0.43835,0.21872-0.97412,0.21872s-1.4623,0.56752-2.0589,1.2612c-0.85361,0.99238-1.3489,1.1949-2.3238,0.95021-0.68143-0.17103-1.3747-0.73855-1.5405-1.2612-0.16588-0.52262-0.71525-0.95021-1.2208-0.95021-1.1304,0-1.3038-2.2606-0.20577-2.6819,0.39241-0.15059,0.71348-0.46493,0.71348-0.69857,0-0.76168-0.96716-0.44855-2.2293,0.72175l-1.2365,1.1465,0.94159,1.197c0.51787,0.65837,1.6187,1.7668,2.4463,2.4632,1.7107,1.4395,1.9096,2.1329,0.61168,2.1329-0.49118,0-1.1595,0.32108-1.4852,0.71349-0.83209,1.0026-2.6803,0.88709-3.8052-0.23783-1.2555-1.2555-1.2303-3.1468,0.05106-3.8326,0.72943-0.39038,0.8598-0.67904,0.47879-1.06-0.381-0.381-0.91301-0.15048-1.9537,0.84654-0.78655,0.75357-1.4301,1.1287-1.4301,0.83356,0-0.29512,0.21405-0.66886,0.47565-0.83055,1.0369-0.64083,0.37892-1.1891-1.427-1.1891-1.7969,0-1.9026,0.0793-1.9026,1.427,0,1.0892,0.2158,1.427,0.91168,1.427,0.50141,0,1.0196-0.26754,1.1516-0.59457,0.16056-0.39787,0.25234-0.35262,0.27746,0.1368,0.02063,0.40225,1.1078,1.7855,2.4158,3.0739,1.3081,1.2884,2.3783,2.5111,2.3783,2.7172,0,0.88412-1.2464,0.22875-3.405-1.7903-1.3215-1.2361-2.5471-2.0212-2.8567-1.8298-0.34459,0.21297,0.43764,1.2767,2.1463,2.9186,1.4786,1.4209,2.6884,2.6725,2.6884,2.7812s-0.41546,0.19763-0.92324,0.19763-1.0637,0.22725-1.2353,0.50499c-0.56309,0.91111-2.5987,1.4307-3.5695,0.91113-1.596-0.85413-2.0792-2.3129-1.1179-3.3751,0.46217-0.51069,1.1263-0.81876,1.4759-0.68462,0.49578,0.19024,0.52486,0.037,0.13219-0.69671-0.72793-1.3602-1.1194-1.1988-3.1988,1.3188-2.7153,3.2875-2.7164,3.2948-0.48466,3.2502,1.6494-0.0328,2.0777,0.15739,2.5864,1.1496,0.33534,0.65402,0.9347,1.1262,1.3319,1.0494,0.39718-0.0768,0.72215,0.0835,0.72215,0.35673,0,0.27309-0.41546,0.49653-0.92324,0.49653s-1.0555,0.21404-1.2172,0.47564c-0.37416,0.60541-2.1404,0.62492-2.1404,0.0236,0-0.24861,0.36447-0.65599,0.80993-0.90528,0.68295-0.38219,0.71111-0.57233,0.17959-1.2128-0.87559-1.055-1.9408-0.94975-1.9408,0.19179,0,0.52851-0.3171,0.95131-0.71348,0.95131-0.39242,0-0.71348-0.21405-0.71348-0.47566,0-0.2616-0.32107-0.47565-0.71348-0.47565-1.4141,0-0.6626,0.88899,2.0215,2.3915,1.5043,0.84208,2.7948,1.5823,2.8679,1.6449,0.07314,0.0626-0.5076,0.79955-1.2904,1.6376-1.8183,1.9465-3.9563,1.8977-5.4546-0.12443l-0.99834-1.3474,1.1464-0.93093c0.80594-0.65448,0.99697-1.0803,0.64327-1.434-0.3537-0.35368-0.8707,0.0378-1.7409,1.3185-0.68081,1.0019-1.2378,2.095-1.2378,2.4292,0,0.33412,1.3792,1.2876,3.0649,2.1189,1.6857,0.83127,2.9573,1.6854,2.8259,1.8982-0.36223,0.5861-1.1115,0.41536-4.1897-0.95477zm4.4825-3.5946c0-1.3744-1.0277-2.3221-2.0802-1.9182-1.4969,0.5744-0.73238,3.0491,0.94191,3.0491,0.8814,0,1.1382-0.25519,1.1382-1.1309zm-6.6937-0.59804c1.3156-1.6726,1.2464-1.9498-0.42583-1.7044-1.6804,0.24663-2.5225,1.1169-2.1131,2.1839,0.43451,1.1323,1.417,0.94676,2.5389-0.4795zm13.001-7.7315c0.34799-1.3307-0.31993-2.1082-1.4916-1.7363-0.96483,0.30624-1.3657,1.6458-0.69359,2.3178,0.64128,0.64129,1.957,0.29113,2.1852-0.58155zm6.2138-5.4765c0.37995-0.99015-0.82555-2.3959-1.7503-2.0411-0.77907,0.29894-1.0687,1.7877-0.46516,2.3912,0.55906,0.55905,1.951,0.33907,2.2154-0.35014zm5.4267-3.2569c1.0719-1.3699,1.0205-2.9021-0.16525-4.9253-1.3929-2.3769-2.822-2.4556-2.3106-0.12728,0.22026,1.0028,0.10006,1.4439-0.4511,1.6554-0.41326,0.15858-0.75137,0.58649-0.75137,0.95091,0,0.75562,0.75526,0.88898,1.1763,0.2077,0.15463-0.25018,0.60973-0.32877,1.0114-0.17465,0.51748,0.19856,0.58233,0.4281,0.2226,0.78784-0.72642,0.7264-0.6271,2.22,0.14761,2.22,0.36038,0,0.86458-0.26754,1.1204-0.59456zm14.898-10.652c0.63285-1.6645-0.24676-4.4502-1.4052-4.4502-0.70659,0-0.81229,0.40586-0.71232,2.735,0.14165,3.3004,0.041,2.9728,0.91408,2.9728,0.39889,0,0.94043-0.56595,1.2034-1.2577zm78.338,29.283c-0.47861-0.27878-0.8324-1.05-0.8324-1.8144,0-1.4436,0.82305-2.3631,3.187-3.5602,1.7197-0.87081,2.0452-0.93289,2.0452-0.38998,0,0.20949-0.97704,0.85556-2.1712,1.4357-1.8816,0.91412-2.1512,1.2276-2.0216,2.3501,0.20384,1.7641,1.4679,1.897,3.74,0.39331,1.9349-1.2804,2.831-1.5336,2.831-0.79993,0,0.60913-4.0372,2.9021-5.0791,2.8847-0.47665-0.008-1.2412-0.23263-1.699-0.49928zm-4.1692-5.4638c-0.56882-0.60548-0.93717-1.181-0.92866-1.4258,0.009-0.24476,1.2392-1.3482,2.735-2.4521l2.7196-2.0071,1.0678,1.2936c1.3354,1.6176,0.73287,4.0741-1.0295,4.9055-1.5292,0.72142-1.8828-0.0445-0.17962-0.58107,1.3248-0.4174,1.5513-2.3818,0.7596-3.1735-0.83729-0.83729-1.386-0.6975-3.2152,0.81912-1.4214,1.1785-1.5592,1.4683-1.012,2.1276,0.34843,0.41984,1.1712,0.95026,1.7644,0.76336,1.7031-0.53661,1.8817-0.29647,1.8817-0.0349,0,0.93008-3.5257,0.8695-4.5632-0.23484zm-2.3711-2.5098c0-0.22064,0.41656-1.612,0.9257-3.0918s0.78571-2.6906,0.61461-2.6906c-0.17108,0-1.0981,0.76855-2.0601,1.7079-0.96197,0.93934-1.876,1.5025-2.0312,1.2514-0.15516-0.25108,0.98333-1.5572,2.53-2.9024,1.6024-1.3937,2.9416-2.2363,3.1132-1.9588,0.16559,0.26794-0.14134,1.6697-0.68209,3.115-0.54076,1.4453-0.98319,2.7435-0.98319,2.8848,0,0.14138,0.90636-0.51877,2.0142-1.467,2.7965-2.3937,2.8213-1.3093,0.031,1.3527-2.1358,2.0375-3.472,2.7297-3.472,1.7986zm-3.3296-4.8737c0-1.2588-1.8764-2.8501-2.9728-2.5212-0.45781,0.13732-0.83161,0.0747-0.83064-0.13912,0.002-0.45302,5.7059-3.4806,6.5573-3.4806,0.82658,0,0.73043,0.55585-0.69779,4.0336-1.2883,3.1371-2.056,3.9239-2.056,2.1072zm0.83581-2.0149,1.4099-3.1437-1.83,0.70541c-2.1405,0.8251-1.2488,1.1621-1.2488,1.1621zm-5.5924-1.5838c0-0.17151,0.55673-1.0417,1.2372-1.9339,0.68042-0.89212,1.1427-1.7165,1.0273-1.8319-0.11547-0.11546-1.1202,0.44949-2.2327,1.2554-1.1126,0.80591-2.1305,1.3577-2.262,1.2261-0.13157-0.13158,0.0923-1.3703,0.49758-2.7527,0.40525-1.3824,0.65586-2.5944,0.55693-2.6934-0.0989-0.0989-0.75947,0.69593-1.4679,1.7664-1.1271,1.7032-2.1129,2.4881-2.1129,1.6823,0-0.21427,3.5041-5.6204,4.1246-6.3635,0.0947-0.11338,0.42257,0.0444,0.72869,0.35045,0.425,0.425,0.36688,1.1583-0.24576,3.1019-0.44129,1.3999-0.80233,2.7055-0.80233,2.9014,0,0.19585,0.89834-0.30457,1.9963-1.112,2.1327-1.5684,4.0082-1.9759,3.5456-0.77035-0.41712,1.087-3.7981,5.4858-4.2165,5.4858-0.20575,0-0.37412-0.14032-0.37412-0.31185zm-6.1835-3.9858c0-0.27081,0.36059-1.0428,0.80134-1.7154,0.77375-1.1809,0.76145-1.2536-0.35675-2.1132-1.6087-1.2365-2.1391-1.135-2.8338,0.54215-0.38959,0.94052-0.7651,1.2904-1.0641,0.99133-0.29903-0.29903,0.17955-1.6501,1.3562-3.8285,1.1374-2.1058,1.986-3.1986,2.2663-2.9184,0.28024,0.28024,0.15697,0.8922-0.32918,1.6342-0.75156,1.147-0.73185,1.2184,0.59729,2.1649,1.7418,1.2402,1.8695,1.2291,2.4168-0.2104,0.24866-0.65404,0.67146-1.1892,0.93954-1.1892,0.7066,0,0.65482,0.16704-1.1833,3.8171-1.4984,2.9754-2.6101,4.1788-2.6101,2.8253zm-6.6592-4.4884c0-0.38495,0.53788-1.9162,1.1953-3.4027,0.65741-1.4865,1.139-2.7479,1.0702-2.8031-0.0688-0.0551-0.62965-0.36314-1.2464-0.68444-0.76094-0.39641-0.96564-0.73981-0.63695-1.0685,0.60972-0.60971,5.3257,1.8596,5.3257,2.7885,0,0.74624-0.7638,0.85044-1.1892,0.16223-0.63027-1.0198-1.3032-0.35569-2.6507,2.6161-1.4069,3.1028-1.8681,3.6933-1.8681,2.3918zm-1.9026-1.3362c0-1.5054-2.7213-2.6079-3.5706-1.4465-0.35036,0.47911-0.68032,0.58642-0.86825,0.28234-0.42916-0.69441,4.0279-6.2654,5.0334-6.2914,0.71989-0.0186,0.8324,0.45549,0.8324,3.507,0,1.9407-0.12992,3.8671-0.28872,4.2809-0.4289,1.1177-1.1382,0.91052-1.1382-0.33247zm0.45857-4.5322-0.0171-1.7556-1.1712,1.427c-1.0663,1.2991-1.1011,1.4789-0.38848,2.0063,1.124,0.83191,1.5964,0.32938,1.5768-1.6776zm-6.7894,2.4064c-0.11187-0.19621-0.46219-1.1594-0.77844-2.1405-0.69189-2.1463-1.7352-2.3182-2.166-0.35675-0.30456,1.3867-1.206,2.0266-1.1724,0.8324,0.0411-1.4652,1.7862-6.7449,2.2842-6.9108,0.67483-0.22495,0.70225,0.39181,0.0891,2.0044-0.57086,1.5015-0.14469,1.5499,2.3665,0.2688,2.1317-1.0875,2.3783-1.1361,2.3783-0.46796,0,0.26583-0.74916,0.84059-1.6648,1.2772-1.8972,0.90471-1.9208,0.98678-0.95131,3.3072,0.39242,0.93918,0.71348,1.8955,0.71348,2.1252,0,0.50964-0.81686,0.55486-1.0986,0.0609z"/>
 </g>
 <g transform="translate(0 -852.36)">
  <path d="m50.945,985.24c-1.3296-0.69666-3.8694-0.64989-6.2473,0.11506-0.87253,0.28068-0.87852,0.25686-0.09741-0.38673,0.45782-0.37722,0.8324-0.82114,0.8324-0.98652,0-0.50565,2.0453-2.6862,2.5195-2.6862,0.24495,0,0.33205,0.43326,0.19357,0.96281-0.19795,0.75695,0.15602,1.1709,1.6554,1.9358,1.049,0.53514,1.9657,0.90453,2.0372,0.82089,0.07151-0.0837-0.6367-1.5374-1.5737-3.2305-1.5658-2.8294-1.7301-2.9833-2.0312-1.9026l-0.32762,1.1758-0.04744-1.28c-0.10087-2.7229,2.1063-2.1142,3.8767,1.0691,1.2666,2.2773,1.686,4.4399,0.94947,4.8951-0.19723,0.12187-0.98006-0.104-1.7396-0.50199z"/>
  <path d="m151.41,986.35c-1.6464,0.83024-1.6487,0.82986-1.9563-0.34624-0.25812-0.98705-0.62058-0.9964-3.0617-0.079-1.1092,0.41684-0.62799-2.2118,0.90073-4.9205,2.0885-3.7006,4.2676-4.4713,4.1563-1.47l-0.0563,1.5178-0.30046-1.3451c-0.29006-1.2985-0.36355-1.2352-2.1208,1.8264-1.905,3.3189-1.993,4.3424-0.24127,2.8058,0.5698-0.49982,0.87955-0.6412,0.68835-0.31418-0.19123,0.327-0.23351,0.59456-0.094,0.59456,0.13952,0,0.59792-0.66568,1.0187-1.4793,0.56647-1.0954,0.6005-1.3933,0.13113-1.1479-0.34862,0.18232-0.0987-0.11044,0.55529-0.65054,1.7289-1.4278,2.8616-1.3053,2.8205,0.30489-0.0279,1.0882-0.0935,1.1548-0.39073,0.39647-0.30425-0.77621-0.54754-0.57121-1.6383,1.3804-0.70457,1.2606-1.1776,2.3954-1.0511,2.5219,0.4359,0.43588,2.638-1.3496,2.6754-2.1693,0.023-0.50133,0.27846-0.22389,0.27846-0.22389l3.6333,2.969s-4.3039-0.98185-5.9472-0.17116z"/>
  <path d="m95.974,900.1c-0.65266-0.16675-1.2471-0.61487-1.321-0.9958-0.11278-0.58141,0.76255-0.66865,5.4516-0.5432l5.5859,0.14946-1.3002-1.0228c-1.1041-0.86848-1.762-0.99227-4.3618-0.82058-1.6839,0.11121-3.4461,0.5005-3.916,0.86512-0.82008,0.63624-0.82049,0.62293-0.01006-0.3309,0.73517-0.86527,0.75442-1.0685,0.14882-1.5711-0.59356-0.49261-0.47562-0.77382,0.80416-1.9173,1.3126-1.1728,1.4181-1.4384,0.84566-2.1281-0.56627-0.68231-0.52282-0.88001,0.32374-1.473,0.56552-0.39613,1.2191-1.6908,1.5502-3.0707,0.3148-1.3122,0.75193-2.3858,0.97141-2.3858,0.2195,0,0.55015,1.0075,0.73481,2.2388,0.20837,1.3895,0.70979,2.5417,1.3218,3.0372,0.85145,0.68946,0.8971,0.90563,0.33438,1.5836-0.56655,0.68267-0.47742,0.96707,0.68251,2.1778,1.1575,1.2082,1.2482,1.4961,0.68518,2.1746-0.5649,0.68064-0.48225,0.90348,0.63773,1.7193,1.0461,0.76203,1.1966,1.1057,0.8048,1.8378-0.42061,0.78592-1.0104,0.89275-4.6344,0.83957-2.2839-0.0335-4.6865-0.19735-5.3391-0.3641zm8.0837-5.1607c0-0.79843-1.1983-1.5239-2.5923-1.5695-1.4131-0.0461-1.4199-0.0574-0.2616-0.42825l1.1891-0.38083-1.3081-0.0475c-0.71943-0.0261-1.3081,0.17928-1.3081,0.45632s-0.17916,0.393-0.39814,0.25767c-0.21898-0.13534-0.8829,0.0934-1.4754,0.50848-0.8463,0.59277-0.93941,0.84192-0.43426,1.162,0.81408,0.51588,6.5887,0.55226,6.5887,0.0415zm-1.9026-4.6139c-0.32568-0.39241-1.0748-0.71349-1.6648-0.71349-0.58995,0-1.3391,0.32108-1.6648,0.71349-0.51219,0.61715-0.28743,0.7135,1.6648,0.7135s2.177-0.0964,1.6648-0.7135z"/>
 </g>
 <g transform="translate(0 -852.36)" stroke="#000" stroke-miterlimit="1.7" stroke-width="1.2" fill="none">
  <path d="m52.122,922.18c0,0.95092-0.77087,1.7218-1.7218,1.7218-0.95092,0-1.7218-0.77088-1.7218-1.7218,0-0.95093,0.77088-1.7218,1.7218-1.7218,0.95093,0,1.7218,0.77088,1.7218,1.7218z"/>
  <path style="enable-background:new;" d="m101.19,1011.9c0,0.951-0.77087,1.7218-1.7218,1.7218-0.95092,0-1.7218-0.7708-1.7218-1.7218,0-0.9509,0.77088-1.7218,1.7218-1.7218,0.95093,0,1.7218,0.7709,1.7218,1.7218z"/>
  <path style="enable-background:new;" d="m152.88,922.14c0,0.95092-0.77087,1.7218-1.7218,1.7218-0.95092,0-1.7218-0.77088-1.7218-1.7218,0-0.95093,0.77088-1.7218,1.7218-1.7218,0.95093,0,1.7218,0.77088,1.7218,1.7218z"/>
 </g>
 <path d="m18.79,76.536-5.1685-1.5988,0.04528-1.942c0.18311-7.8544,2.1188-15.797,5.0317-20.646,3.6802-6.1265,9.862-11.87,16.651-15.471l1.5032-0.79733,3.2158,4.2868c1.7687,2.3577,3.2397,4.3488,3.2688,4.4246,0.02917,0.07581-0.37784,0.5887-0.90447,1.1398-3.6869,3.8579-8.1387,9.9219-11.045,15.045-1.4138,2.4922-3.3426,6.5125-4.4748,9.3271-0.84046,2.0895-2.4894,6.8246-2.6041,7.4781-0.02773,0.15796-0.11784,0.30193-0.20024,0.31992-0.08239,0.01799-2.4756-0.68676-5.3183-1.5661z" fill="none"/>
 <g transform="translate(0 -852.36)">
  <path d="m106.67,968.48-14.978-16.101,15.569-16.411,3.944,4.1754-11.365,12.207,7.6039,7.8247,11.871-11.746,4.007,4.3917zm-22.211-32.377h5.681v32.82h-5.6711l-0.0099-32.82z"/>
 </g>
</svg>
