<?xml version="1.0" standalone="no"?>
<!DOCTYPE svg PUBLIC "-//W3C//DTD SVG 1.1//EN" "http://www.w3.org/Graphics/SVG/1.1/DTD/svg11.dtd" >
<svg xmlns="http://www.w3.org/2000/svg">
<metadata></metadata>
<defs>
<font id="ananda_akchyarregular" horiz-adv-x="0" >
<font-face units-per-em="2048" ascent="1536" descent="-512" />
<missing-glyph horiz-adv-x="665" />
<glyph horiz-adv-x="2048" />
<glyph horiz-adv-x="2048" />
<glyph unicode="&#xd;" horiz-adv-x="665" />
<glyph unicode=" "  horiz-adv-x="665" />
<glyph unicode="&#x09;" horiz-adv-x="665" />
<glyph unicode="&#xa0;" horiz-adv-x="665" />
<glyph unicode="!" horiz-adv-x="722" d="M-1 730q-5 56 7 110.5t41 101.5t72 83t92 58q25 8 49.5 14.5t48.5 10.5q12 0 22.5 -3t14.5 -9q0 -2 2 -3t2 -3q37 6 72 -7q68 -23 97.5 -67.5t43.5 -91.5q10 -35 13.5 -85.5t-1.5 -84.5q-12 -80 -28.5 -177.5t-37 -195.5t-40.5 -188.5t-39.5 -158t-36 -103t-24.5 -25.5 q0 115 11 199.5t28.5 153.5t37 127t31.5 122q-59 -59 -139 -69.5t-156 22.5q-25 10 -47 28.5t-45 36.5q-41 41 -63.5 94.5t-27.5 109.5zM74 751.5q2 -69.5 32 -133.5q23 -43 61 -69.5t81 -36.5q57 -14 102 -1t79 46t53.5 81t23.5 105q4 37 3 77t-13 75q-12 39 -29.5 77 t-46.5 56l-12 8q-18 10 -36 12.5t-40 -6.5q-25 -6 -48.5 -14t-45.5 -27q16 23 31.5 40.5t43.5 33.5q8 4 15.5 6t15.5 4v2q-2 2 -3 3.5t-9 1.5q-12 0 -29.5 -6.5t-34.5 -12.5q-61 -27 -105 -77t-67.5 -112.5t-21.5 -132z" />
<glyph unicode="&#x22;" d="M-690 -152q-6 49 18.5 87t64.5 63t89 34t92 3q74 -12 137.5 -56.5t114.5 -91.5l276 -336q-35 0 -85 47.5t-108.5 112t-123 130t-129.5 100.5q-6 -49 -25 -103q-12 -29 -31.5 -57.5t-54.5 -44.5q-29 -12 -67.5 -12t-73.5 14t-61.5 41.5t-32.5 68.5zM-610 -121 q-6 -29 16 -51q33 -37 83 -39t91 37q23 23 40.5 52.5t31.5 64.5q-41 20 -93.5 31.5t-99.5 -13.5q-29 -16 -48 -38.5t-21 -43.5z" />
<glyph unicode="#" horiz-adv-x="948" d="M0.5 305q5.5 37 32 63.5t72 38t102.5 1.5q29 -6 91 -21.5t148 -77.5q29 -23 56.5 -41t52.5 -45q43 29 87 72t67 88q14 25 18 59.5t-1 68.5t-21.5 62.5t-42.5 42.5q-25 14 -59 26.5t-66 8.5q-12 0 -19.5 -1t-16.5 -4t-27.5 -10t-51.5 -24l-31 43l58 58q23 23 52 48t52 48 q37 37 74 75t47 70.5t-17.5 54t-119.5 21.5q-72 0 -140.5 -7t-138.5 -30q-35 -12 -43 -47q-4 -31 6 -47q10 -20 17 -27q-10 6 -19.5 16.5t-15.5 31.5q-8 23 0 45q10 25 16 30q23 20 48.5 31.5t45.5 17.5q37 12 108 23.5t143.5 8.5t129 -25.5t64.5 -79.5q4 -23 -10.5 -43.5 t-24.5 -30.5q-35 -41 -77 -84t-95 -96q2 0 17.5 -4t32.5 -8.5t32.5 -7.5t19.5 -5q25 -10 43.5 -19t33.5 -20.5t28.5 -27t25.5 -37.5q29 -51 34 -99.5t-8 -94.5t-42 -88t-66 -79q-23 -23 -43 -44t-47 -38q25 -27 35 -64.5t21 -68.5q10 -45 24.5 -87t50.5 -75q-41 23 -66.5 61 t-45.5 77q-10 20 -19.5 38.5t-21.5 34.5q-8 12 -18.5 24.5t-20.5 25.5q-8 -4 -15.5 -8.5t-17.5 -8.5q-55 -16 -112.5 -25.5t-120.5 -5.5q-39 4 -67 14.5t-56 22.5q-29 14 -55.5 32t-51.5 44q-10 10 -17 22.5t-18 28.5q-25 41 -19.5 78zM90 265.5q8 -25.5 28.5 -50.5t46 -45 t48.5 -25q16 -4 27.5 -6t25.5 -4q16 -2 36 -2t34 2q29 4 50 9.5t46 15.5q12 4 26.5 10t24.5 12q-37 45 -83 74t-97 53q-63 27 -120.5 28t-86.5 -30q-14 -16 -6 -41.5z" />
<glyph unicode="$" horiz-adv-x="860" d="M8 745q-10 53 18.5 102.5t67.5 78.5q74 53 160 65q41 6 80 -1t59 -29q-39 23 -98 10q-35 -6 -73 -24.5t-67.5 -46.5t-47 -63.5t-11.5 -76.5q10 -39 37 -81t74 -65q29 -14 54.5 -24t53.5 -15q47 29 94.5 61t86.5 60q12 8 26.5 20.5t52 42t110.5 85t200 151.5 q18 14 34.5 31.5t32.5 34.5q8 8 12.5 12t12.5 14l8 9l-29 -47q-10 -20 -21 -36t-26 -34q-25 -35 -42 -53.5t-48 -48.5q-33 -35 -67.5 -64t-80.5 -63.5t-108.5 -81.5t-150.5 -117q25 -10 68.5 -26.5t74.5 -32.5q35 -23 67.5 -46.5t55.5 -70.5q23 -51 11.5 -106.5t-48.5 -92.5 q-35 -35 -75 -60.5t-79 -47.5q-47 -27 -96 -45.5t-108 -30.5q-29 -4 -62 -6t-71 10q-18 6 -38 17.5t-36 29.5q-31 33 -39 74q-4 18 -4 36.5t2 32.5q4 16 7 31.5t7 32.5q8 31 20.5 57.5t28.5 52.5q31 47 67 86t73 74q-27 12 -53.5 23.5t-53.5 27.5q-12 8 -29.5 21.5t-36 34 t-34 49.5t-23.5 69zM125 188q0 -27 5 -50t22 -38q14 -14 34.5 -22t42.5 -6q43 2 95.5 16t101.5 39t91 56.5t66.5 64.5t26 65.5t-29.5 59.5q-16 14 -33 28.5t-38.5 27.5t-48 25.5t-65.5 22.5q-10 4 -33.5 9.5t-33.5 9.5q-35 -20 -69 -48t-60 -59q-37 -43 -54.5 -95 t-19.5 -106z" />
<glyph unicode="%" horiz-adv-x="1024" d="M14 319q0 12 1 26.5t12 35.5q23 43 70.5 56.5t102 10t104.5 -18.5t77 -28q14 -8 52 -30.5t104 -83.5q2 -4 3 -5t3 -6q12 20 24.5 38t20.5 38q29 47 46 100.5t28 112.5q-8 -6 -15.5 -12t-13.5 -12q-53 -29 -116.5 -38t-123.5 11q-29 12 -52.5 25.5t-45.5 33.5 q-41 41 -57 91q-18 51 -24.5 106t-2.5 102q2 29 20.5 69t42 80t46 72.5t34.5 45.5q-6 -12 -21.5 -47t-31.5 -76t-29.5 -79t-13.5 -54q-2 -35 0 -59.5t10 -57.5q8 -29 21.5 -57.5t34.5 -49.5q29 -29 46 -40t56 -19q90 -20 205 27q31 12 57.5 52t48 90t39 101.5t29.5 87.5 l24 62l39 108q18 -70 10 -114.5t-16 -85.5q-10 -55 -23.5 -106.5t-35.5 -104.5q-10 -35 -25.5 -60.5t-25.5 -62.5q-8 -59 -21.5 -117.5t-36.5 -118.5q-14 -43 -34.5 -85t-53.5 -76q6 -10 16.5 -22.5t18.5 -22.5l21 -27q31 -41 51 -86t49 -84q29 -41 62.5 -75t84.5 -48 q-51 2 -95 26.5t-79 57.5q-37 31 -69.5 65.5t-65.5 69.5q-16 20 -32.5 39t-32.5 35q-57 -31 -125 -46.5t-140 -0.5q-41 8 -84 29.5t-79.5 54.5t-62.5 72.5t-30 84.5zM109 328q-2 -12 4 -25.5t12 -28.5q23 -43 58.5 -72.5t79.5 -43t91 -10t92 21.5q4 2 11.5 5t13.5 7 q8 4 16 6q-23 33 -60.5 67t-85.5 59.5t-100.5 40t-103.5 7.5q-10 0 -20.5 -10t-7.5 -24z" />
<glyph unicode="&#x26;" horiz-adv-x="1021" d="M14 350q-27 170 18.5 322.5t147.5 285.5q29 37 61.5 68t69.5 53q20 10 40 15.5t36 1.5q31 -2 57 -29q-43 29 -88 4q-23 -10 -43 -31.5t-39 -46.5q-23 -31 -49 -68.5t-50.5 -90t-47.5 -120t-35 -159.5q-8 -59 0 -126t33 -128t63.5 -112.5t92.5 -77.5q31 -18 73.5 -20.5 t83.5 -0.5t74 19.5t68 33.5q35 25 63.5 56.5t52.5 68.5q-35 2 -69.5 15.5t-61.5 38.5q-12 12 -24.5 21t-23.5 26.5t-22.5 44t-23.5 71.5q-12 53 -6 99.5t20 93.5q27 78 72 142.5t127 94.5q29 10 74 8.5t71 -22.5q25 -20 45.5 -47t29.5 -72t7 -112.5t-20 -167.5 q-8 -45 -28.5 -99.5t-47.5 -106.5t-54.5 -96t-49.5 -67q-35 -33 -77 -60.5t-91 -41.5q-43 -14 -91.5 -23.5t-101.5 -5.5q-51 2 -104 20.5t-96 55.5q-66 57 -94.5 129t-41.5 143zM551 518q0 -31 7 -68.5t25.5 -73.5t47 -62.5t69.5 -37.5q25 43 43.5 78t33 71t25.5 77t21 96 q4 27 9.5 58.5t4.5 63.5t-10.5 59.5t-31.5 43.5q-55 39 -99.5 16.5t-76 -76.5t-49 -123t-19.5 -122z" />
<glyph unicode="'" d="M-1038 -57q41 6 78.5 -9.5t72.5 -42.5q25 -18 58.5 -45.5t73.5 -56.5t84 -57.5t89 -46.5q49 -20 90 -21.5t91 2.5q18 0 42.5 6t49 16.5t46 26t32.5 35.5q14 27 13 65t-14.5 71.5t-41 54t-68.5 8.5q-16 -4 -26.5 -19.5t-14.5 -33.5q-4 -16 3 -38t26 -34q20 -14 46.5 -13 t49.5 15q-10 -16 -29.5 -25.5t-42.5 -7.5t-44 16.5t-34 32.5q-35 59 -8 117q12 20 35 31.5t47.5 15.5t48 1t39.5 -11q23 -12 36 -25.5t28 -33.5q25 -35 32 -78t3 -90q-4 -23 -18.5 -48.5t-35.5 -42.5q-61 -49 -131.5 -73.5t-148.5 -16.5q-61 6 -111.5 25.5t-94.5 48.5 t-85 65.5t-86 77.5l-37 35q-29 29 -64.5 60.5t-78.5 42.5z" />
<glyph unicode="(" horiz-adv-x="1230" d="M12 344q-4 74 11.5 144.5t46 135t73.5 123t95 109.5l12 12l133 -61v-33q0 -49 17.5 -77.5t45 -41t64.5 -11.5t78 9q80 12 152.5 61.5t109.5 125.5q23 41 27 90t-9 96q31 -72 20 -147.5t-54 -143.5q-43 -59 -111 -105t-141.5 -62.5t-146.5 4t-126 94.5q-10 14 -19 35.5 t-16 37.5q-33 -23 -58.5 -57.5t-47.5 -79.5q-25 -47 -45.5 -114.5t-21.5 -134t24 -124t88 -86.5q72 -35 150.5 -11t156.5 73t150.5 107.5t134.5 95.5q18 10 36.5 22t43.5 23q12 4 26.5 8t32.5 6q18 0 43 -6t41 -17q25 -18 41 -47.5t25.5 -63.5t14.5 -68.5t9 -65.5 q4 -20 4 -67.5t-6 -94.5q-6 -49 -20.5 -87t-36 -71t-48 -63.5t-55.5 -65.5q39 76 66 155t27 161q0 27 -1 77t-9.5 101t-26 91t-49.5 46q-29 0 -72 -17.5t-70 -33.5q-74 -41 -141.5 -98.5t-139 -105.5t-150.5 -73.5t-171 -5.5q-49 10 -90 39t-66 72q-27 43 -38 91t-13 95z " />
<glyph unicode=")" horiz-adv-x="956" d="M4 438q-6 74 9.5 146.5t51 136t89 113t120.5 75.5q74 29 148 11.5t131 -64.5q-47 27 -93 30t-98 -5q-72 -10 -126 -50t-89.5 -97.5t-52 -127t-11.5 -140.5t30.5 -138.5t74.5 -118.5q47 -51 107.5 -84t128.5 -29q86 4 151.5 57.5t106.5 125.5t68.5 151.5t37.5 159.5 q14 66 14.5 126t-20 110.5t-64.5 86.5t-120 52q-70 14 -149.5 12t-157.5 -19q51 25 109.5 41.5t119 21.5t119.5 -2t111 -28q37 -23 69.5 -54.5t44.5 -74.5q25 -84 23 -181t-27.5 -195.5t-74 -193.5t-117.5 -171q-55 -61 -136 -92q-41 -18 -83.5 -21.5t-87 4.5t-85 25.5 t-73.5 42.5q-35 25 -64 51q-66 59 -96.5 142t-38.5 165z" />
<glyph unicode="*" horiz-adv-x="1437" d="M-22.5 937q-4.5 -1 0 1t22.5 12q6 2 14.5 4t14.5 4q31 8 59.5 9.5t58.5 1.5q41 2 80 2t78 4q92 8 180 12t181 4q127 0 238.5 8.5t250.5 26.5q0 2 -3 -8t-12.5 -24.5t-24.5 -29t-38 -16.5l-350 -45q-86 -10 -164 -23.5t-155 -58.5q-53 -31 -108.5 -61.5t-92.5 -73.5 q-37 -39 -51.5 -87t-12.5 -100.5t18.5 -103.5t41.5 -94q31 -57 72.5 -91t94 -52.5t114 -23.5t132.5 -3q27 4 62 5t91 15.5t141 50t212 109.5q23 14 52.5 38t59.5 52.5t54.5 57t38.5 53.5q-16 -49 -47 -93t-66 -83q-37 -41 -77.5 -74t-85.5 -61q-57 -37 -140.5 -72 t-174.5 -57.5t-181 -27.5t-160 17q-125 37 -218 133.5t-122 223.5q-16 68 -6 129t41 114.5t77 97.5t101 79q41 23 83 45t85 39q-53 8 -114.5 9t-126.5 9q-41 4 -89.5 9t-91.5 -5q-10 0 -21 -3t-15.5 -4z" />
<glyph unicode="+" d="M-230 1312.5q1 20.5 21 40t49 31.5q31 0 46.5 -20.5t17.5 -44t-6.5 -41.5t-22.5 -18q-59 2 -82.5 17t-22.5 35.5z" />
<glyph unicode="," horiz-adv-x="280" d="M37 -106q12 10 23.5 20t19.5 23q10 -4 19.5 -6.5t21.5 6.5q10 8 11 20t3 23q12 27 10 53q2 2 3.5 2t3.5 4h-25.5t-15.5 -4q-8 4 -16.5 9t-20.5 15q-10 4 -11 17q0 6 5 10v16v37q-2 18 9 23.5t23 15.5q8 4 9.5 5t2.5 1t5 2t16 9q25 6 35 9t22 7l15 -23l10 -57l-2 -35 l-2 -10q0 -4 -1 -4t-1 -4v-4l-6 -21l-6 -2q4 -4 5 -7l3 -9q-2 -12 -8 -27q-6 -10 -10.5 -15t-10.5 -11q0 -25 -10 -50q-4 -8 -12.5 -14t-18.5 -16q-23 -14 -57 -21l-2 -2q-16 4 -39 15z" />
<glyph unicode="-" horiz-adv-x="548" d="M25 418q-2 92 14 184t33 178q29 117 82 222.5t157 177.5q41 29 88 43t84 4q-59 -4 -108 -49q-104 -104 -161.5 -236.5t-81 -277t-20.5 -294t21 -286.5q8 -49 28.5 -103.5t51.5 -104.5t74 -90t98 -58q-47 -4 -94 16t-84 53q-74 57 -112 133t-53 159t-15 168t-2 161z" />
<glyph unicode="." horiz-adv-x="524" d="M94 -23q-4 49 5.5 87t17.5 88q2 10 4 22q2 10 3 24.5t5 30.5q2 18 6 40t9.5 51.5t13.5 72.5t20 109q12 74 20.5 128t14.5 98t11 82t9 81l41 268q2 31 3.5 59.5t13.5 57.5l2 -2l2 -4q10 -23 15 -36t5 -36q-2 -16 -7 -69.5t-10 -116t-10 -119t-7 -76.5q-8 -57 -12.5 -129 t-10.5 -131q-10 -96 -25.5 -194.5t-39.5 -192.5q-8 -27 -15.5 -50.5t-15.5 -45.5q-6 -23 -11.5 -54.5t-8.5 -64.5t-7 -63.5t-8 -51.5q-4 6 -10 20.5t-10.5 34t-8.5 42t-4 40.5z" />
<glyph unicode="/" horiz-adv-x="905" d="M-6 1006v73h407q47 16 98.5 17.5t100.5 -17.5h344v-73h-274q16 -25 33.5 -49.5t29.5 -51t18.5 -55.5t2.5 -62q-8 -59 -37 -109t-70 -94t-91 -82t-99 -71q-14 -10 -37 -21.5t-47.5 -23.5t-48 -23.5t-39.5 -17.5q4 -6 9 -13t9 -14q61 -102 110.5 -202.5t114.5 -182.5 l15 -16q20 -23 39.5 -47.5t48.5 -40.5q55 -33 131 -27q-33 -10 -66.5 -13t-68.5 7t-65 27.5t-56 40.5q-53 45 -97 96t-75 111q-33 61 -51.5 126.5t-51.5 127.5q-31 -10 -65 -13q-14 0 -27.5 1t-29.5 5q-35 10 -58.5 38t-27.5 63q-2 10 -3 37q0 6 3.5 17t10.5 21.5t20.5 15.5 t35.5 1l10 -2l19 -8q43 -20 76 -51q25 -23 43 -43q47 16 92 40.5t86 53.5q37 27 76.5 60.5t74.5 73.5t60.5 83t36.5 88q14 59 -13.5 107.5t-64.5 91.5h-273q-27 -16 -47 -43t-30 -62q6 57 49 105h-291zM88 444q0 -2 1 -4t1 -4q6 -37 34 -43t58 0q-10 8 -21 15.5t-22 13.5 q-20 14 -37 18q-8 4 -14 4z" />
<glyph unicode="0" horiz-adv-x="667" d="M-14 1006v73h546q-10 27 -32 43q18 -6 31.5 -17t23.5 -26h131v-73h-96q6 -18 12 -37t8 -37q4 -39 -3 -125t-28.5 -184.5t-59.5 -191.5t-95 -146q-33 -31 -74 -50.5t-83 -25.5t-83 3t-73 36q-29 23 -48.5 52.5t-31.5 59.5q-20 57 -25 119q-4 88 5 170t40 158q16 41 39 87 t43 73l27 39h-174zM106 530.5q0 -20.5 2.5 -40t2.5 -41.5q4 -94 55 -139.5t133 -12.5q33 10 52.5 28.5t35.5 39.5q29 35 49.5 85t36.5 105q29 82 44 168t18 174l-3 18q4 23 6.5 45.5t2.5 45.5h-318l-24 -60q-8 -20 -35 -92t-49 -221q-4 -33 -6.5 -57.5t-2.5 -45z" />
<glyph unicode="1" horiz-adv-x="1218" d="M-18 1006v73h1275v-73h-182l-6 -23l-76 -422q-6 -47 -24.5 -123t-22.5 -143q-4 -18 -5 -31.5t-2 -26t-2 -25.5t-3 -34q-4 -29 -6 -36t-3 -12t-1 -15.5v-40.5l8 -31q4 -16 6 -41t6 -52.5t11.5 -52t19.5 -38.5q-16 8 -30.5 26.5t-26 41t-19.5 45t-14 38.5q-23 70 -18 149 t16 144q16 104 27.5 221t27.5 226q2 10 3 18t5 18q-16 8 -37.5 13.5t-44.5 11.5q-29 4 -55.5 8t-54.5 6q-51 4 -122 11.5t-136.5 3.5t-115.5 -24.5t-58 -72.5q4 -16 16 -30.5t27 -24.5q12 -16 42.5 -25.5t63.5 -19.5t68.5 -24.5t66.5 -51.5q16 -20 23.5 -45.5t5.5 -48.5 q-2 -27 -13.5 -48.5t-25.5 -37.5q-20 -23 -43 -38t-45 -27q12 -16 22.5 -34t20.5 -34q35 -59 60.5 -119.5t54.5 -116.5l12 -22q18 -35 31.5 -70t35.5 -63q23 -29 53.5 -52.5t69.5 -37.5q-76 6 -141 59q-33 23 -57.5 52.5t-46.5 62.5q-45 63 -86 125.5t-76 126.5 q-10 18 -18.5 38.5t-18.5 41.5q-66 -35 -143 -58q-25 -6 -49.5 -10t-53.5 -4t-58.5 3t-64.5 23q-16 12 -30.5 31t-20.5 43q-8 25 -3 50.5t15 43.5q23 37 52.5 54.5t58.5 27.5t57.5 11.5t55.5 -0.5q14 -2 27.5 -4.5t25.5 -6.5h4q-2 0 -1 -1t3 -1h2h2l6 -2q8 -4 15 -4l24 -12 q31 -16 58.5 -36.5t50.5 -43.5l20 12q27 18 45.5 40t16.5 36v6q0 6 -2 10q0 4 -5 13q-25 20 -53 29.5t-65 21.5q-33 8 -60 20q-16 8 -33.5 18.5t-35.5 31.5l-9 10l-4 8v-2l-8 16q-12 14 -18 35q-8 20 -9 47t9 53q10 27 26.5 44.5t32.5 29.5q51 35 112.5 40t117.5 1 q90 -6 189 -23.5t181 -56.5l43 -18l37 135q10 16 18.5 32.5t16.5 33.5h-1038zM78 336q4 -20 22.5 -28.5t38.5 -12.5t42 -1t44 7q35 4 67 12.5t64 20.5l23 10l-6 6q-29 35 -70 59.5t-90 32.5q-53 -6 -94 -32q-20 -12 -32.5 -33t-8.5 -41z" />
<glyph unicode="2" horiz-adv-x="698" d="M-25 1006v73h750v-73h-156q-4 -35 -4 -70t-2 -70l-6 -123l-4 -30v-4v-2v-2q14 12 8 7t-18.5 -15.5t-23.5 -20.5t-7 -6h-2h-6h-4q2 -2 -6.5 3t-17.5 11t-14 9t5 -3l-2 6q-8 59 -42 89t-79 36t-93 -9t-81 -43t-43 -66.5t18 -79.5q10 -10 32 -18.5t34 -16.5q39 14 88 18 t98 -16l25 -12q-6 -59 -28.5 -80t-54.5 -22t-74 7.5t-89 5.5q-20 -16 -38.5 -41.5t-31.5 -48.5q-20 -35 -19 -72.5t11 -66.5q8 -29 25 -49q10 -14 24 -23q4 -4 7.5 -5t7.5 -5l6 -6q2 0 4 -2q12 -4 31.5 -9t40.5 -9q20 -4 40.5 -6.5t43.5 -4.5q31 -2 60.5 -2t57.5 4 q4 2 9.5 2t9.5 2q8 25 20 48q8 12 13 20l5 6t15 10.5t27.5 3t42.5 -13.5v-2l2 -2q6 -10 11 -24.5t5 -30.5q0 -23 -10 -43.5t-27 -32.5q-14 -10 -32 -18q-6 -23 -12.5 -44.5t-10.5 -43.5l-2 -27q-23 -78 -33 -160t-12 -168q-35 162 -35 320q2 27 4 53.5t6 54.5q-27 0 -36 2 q-43 4 -94.5 7.5t-101.5 15.5t-95 37.5t-76 72.5q-16 23 -26.5 48.5t-12.5 54.5q-2 57 16 115q35 70 93 120q-14 14 -27.5 30.5t-24.5 39.5q-20 43 -16 90q2 29 12 62.5t62 87.5q25 29 69 45q80 31 154 12q49 -14 88 -43t70 -64q0 -2 4 -6q2 4 2 8.5t2 8.5q12 53 16 104 t15 105h-560z" />
<glyph unicode="3" horiz-adv-x="917" d="M-23 1006v73h959v-73h-158q0 -14 4 -22.5t8.5 -14.5t7.5 -14.5t3 -22.5q-6 -16 -6 -51t-7 -52q6 -16 1 -33.5t2 -35.5q-4 -27 -5.5 -52.5t-5.5 -52.5q-4 -29 -1 -55.5t-1 -54.5q4 -27 -1 -53.5t-9 -55.5q2 -10 2 -19v-20q-4 -35 -13 -66.5t-14 -66.5q-8 -49 -15 -98 t-11 -98l-2 -11q-8 -29 -16.5 -58.5t-16.5 -59.5q-4 29 -9 47t-11.5 34.5t-11.5 35t-5 46.5q12 35 22.5 81t22.5 81q-2 16 0 34.5t4 41.5q-29 -23 -50 -42t-50 -36q-45 -23 -96.5 -44t-102.5 -38q-20 -4 -40.5 -6t-43.5 -2t-42 3t-42 7q-41 10 -82 27.5t-75 50.5 q-27 23 -45.5 58.5t-20.5 78.5q0 43 17.5 78t39.5 62q37 29 82 45q20 6 47 8t48 6l-5 4l-4 4q-12 8 -27.5 15.5t-25.5 13.5q-27 16 -58.5 32.5t-47.5 57.5q-10 29 -7 59.5t11 59.5q6 18 14 30.5t18 24.5l37 43q39 35 78 66h-244zM99.5 426q0.5 -12 0.5 -33q0 -29 18.5 -53.5 t43.5 -44.5q27 -23 63.5 -28t71.5 -15q47 -4 87 8t81 29q39 14 64.5 28.5t58.5 38.5q23 16 46 30.5t36 39.5q27 45 22 113l-2 14q4 25 8 50.5t13 51.5v27q2 20 3 50t3 60.5t3 60.5t1 50q10 35 18.5 60.5t14.5 42.5h-469q-2 0 -5.5 -1t-0.5 -1q10 -2 12 -17.5t-15 -28.5 q-20 -16 -40.5 -35.5t-36.5 -35.5l-24.5 -24.5t-22.5 -24.5q-4 -4 -5.5 -8.5t-5.5 -8.5t-6 -17t0 -20q6 -33 15.5 -49t27.5 -33q16 -10 26.5 -15t18.5 -9t16.5 -7t22.5 -7q43 -14 67.5 -21.5t63.5 -11.5l39 -4q29 -2 44.5 -3t43.5 1q-2 -23 -21.5 -33t-48 -16.5t-61.5 -9.5 t-61 -11q-47 -8 -81 -23.5t-48 -15.5q-18 -8 -44 -21.5t-40 -33.5q-16 -23 -15.5 -35z" />
<glyph unicode="4" horiz-adv-x="980" d="M-16 1006v73h649q-14 16 -30.5 29.5t-47.5 19.5q25 -2 40 -9t30 -17q8 -6 14 -11.5t12 -11.5h361v-73h-310q6 -16 10.5 -35t2.5 -39q-4 -37 -19.5 -66.5t-36.5 -52.5q-33 -37 -81 -65.5t-100 -56t-102 -58.5t-90 -69t-63.5 -88t-19.5 -116q4 -35 26.5 -63.5t57.5 -48.5 l12 -6q4 -4 8 -6q16 -10 35.5 -16.5t38.5 -12.5q39 -4 78 -5t78 3v4q4 8 7 16t7 19l8 16l2 4q4 4 3 3t-1 1h2v2l2 2q2 4 6 9q12 16 25.5 30.5t26.5 26.5q41 25 82 44t88 32q20 6 45 6q10 0 22 -2t21 -12q20 -20 14 -51t-25.5 -62t-47 -58.5t-52.5 -41.5q-80 -45 -178 -64 q-4 -10 -8 -21.5t-8 -23.5l-7 -23q-14 -33 -27.5 -84t-24.5 -106l-21.5 -107.5t-18.5 -89.5q0 18 1 54t2 76t3 76t2 54q-4 -4 -4 -8q-2 -23 -26.5 -52.5t-60.5 -57t-82 -48t-94 -25.5t-93 9.5t-80 57.5q-18 23 -30.5 51t-10.5 59q6 51 35 88q6 12 20 23q-4 4 -5 7t-3 7 q-8 16 -9 33.5t3 32.5q14 41 39 68.5t55 47.5q8 4 21 13q-16 16 -28.5 38.5t-18.5 43.5q-6 20 -10.5 43.5t-2.5 46.5q4 68 43 120t86 93q76 63 149 101t157 79q31 16 59.5 33.5t50.5 42.5q25 29 31 59q6 29 -4 66h-690zM65.5 -70q2.5 -45 18.5 -73q31 -59 121 -47 q31 0 67 10q27 6 60 24q55 29 104 88l8 11q14 16 26.5 32.5t23.5 34.5v2q2 14 3 26.5t3 27.5q2 2 2 10q-4 12 -8 20q8 -8 10 -14q2 10 3 21.5t5 21.5q-84 -4 -170 18q0 -8 -2 -10q-8 -27 -33 -45l-12 -6q-2 -2 -4 -2q-2 -2 -4 -2q-10 -6 -21 -10q-23 -10 -45 -9.5t-37 15.5 q-16 14 -18 31.5t4 31.5q-6 -23 11.5 -42t39.5 -13q25 2 49 24l2 3l4 2v2h3l4 4q4 4 6 8q8 12 8 20q0 4 1 5.5t1 5.5q-23 8 -47.5 19t-46.5 28q-20 -14 -31 -27q-29 -14 -51 -47q-10 -12 -16.5 -27.5t-2.5 -27.5q0 -8 9 -17q4 0 9 1t11 -1q18 0 29 -4q4 0 12 -4h2h2 q-12 -45 -15 -56t-3 -9t2 8t0 -4h-4h-6q-10 2 -23.5 4t-28.5 8q-2 0 -4 2q-33 -27 -30.5 -72zM649 227q14 4 26.5 9.5t26.5 9.5q35 10 65 25.5t46 35.5q8 8 12 19q2 4 2 10q2 4 2 10q-10 -4 -21 -9t-24 -11q-49 -29 -94 -64q-23 -16 -41 -35z" />
<glyph unicode="5" horiz-adv-x="1169" d="M-33 1006v73h1229v-73h-424q31 -20 53.5 -46t28.5 -59q-6 18 -23.5 33.5t-39 29t-46 23.5t-43.5 17q-2 2 -4 2h-368q-25 -8 -48.5 -18.5t-41.5 -26.5q-16 -16 -31.5 -44t-24.5 -59q-10 -33 -6 -60.5t27 -56.5q25 -20 48 -36.5t52 -28.5q92 12 193 2q23 -4 46 -7t46 -9 q10 -4 22.5 -7.5t22.5 -7.5l12 -6q8 -6 17 -14q6 -8 11 -18.5t3 -20.5q0 -6 -12.5 -27.5t-24.5 -25.5h-2q-6 0 -13.5 -1.5t-13.5 -1.5q-51 -2 -96 5.5t-90 21.5q-55 14 -115 41q-35 -2 -59.5 -5t-52.5 -20q-20 -10 -36 -20t-30 -31q-16 -20 -24.5 -51t-4.5 -57 q16 -68 51 -100.5t97 -61.5q63 -27 134 -49.5t134 -30.5q20 -2 41 -3t41 -3q27 86 68 166q16 29 32.5 54.5t38.5 49.5q43 49 101 82q37 16 82 22.5t86 -16.5q20 -10 34.5 -27.5t22.5 -35.5q8 -20 10 -41t0 -39q-10 -84 -59 -137q-27 -27 -56.5 -49.5t-64.5 -32.5 q-55 -29 -120.5 -39t-131.5 -14q-23 -57 -40 -115.5t-30 -118.5q-10 -59 -14 -120.5t8 -125.5q-18 59 -27.5 117.5t-4.5 118.5q4 59 17 119.5t30 119.5q-72 -2 -145.5 5.5t-145.5 29.5q-57 20 -112.5 48t-100.5 77t-62 115q-10 31 -8 72t19 75q16 35 43.5 58.5t56.5 40.5 q20 10 40.5 18t41.5 14q-29 20 -54.5 39t-45.5 58q-8 16 -12.5 44.5t-4.5 51.5q2 23 8.5 42t16.5 36q16 25 33.5 42t40.5 34h-226zM668 170q29 2 57.5 5t56.5 9q31 6 60.5 15.5t54.5 23.5q23 14 45.5 36t38.5 44q25 33 31 71t-11 62q-16 27 -47 29q-37 4 -73 -19 q-41 -18 -73.5 -48.5t-59.5 -71.5q-25 -37 -44.5 -76t-35.5 -80z" />
<glyph unicode="6" horiz-adv-x="1009" d="M-31 1006v73h785h2h282v-73h-272q-4 -29 -11 -58.5t-12 -58.5q-10 -47 -22 -90t-23 -90q-6 -12 -12 -23.5t-10 -23.5l-17 -33l-10 -4l-43 30q-23 16 -46 28.5t-46 23.5q-45 20 -93 29t-95 -7q-53 -14 -93 -53t-67 -90q-33 -63 -26 -126t32 -124q23 -53 67 -99.5t97 -82.5 q39 -27 82 -49.5t87 -38t90 -21.5t93 2q12 4 21 4q57 8 113.5 33t95.5 78q-23 -57 -66 -100.5t-104 -63.5q-61 -23 -135 -28t-136 14q-78 25 -142.5 66.5t-119.5 90.5q-29 27 -57.5 62t-51.5 67q-23 35 -33 74t-16 82q-8 66 10.5 130.5t59.5 119.5q39 53 96.5 93t128.5 54 q53 8 107.5 -4t99.5 -41q41 -25 72 -59q14 33 21 63.5t22 65.5q14 39 22.5 78t18.5 80h-746z" />
<glyph unicode="7" horiz-adv-x="841" d="M-16 1006v73h434q-80 16 -160 11q61 14 121.5 16t122.5 -6q53 -6 94 -21h278v-73h-153q4 -4 6 -7.5t6 -7.5q27 -55 15 -106q-6 -25 -13.5 -47.5t-19.5 -40.5q-25 -39 -49.5 -69t-59.5 -60q-29 -25 -67.5 -50.5t-71.5 -42.5q59 -6 100 -38q35 -27 58.5 -62t38.5 -74 q31 -80 24 -165q-14 -51 -42 -96.5t-68 -73.5q-41 -33 -87.5 -46.5t-91.5 -17.5q-47 -4 -95 2t-95 19q-47 14 -93 39.5t-81 72.5q-10 18 -18.5 40t-12.5 44q-4 23 -1 46.5t9 41.5q10 45 36 82t54 66q59 57 122 99t128 79q47 29 95.5 53.5t91.5 52.5q41 27 66.5 46.5 t39.5 48.5q4 4 12.5 22t12.5 25q0 4 1 6t1 6q2 0 2 3t0 1v4q4 27 -10 49q-14 29 -52 56h-628zM88 279q-6 -35 8 -70q14 -31 42 -57.5t63 -45.5q66 -35 140.5 -40t133.5 26q23 12 37 23q23 18 33 37q31 47 39 96q10 53 -0.5 110.5t-40.5 98.5l-15 16q-16 27 -43.5 43 t-64.5 21h-13.5t-13.5 -2q-10 -4 -20.5 -5.5t-20.5 -5.5q-57 -23 -123.5 -69.5t-111.5 -100.5q-12 -18 -18.5 -37.5t-10.5 -37.5z" />
<glyph unicode="8" horiz-adv-x="833" d="M-16 1006v73h866v-73h-207q-4 -35 -17.5 -79t-39.5 -71q-10 -10 -23.5 -20.5t-32.5 -14.5q-18 -4 -34.5 -3t-28.5 5t-26.5 9.5t-24.5 9.5q-37 16 -68 31.5t-72 9.5q-20 -4 -33.5 -20.5t-21.5 -33.5q-31 -61 -1 -114t91 -88q47 -29 109 -56q51 -23 99 -27.5t102 -19.5 q23 -8 42 -22.5t37 -32.5q16 -20 29 -41l6 -12q2 -2 2 -4q0 -4 2 -6q4 -6 9 -25q8 -25 8 -66t-8 -65q-12 -43 -40 -77t-64 -59.5t-77 -44t-80 -32.5q-59 -12 -120.5 -10t-120.5 16t-114.5 51t-94.5 92l-14 25q-16 39 -14.5 78t11.5 73q12 35 30 64t38 55 q-12 -29 -21.5 -58.5t-13.5 -60.5q-10 -63 19 -112t85 -80t111 -43q37 -8 95.5 -8t117 13t106.5 41t66 75q16 37 18.5 77t-18.5 68q-23 47 -70.5 61.5t-113.5 24.5q-8 2 -16.5 3t-18.5 5q-8 2 -15 4.5t-16 4.5q-14 6 -28.5 11t-30.5 11q-31 12 -62.5 26.5t-60.5 37.5 q-23 16 -41 36.5t-35 49.5q-16 29 -22 60.5t-2 64.5q4 29 19.5 62.5t45.5 55.5q31 23 62 29t59 6q39 0 73 -14t62 -29q16 -6 27.5 -11t24.5 -9q10 -4 23 -4t26 10q20 12 39 41q12 16 12 35.5t4 40.5h-614z" />
<glyph unicode="9" horiz-adv-x="985" d="M-25 1006v73h566q10 4 30 8q33 2 72 -4q4 -2 8 -2t8 -2h349v-73h-211q37 -35 57 -80q16 -35 9 -76t-29 -70q-35 -39 -86 -55q-61 -20 -113.5 -38.5t-104 -39t-102.5 -43t-111 -51.5q-16 -8 -41.5 -22.5t-52 -31t-49 -32.5t-35.5 -29q-16 -14 -26.5 -40.5t-15.5 -55.5 t-1 -56.5t21 -43.5q41 -47 93 -83t120 -61q47 -18 93 -22t99 -10q-4 12 -4 20q-6 41 12 82q18 39 51 66.5t70 44.5q39 16 82 24t90 -8q25 -6 46.5 -25.5t31.5 -48.5t9 -54.5t-7 -47.5q-16 -51 -54 -78t-97 -41q-70 -16 -173.5 -15t-208 23.5t-195.5 69.5t-138 125 q-39 66 -35 131t40 122.5t95.5 102.5t130.5 72q55 20 100.5 37.5t98.5 33.5q53 18 112.5 37t106.5 35q31 10 56.5 24.5t40 36t15.5 48t-18 61.5q-8 16 -20 31.5t-29 30.5h-756zM537 63q63 -10 114 -4q55 0 94 23q39 20 56 68q8 20 3 33.5t-19.5 21.5t-34 11t-39.5 3l-23 -6 q-35 -4 -67.5 -18.5t-55.5 -38.5q-26 -29 -28 -66q-4 -14 0 -27z" />
<glyph unicode=":" horiz-adv-x="1038" d="M-74 1006v73h504q4 8 9 17.5t16 15.5q12 8 23 9t22 1q31 -4 52 -16t40 -27h522v-73h-444q4 -4 6 -7.5t6 -7.5q16 -23 29.5 -47t17.5 -59q0 -57 -10 -97t-25.5 -71t-37 -55.5t-46.5 -51.5q16 -16 26.5 -27.5t27.5 -21.5q35 -23 72.5 -32t76.5 -9q31 0 65.5 5t67.5 22 q10 10 21 26q-4 -20 -10.5 -42.5t-12.5 -45.5q-66 -31 -131 -26q-35 2 -65.5 13t-57.5 28q-51 37 -96 88q-45 -41 -90 -74t-103 -55q55 -47 87 -97.5t53.5 -100.5t39 -101t43 -102.5t66.5 -103.5t109 -106q55 -39 125 -6q-25 -23 -61 -30t-70 4q-16 6 -37 20t-41.5 31.5 t-38 35t-29.5 27.5q-29 31 -49 54.5t-36.5 47t-31 46t-30.5 51.5q-23 35 -37 73t-29.5 76.5t-32 75.5t-41.5 70q-4 4 -10 9t-10 9q-23 -6 -44.5 -11t-43.5 -9q-35 -4 -71 -3t-70 13q-23 4 -44.5 17.5t-37.5 35.5q-8 12 -14.5 27.5t-8.5 34t3 38t22 38.5l39 14q12 4 28.5 3 t28.5 -3q27 -2 50.5 -8t45.5 -17q59 -35 105 -84q33 14 61 31q23 6 58.5 35t72.5 65.5t66.5 72.5t40.5 54q14 27 23 49.5t9 51.5q2 10 -2 23.5t-8 27.5q-12 27 -31 55q-4 8 -8 13h-684zM78 557q4 -29 14 -39q23 -30 82 -26q41 0 88 12q-16 14 -35 22q-35 23 -72.5 32 t-70.5 -1h-6zM440 1079h105q-4 4 -8.5 6t-8.5 5q-12 10 -32 16q-10 2 -23.5 -1t-23.5 -13q-2 -4 -4.5 -6.5t-4.5 -6.5z" />
<glyph unicode=";" horiz-adv-x="1300" d="M-12 1006v73h442q4 8 9 17.5t16 15.5q12 8 23 9t22 1q31 -4 52 -16t40 -27h541q2 8 2 25v4q-20 6 -13.5 4t23.5 -6l2 6l2 4h2v2q8 -2 3 -1t-7 2t6 -2t43 -13v-2v-12q4 -2 7 -2.5t-1 -0.5v-2l-4 -6h123v-73h-133q0 -10 -2 -17q-16 -115 -42 -213t-54.5 -191t-54 -187.5 t-40.5 -200.5l-4 -31q-6 -29 -8 -52.5t0 -52.5q4 -29 15.5 -56.5t39.5 -45.5q-31 10 -50 35.5t-30 54.5q-10 29 -14 58.5t-6 60.5q-4 90 7 179t38 173q-37 -39 -77 -52t-93 -9q-70 4 -127 41t-115 65q-45 -41 -85 -62.5t-97 -43.5q18 -23 33.5 -43.5t32.5 -42.5 q63 -96 119.5 -192.5t123.5 -182.5l15 -16q18 -27 38.5 -51.5t47.5 -41.5q55 -39 125 -6q-25 -23 -61 -30t-70 4q-35 10 -64 29.5t-53 41.5q-51 47 -96 96.5t-80 104.5q-43 72 -71 147.5t-69 147.5q-4 4 -10 9t-10 9q-23 -6 -44.5 -11t-43.5 -9q-35 -4 -71 -3t-70 13 q-23 4 -44.5 17.5t-37.5 35.5q-8 12 -15.5 37t-1.5 50.5t32 45t83 19.5q27 0 50.5 -7t45.5 -18q59 -35 105 -84q33 14 61 31q117 59 192.5 138t77.5 190q0 20 -10 51q-12 27 -31 55q-4 8 -8 13h-622zM78 557q4 -29 14 -39q23 -30 82 -26q41 0 88 12q-16 14 -35 22 q-37 23 -75.5 32t-73.5 -1zM440 1079h105q-4 4 -8.5 6t-8.5 5q-12 10 -32 16q-10 2 -23.5 -1t-23.5 -13q-2 -4 -4.5 -6.5t-4.5 -6.5zM604 602q16 -10 29.5 -20.5t30.5 -20.5q66 -43 138 -43t144 29q51 72 85 144.5t46 162.5q6 35 13.5 74t17.5 78h-438q4 -4 6 -7.5t6 -7.5 q16 -23 32.5 -47t14.5 -59q-4 -86 -32.5 -148.5t-92.5 -134.5z" />
<glyph unicode="&#x3c;" horiz-adv-x="755" d="M53 891q12 53 68.5 113.5t134.5 93t170 18.5t178 -108q31 -53 35 -120t-23 -130h-2q-27 -53 -73.5 -96.5t-106.5 -67.5q-31 -12 -63.5 -18.5t-67.5 -10.5q-2 -10 -2 -19t-2 -20v-4q0 -10 -1 -21.5t0 -39t4 -75.5t9 -130l-22 -14q-35 41 -45.5 91t-14.5 91q-2 23 -2 46.5 v45.5v10v18.5t-2 18.5v21v18q-4 4 0 8h-2l6 6l11 13q4 4 9 8t7 6q6 6 11 5t9 -3q0 -2 3 -4h24l2 2v-2q47 -2 89 5t77 30q47 31 69.5 82t26.5 102v2q4 39 -6 76t-33 63q-47 53 -127 54q-53 4 -112 -17q-25 -8 -64 -37.5t-70.5 -68.5t-44 -79t16.5 -67q18 -14 42 -19t42 -7 v-29q-16 0 -36.5 1t-43.5 7q-53 16 -74 62q-16 41 -4 90zM183 0.5q1 9.5 3 17.5v5v2q6 18 13 30v2l2 2q8 8 16 15.5t19 15.5q4 6 16 14l8 7q0 2 2 2l-16 18q2 0 6 4h2l-23 21l48 -6q25 -4 45 -21.5t30 -44.5l2 -2v-4q-10 -29 -21 -55.5t-28 -51.5l-2 -2q-12 -8 -22 -12 l-4 -2v-2h-5l-2 -2q-2 -2 -4 -2t-4 -2q-6 -2 -13 -4t-18 -2h-2q-10 0 -26 8q-16 12 -19 26q-4 16 -3 25.5zM244 31q2 -4 2 -7.5t2 -7.5l2 -4l-2 -6q0 -2 -1 -3t-1 -3q4 0 6 2q18 10 24 23v2l3 2q10 10 12 20v2q4 10 1 18.5t-16 4.5q-4 -8 -7 -14.5t-7 -12.5v-4l-4 -2 q-4 -2 -7 -4t-7 -6z" />
<glyph unicode="=" horiz-adv-x="346" d="M97 63.5q1 20.5 21.5 40t49.5 31.5q31 0 46 -20.5t17 -44t-6 -42t-22 -18.5q-59 2 -83 17.5t-23 36z" />
<glyph unicode="&#x3e;" horiz-adv-x="1105" d="M-61 291q61 10 116.5 32.5t105.5 50t99 58.5t102 62q35 20 73 42.5t73 38.5q4 2 8 4.5t8 4.5q-12 8 -20 12q-27 29 -55.5 47.5t-58.5 36.5t-60.5 40.5t-63.5 59.5q-20 23 -38.5 47.5t-28.5 55.5q-14 35 -9 67q4 39 31 66q29 29 62.5 39t66.5 16q66 10 131 0h20.5t24.5 -4 q10 -4 19.5 -6t19.5 -6q20 -8 40 -17.5t38 -21.5q37 -27 62.5 -69t31.5 -89q4 -45 -7 -86t-30 -78q-29 -59 -77 -110q6 -6 22 -19q47 -29 84 -62.5t66 -68.5q23 2 32 2t29 -2q-4 18 -5 38t-5 38q2 55 3 111.5t1 111.5q6 41 11 82t9 82q14 29 26.5 54.5t27.5 54.5h-168v73 h379v-73h-172q-2 -16 -3.5 -33t-3.5 -33l-16 -135l-12 -103l-23 -112q0 -4 1 -27.5t2 -54.5t1 -61.5t-2 -49.5l-10 -84l-80 -372l-22 170q23 141 43 219t18 94q-20 -4 -57 -19.5t-56 -23.5q-66 -25 -114.5 -70t-92.5 -99t-87 -112.5t-97 -107.5q-8 -8 -16 -13.5t-22.5 -14.5 t-38 -25.5t-64.5 -47.5q-23 -18 -53.5 -33.5t-59.5 -23.5q63 68 123 116t123 116q27 27 51.5 62.5t52 74.5t61.5 77.5t79 75.5q16 12 31.5 25.5t31.5 24.5q27 10 53.5 16t53.5 10l-15 14q-16 14 -34.5 27.5t-38.5 26.5q-37 27 -84 49q-8 -4 -15.5 -10.5t-15.5 -12.5 q-6 -4 -12 -7t-13 -7q-4 -4 -10 -7t-12 -7l-92 -56q-47 -29 -94.5 -54.5t-96.5 -47.5l-20 -10q-66 -20 -133.5 -31.5t-132.5 -7.5zM279 944q-6 -18 9 -49t44 -59q12 -14 27.5 -28.5t31.5 -29.5q10 -8 17.5 -15t17.5 -15q6 -6 13 -11.5t16 -11.5q29 -29 59.5 -54.5 t65.5 -52.5q27 20 51 46q39 74 39 149q0 82 -52 127q-31 37 -88 57q-6 4 -12 5.5t-12 5.5q-2 0 -9.5 1t-13.5 1q-29 4 -53 0q-29 -2 -55.5 -7.5t-48.5 -15.5q-51 -20 -47 -43z" />
<glyph unicode="?" horiz-adv-x="1208" d="M-41 1006v73h1278v-73h-549q4 -8 4 -11q35 -104 33 -208.5t-20 -200.5q47 18 86.5 7t76.5 -24q51 -23 85 -62.5t57.5 -87.5t36 -101.5t20.5 -102.5l2 -12q4 -35 7 -71t14 -73q-41 61 -67 140.5t-53.5 153t-69.5 128t-116 64.5q-47 10 -88 4q-23 -74 -61 -137 q16 -72 64.5 -87.5t101.5 35.5q23 23 39 54.5t12 70.5q23 -63 2.5 -117.5t-61.5 -81t-93.5 -16t-91.5 77.5l-4 8t-4 9q-2 -4 -6 -9q-12 -14 -29.5 -32.5t-43 -35t-62.5 -29.5t-90 -19q10 -16 20 -33t21 -33q29 -41 64.5 -81t76.5 -70l18 -13q92 -92 228 -127 q-66 2 -130.5 18.5t-123.5 49.5t-109.5 75t-97.5 95q-14 29 -26.5 58.5t-24.5 58.5q-47 2 -105 16q-41 12 -83 33.5t-77 62.5q-6 10 -12 21.5t-12 23.5q-2 4 -2 6t-2 5l-2 6v4h-2v2q0 18 1 31.5t29 37.5h2q16 8 27 11q29 10 59.5 6t55.5 -15q49 -27 77.5 -59.5t53.5 -64.5 q10 -14 19.5 -28.5t19.5 -31.5q33 0 63 6q29 6 47.5 19.5t38.5 29.5q20 20 38 42t32 44q31 47 49 101.5t27.5 113t12.5 118t7 114.5q0 29 -1 57.5t-9 55.5h-678zM55 428q18 -35 50 -56.5t67 -33.5q37 -16 82 -27q-18 45 -51 87t-86 46q-20 2 -41 -4q-12 -4 -19 -8h-2v-4z " />
<glyph unicode="@" horiz-adv-x="874" d="M9.5 481.5q-3.5 28.5 4.5 57.5q6 29 26.5 54t49.5 42q55 31 114.5 18.5t110 -43t85 -66.5t44.5 -48q59 47 122 102t96 123q12 27 13 58.5t-6 63t-22.5 60.5t-36.5 49q-41 45 -100 63.5t-121 8.5q-16 -2 -37.5 -6t-39 -13.5t-27 -26.5t1.5 -46q2 -4 -2 -5t-9 9 q-10 23 -2.5 45.5t13.5 26.5l20 12q2 2 18.5 8t38 12.5t45 12.5t42.5 6q59 2 112 -10.5t94 -51.5q33 -31 55.5 -67.5t35.5 -73.5q12 -35 8.5 -82t-23.5 -88q-35 -70 -67.5 -108.5t-79.5 -77.5q-23 -16 -46.5 -32.5t-45.5 -33.5q14 -20 38.5 -66t57.5 -114t68.5 -154 t72.5 -188q-20 29 -54 88t-77 130t-89 141.5t-91 123.5q-45 -23 -102.5 -50.5t-124.5 -22.5q-47 0 -95.5 27.5t-74.5 78.5q-10 25 -13.5 53.5zM76 496q8 -39 34.5 -63.5t59.5 -33.5q25 -8 51.5 -6t52.5 10q50 15 103 50q2 0 4 2q-35 53 -86 99t-123 52q-23 2 -43 -8t-35 -27 q-14 -16 -18 -36.5t0 -38.5z" />
<glyph unicode="A" horiz-adv-x="964" d="M-18 1006v73h1007v-73h-1007zM8 453q-10 31 -10 67q0 65 31 148q23 41 51.5 73.5t60.5 59.5q27 20 54 35q-10 20 -18.5 34.5t-10.5 18.5q0 5 7 5h2q9 -1 21.5 -3t22.5 -3t10 5v1q1 0 5 -7q6 -10 14 -27q66 25 136 27h11q65 0 129 -23q94 -33 125 -85q18 -29 18 -77 q0 -35 -10 -81q-12 63 -50 105t-88 62q-48 19 -102 18h-5q-58 -1 -111 -20h2v-12l12 -35q4 -12 19.5 -36.5t33 -53t35 -55.5t27.5 -43l31 -53q10 -20 19 -40t20 -42l2 -4q4 -14 5 -27.5t3 -28.5q146 40 252 142q43 41 75.5 82t49.5 94q1 -9 1 -18q0 -42 -16 -84 q-18 -50 -43 -97q-43 -80 -133 -133q-90 -52 -196 -74q-70 -14 -139 -15l-71 4q-106 11 -180 60.5t-102 135.5zM100 508q0 -43 16.5 -72.5t44 -48t60.5 -28t68 -11.5q47 -4 100 -8q11 -1 21 -1q42 0 82 13l18 4q-16 18 -49 38t-51 40q-16 35 -28.5 59.5t-23 46t-19.5 42 t-22 49.5l-77 129q-47 -29 -81 -71t-46 -95q-8 -18 -10.5 -41t-2.5 -45z" />
<glyph unicode="B" horiz-adv-x="1046" d="M-18 1006v73h1095v-73h-196v-5q-2 -12 -4.5 -27.5t-7.5 -51t-15 -98t-27 -167.5q-4 -27 -12 -58.5t-8 -59.5q0 -77 3 -147v-14q0 -64 -24 -138q-2 -6 -5 -25.5t-8 -47.5t-12 -59.5t-20 -62.5l-4 -10q-23 -55 -67 -72q-2 4 -2 8q0 10 2 17q2 16 4 30.5t6 30.5 q8 37 16.5 81t14.5 84t13 71.5t13 48.5q-35 -35 -67.5 -52.5t-77.5 -37.5q-61 -26 -138 -40q-53 -10 -106 -10l-48 2q-77 6 -145.5 36t-113.5 94q-10 16 -21.5 51t-9.5 55q6 43 37 75t70 48q16 4 22 6q-20 47 -20 103q2 39 16.5 79.5t40 74.5t61 56.5t80.5 24.5q8 1 16 0 q43 -1 79 -19q42 -22 71 -63q14 41 23.5 79t28.5 79l12 31h-565zM72 412v-6q0 -18 12 -35q20 -29 52 -48.5t69 -31.5t74.5 -18.5t72.5 -6.5q94 0 191 23l20 6q49 10 89 34.5t85 51.5q-2 25 1 37t5 35q2 31 2 60.5v57.5l68 435h-238q0 -4 -1 -5.5t-1 -5.5q-6 -23 -11 -44 t-9 -44t-9 -44t-9 -44q-4 -12 -5.5 -23.5t-5.5 -21.5l-2 -22l-2 -7v-2v-2q-18 -4 -22 -11t-29 -3l-8 8q-2 6 -6 15q-16 50 -45 70q-26 19 -55 18h-5q-31 -2 -61.5 -22.5t-53 -51.5t-31.5 -68q-4 -18 -4 -35q0 -19 5 -38q4 -33 18 -54q6 0 12.5 -1t12.5 -1q16 -4 31.5 -7 t31.5 -9q20 -8 29 -12l4 -2l2 -2q10 -41 4 -54.5t-22 -21.5h-2h-9h-16q-29 2 -59.5 11t-55.5 32q-6 0 -18 -4q-23 -6 -44.5 -18.5t-35.5 -30t-16 -37.5z" />
<glyph unicode="C" horiz-adv-x="1462" d="M-27 1006v73h1532v-73h-760v-33q-2 -35 -8 -62.5t-13 -54.5t-11 -55.5t-4 -65.5v-6q29 2 55.5 2h54.5q55 -2 109.5 -5t107.5 -21q10 6 21.5 11t21.5 11l8 4l5 2h2h2q0 2 8 -7t14 -23.5t3 -30t-29 -23.5q-8 -2 -13.5 -1t-11.5 3l-18 -18q-35 -23 -66 -53.5t-59 -59.5 q-49 -53 -72 -129q-16 -52 -16 -102q0 -23 4 -45q10 -72 54 -126.5t126 -62.5q16 -2 32 -3q56 0 110 28q70 35 126 102q30 35 46 82q15 42 14 89v12q12 -41 12 -86v-13q-2 -52 -25 -100q-31 -72 -92 -113t-132 -50q-20 -3 -41 -3q-52 0 -102 16q-72 22 -122 78 q-45 47 -62 117q-8 38 -8 76q0 61 20 125q32 102 99 180q37 39 86 76q-29 8 -58.5 13t-60.5 7q-34 3 -65 3h-15q-37 -1 -84 -5q-4 -23 -5 -30t-3 -27q-2 -37 -4 -92.5t-6 -117t-14.5 -122.5t-28.5 -113q-10 -25 -16.5 -43t-12.5 -35.5t-13 -35t-20 -41.5l-30 -70l-10 -10 q-4 6 -8.5 8t-5.5 7t-2 15.5t1 32.5v2q20 80 36.5 140.5t28 118t17.5 121t6 147.5v59v31v14v4q-16 -10 -29.5 -20.5t-27.5 -20.5q-35 -35 -66.5 -69.5t-62.5 -73.5q-66 -66 -127 -133q-47 -49 -92 -99.5t-92 -103.5l-9 -10q-16 -18 -25 -27.5t-18.5 -15.5t-20.5 -11.5 t-32 -15.5l2 2l2 4l13 17l45 65q49 70 93 132.5t97 124t124 126t169 142.5q12 10 24.5 19t24.5 19q-27 4 -77 13.5t-107.5 22t-113.5 26.5t-93 26q-4 2 -25.5 10.5t-44 18.5t-41 20.5t-14.5 14.5q6 -4 29.5 -8t53.5 -8.5t57.5 -9.5t43.5 -7q47 -10 88 -21.5t83 -22.5 t90.5 -21.5t109.5 -18.5q10 51 18.5 90t14.5 70t13 56.5t13 54.5h-725z" />
<glyph unicode="D" horiz-adv-x="913" d="M-25 1006v73h943v-73h-429q41 -61 46.5 -137t5.5 -169q12 0 23 -1t35 -7t62.5 -17t104.5 -34q29 -10 52.5 -24.5t53.5 -20.5q-21 -1 -41 -1q-97 0 -196 23q-25 4 -49.5 8.5t-46.5 4.5q0 -25 -9.5 -74t-28 -102.5t-45 -103.5t-61.5 -77q-41 -31 -96 -47q-46 -13 -93 -13 h-18q-56 3 -102 24q-46 22 -68 64q-17 31 -16 74q0 16 2 32q8 64 66 151q31 45 88 76t119.5 47t115.5 22q31 3 51 2q15 0 25 -1q0 72 3 140v18q0 60 -17 122q-2 4 -4 10t-5 11h-471zM86 440q-7 -28 -7 -51q-1 -33 13 -55q22 -38 67 -52q20 -6 41 -5q27 1 58 9q55 16 102 58 q48 44 78 114q27 62 27 146v23q-23 2 -53 2q-22 0 -46 -1q-58 -3 -114.5 -22.5t-103 -58.5t-62.5 -107z" />
<glyph unicode="E" horiz-adv-x="843" d="M-2 332q-1 13 -1 26q0 29 6 60q9 45 36 84q27 37 62.5 59.5t70.5 36.5q66 27 131.5 35t130.5 12q4 16 6 33.5t4 34.5q2 10 3.5 23.5t5.5 47.5v24.5t-2 25.5q-6 -14 -19 -27q-23 -29 -52.5 -49.5t-66.5 -26.5q-18 -3 -34 -3q-22 0 -41 5q-12 2 -32 10.5t-36 25.5t-28.5 42 t-12.5 61q0 53 21.5 114t62.5 102.5t99 51.5q10 2 20 1q51 0 112 -41q37 -25 51.5 -64t24.5 -75q14 -63 13 -125q0 -21 -1 -41q-4 -39 -11 -76t-17 -72q37 -4 72.5 -6t70.5 -6l131 -8q-10 -10 -23.5 -22.5t-23.5 -12.5q-59 0 -115.5 -1t-113.5 -7h-10q-8 -72 -29 -149 t-58.5 -139.5t-97 -104t-145.5 -46.5q-41 0 -74 21q-18 10 -30.5 24.5t-22.5 28.5q-18 29 -25.5 57.5t-11.5 55.5zM74 324q4 -55 38 -84q17 -14 42 -14.5t59 14.5q53 16 94 55t58 92l51 184q-41 -14 -89 -20t-94.5 -18.5t-84 -36t-58.5 -68.5q-8 -20 -13 -50q-4 -21 -3 -40 q-1 -7 0 -14zM204 872v-8q0 -30 19 -49q21 -21 52 -21h7q36 2 70 17q31 10 51.5 26.5t36.5 51.5q2 20 -1 51t-16 56.5t-39 39.5q-16 9 -39 9q-14 0 -30 -3q-25 -6 -50 -33.5t-41.5 -64t-19.5 -72.5zM608 1006v73h256v-73h-256z" />
<glyph unicode="F" d="M-709 1432q2 18 3 35.5t6 33.5q4 20 8 31q2 8 5 10t5 -2h-2v-4q-2 -4 -2 -20q0 -10 1 -22.5t3 -25.5q2 -14 3 -19t2 -8t3 -7t6 -17q0 -20 19.5 -54t23.5 -56q16 -12 28.5 -35t27.5 -31q33 -20 79 -32.5t99 -18.5q9 1 19 1q24 0 48 -4q8 -1 17 -1q26 0 53 12q31 6 55 19 q6 4 12.5 8t12.5 8q4 4 6 5t6 5l4 4q-2 -2 0 1t4 3q14 18 23.5 30.5t15.5 26t11.5 29t13.5 39.5l37 70q6 14 11 28.5t9 30.5q2 16 -2 32.5t-20 29.5q16 -4 27.5 -20t15.5 -34t4 -36.5t-2 -36.5q-4 -35 -16.5 -77t-26.5 -75q-8 -18 -35 -52t-53 -62q-35 -23 -77 -33.5 t-81 -20.5q-18 -2 -38.5 -4t-48.5 -2t-64.5 7t-90.5 24q-45 20 -84 55t-65 82q-12 39 -16 77q-3 26 -4 51q0 11 1 22zM-444 1393q0 14 5 24t11 21q23 20 52.5 11t43.5 -30q-14 10 -19 0t-20 -20q-6 -2 -14 4t-14 2q-2 -8 -3 -8t1 -8q0 -10 -3.5 -11.5t3.5 -9.5q8 -8 13 -3 t15 5q12 4 15.5 3t11.5 9l19.5 19.5t13.5 21.5q12 33 -21 41l10 2q-16 10 -45 11q25 10 47 10q10 0 24.5 -8.5t18.5 -26.5q1 -15 1 -29v-14q-1 -20 -11 -33q-4 -16 -19.5 -25.5t-27.5 -21.5q-19 -15 -46 -15h-3q-29 1 -49 29q-11 18 -11 38q0 6 1 12z" />
<glyph unicode="G" horiz-adv-x="776" d="M-18 1006v73h821v-73h-821zM4 506q-2 10 -2 19q0 25 12 48q18 33 42 52.5t48 31.5q51 25 90 34t101 14q70 8 138.5 11t133.5 13q4 0 7.5 1t7.5 1q20 2 35 3t38 3q18 2 30.5 6.5t53.5 12.5q-10 -23 -28.5 -33t-34.5 -18q-20 -10 -39 -16.5t-39 -12.5q-39 -12 -74 -15.5 l-75 -7.5q-39 -4 -78 -5h-16l-62 3l2 -2q27 -27 44 -60.5t17 -68.5q0 -27 -2 -53.5t-6 -48.5q-8 -47 -43 -92q-14 -18 -39 -28q-18 -6 -35 -6q-7 0 -14 1q-23 2 -43 11t-37 20q-16 14 -32.5 25t-30.5 28q-12 16 -25.5 31.5t-23.5 35.5q-8 10 -12.5 27.5t-8.5 34.5zM90 510 q4 -10 9 -26.5t16 -28.5q23 -25 42 -44.5t44 -29.5q18 -6 28 -6q8 0 17 8q10 10 21.5 26.5t15.5 39.5q10 33 12 71v13q0 32 -8 61q-10 35 -37 59h-4q-23 -10 -46.5 -20t-45.5 -23q-23 -14 -31 -22t-21 -25q-10 -14 -12 -29q-1 -7 -1 -13t1 -11z" />
<glyph unicode="H" horiz-adv-x="835" d="M-18 1006v73h860v-73h-860zM4 406q-4 25 -4 49q0 27 5 54q9 50 32 91t57 72q4 4 10 5h3q6 0 18 -5q-10 -10 -17.5 -23.5t-13.5 -25.5q-10 -20 -15 -50t-6 -63t2 -63.5t13 -51.5q25 -51 67 -80.5t109 -58.5q35 -16 76 -30q24 -8 46 -7q16 0 32 4q48 12 66 53q14 31 13 60 q0 9 -1 18q1 8 1 16q1 29 -11 58q-14 37 -44 64q-4 4 -9 10t-11 10q-4 2 -6 4t-6 4l-7 4v2q2 16 0 6l-3 -15t3.5 14.5t18.5 97.5h2h4q18 4 36.5 5t37.5 3q37 4 73.5 9t75.5 9l15 4q41 -2 79.5 -3t79.5 -5l-4 -12q-76 -23 -150.5 -46.5t-152.5 -45.5q-10 2 -20.5 2t-20.5 2 q12 -16 24.5 -35.5t22.5 -38.5q26 -47 42 -101q7 -21 6 -45q0 -35 -15 -73q-10 -23 -28.5 -42t-41.5 -34q-45 -27 -100 -30q-12 -1 -25 -1q-14 0 -26 1q-26 2 -47 6q-51 10 -92 30q-66 35 -118 87.5t-75 130.5z" />
<glyph unicode="I" horiz-adv-x="753" d="M5 316q3 36 15.5 74t36.5 69q35 47 70 88q35 43 69.5 84t69.5 82q8 12 13 16q-23 23 -42.5 46.5t-35.5 49.5q-20 29 -34.5 59.5t-19.5 63.5q-8 14 -6 29.5t4 34.5q4 16 13.5 32.5t21.5 30.5q27 29 52.5 36t58.5 22q14 4 26.5 6t26.5 4q8 0 13 1t16 3h26q14 1 28.5 1 t31.5 -1q33 -2 63 -12q16 -4 31.5 -12.5t32.5 -24.5q14 -16 17 -26.5t3 -29.5q0 -39 -11 -66.5t-24 -51.5q-31 -53 -66.5 -97.5t-74.5 -85.5l-4 -4q27 -18 54.5 -35.5t56.5 -33.5q25 -12 49 -22.5t53 -20.5q58 -21 109 -29q55 -8 111 -11t110 -12q-41 0 -83 -3t-87 -5 q-22 -2 -44.5 -2t-45.5 2q-23 0 -47 6l-11 2h-4h-2h-2q-6 2 -12 2t-13 3q-68 14 -137 43.5t-129 62.5q-23 -23 -41 -42t-41 -42q-20 -29 -46.5 -53.5t-47.5 -52.5q-12 -16 -26.5 -37t-27.5 -48.5t-22.5 -61.5t-9.5 -75q0 -27 21.5 -57.5t33.5 -42.5q12 -20 44 -26.5 t71 -10.5q41 72 98.5 135.5t128.5 112.5q8 4 26.5 10t43.5 7t51.5 -9t50.5 -37q14 -16 19.5 -38.5t3.5 -45.5q0 -23 -8 -42t-21 -33q-25 -31 -54.5 -49.5t-61.5 -30.5q-66 -25 -131 -31q-16 -8 -35 -13t-37 -10q-4 -8 -10.5 -16t-10.5 -18l-16 -33q-61 -92 -82 -201 q-8 -41 -7 -84v-27q3 -58 32 -110q-35 45 -52.5 100.5t-19.5 112.5v20q0 49 8 97q10 58 29 110q4 10 7 19.5t7 19.5q-47 4 -90 21q-35 14 -62.5 43.5t-41.5 68.5q-11 25 -17 60q-4 23 -4 46q0 13 1 26zM228 982q5 -36 26.5 -75t48.5 -75t41 -56q43 35 75 80t66 86 q31 33 31 63q0 6 -1 11q-7 35 -44 51q-28 12 -69 12q-12 0 -26 -1q-58 -5 -124 -42q-25 -15 -25 -44q0 -5 1 -10zM371 137q29 8 72.5 26.5t68.5 35.5q35 20 49 41q10 10 13.5 22t3.5 17q0 2 2 19t-2 21q-4 -2 -14.5 -3t-14.5 -3q-33 -4 -58.5 -25.5t-47 -49t-39 -55 t-33.5 -46.5zM678 1006v73h207v-73h-207z" />
<glyph unicode="J" horiz-adv-x="868" d="M-16 1006v73h905v-73h-905zM4 456v11q0 43 4 92q6 55 35 107.5t63 97.5q43 55 106.5 95t132.5 53q27 6 53 6q41 0 80 -14q65 -21 108 -89q33 -47 38 -96q2 -19 2 -37q0 -30 -5 -59q-6 76 -43 127q-49 70 -110 88q-30 9 -61 9q-29 0 -59 -9q-59 -17 -114.5 -63 t-93.5 -107.5t-55 -129.5q-9 -35 -9 -69q0 -30 7 -59q15 -60 68.5 -105t155.5 -59q37 -6 61.5 -9.5t52.5 0t67.5 13.5t111.5 35l74 28q23 10 45 23q20 10 42.5 25.5t45.5 31.5q-49 -96 -132 -152.5t-181 -74.5q-45 -9 -90 -9q-53 0 -107 11q-100 22 -184 82q-29 18 -51.5 46 t-38.5 60q-18 53 -19 100z" />
<glyph unicode="K" horiz-adv-x="722" d="M-37 1006v73h785v-73h-506h-19q-43 -27 -67.5 -71t-38 -94t-17.5 -101.5t-4 -92.5q0 -35 5 -65.5t20 -61.5q16 -39 33.5 -62.5t46.5 -47.5q29 -23 71.5 -50.5t75.5 -27.5q53 0 93 11t74 30.5t65.5 49.5t68.5 66q-23 -59 -73 -120.5t-121 -92.5q-37 -15 -81 -15h-14 q-52 3 -92 20q-41 16 -77.5 44.5t-69.5 63.5q-45 59 -73 124t-32 136q-2 26 -2 51q0 34 4 68q6 58 17.5 107t30 81.5t43.5 44.5q2 0 3 1.5t3 1.5t4 2h-156z" />
<glyph unicode="L" horiz-adv-x="487" d="M-386 1232q-2 15 -2 30q0 51 19 96q20 47 42 82t57 63q35 29 90 50.5t106 21.5q37 0 76 -6t74 -19q35 -10 63.5 -26.5t57.5 -44.5q29 -31 47 -68t28 -76q23 -80 23 -153v-49.5t-2 -53.5h268v-73h-272q-6 -51 -11.5 -99.5t-15.5 -97.5q-8 -45 -15 -95t-11 -79 q-6 -41 -17.5 -83t-21.5 -83q-31 -141 -56.5 -262t-54.5 -209l-31 -90q-20 -59 -35.5 -120.5t-37.5 -137.5q10 147 33.5 278t58.5 277q23 90 36 167t35 167q23 92 40.5 195.5t25.5 197.5q2 10 1 35.5t-1 38.5h-250v73h256q1 27 1 52v25q-1 36 -7 75q-10 66 -31.5 123 t-68.5 86q-16 10 -34 19t-40 16q-23 6 -47.5 10t-44.5 4q-43 0 -87 -12.5t-75 -38.5q-23 -18 -43.5 -46t-35.5 -61q-16 -33 -24 -69q-6 -24 -6 -48q0 -11 2 -22q4 -35 20.5 -67.5t51.5 -55.5q33 -23 74 -32q34 -7 67 -7h15q-30 -4 -62 -6h-11q-27 0 -56 8q-33 8 -62.5 26.5 t-50.5 47.5q-41 58 -48 126z" />
<glyph unicode="M" horiz-adv-x="382" d="M133 725q-3 6 -3 11q0 6 3 10q6 8 10 18q2 6 3 7t2.5 1t4.5 2t9 10q12 16 18 20.5t15 12.5l16 -10l29 -35l10 -24l10 -33l-18 -21q-10 -6 -19 -12q-8 -4 -13 -8t-9 -4q-4 -2 -13.5 -1t-21.5 3q-8 0 -12 10q-2 4 -2 8q-2 4 -7 10q-6 8 -12 25zM140 348q1 8 1 19l21 4 l43 -4l24 -11l31 -16l2 -27l-4 -20q-2 -8 -4 -15.5t-2 -11.5q-4 -4 -10 -9t-17 -13q-5 -4 -10 -4l-6 2q-4 2 -6 4l-13 4l-12 4t-14 4q-14 4 -15.5 14.5t-5.5 20.5q-2 6 -2 7v2v4v13q-1 13 -1 22v7z" />
<glyph unicode="N" horiz-adv-x="1085" d="M-37 1006v73h1170v-73h-1170zM10 420q12 106 60 182q18 33 42.5 62.5t57.5 54.5q33 27 72 43t84 20q13 1 25 1q32 0 62 -7q42 -10 79 -28q10 -4 18 -9.5t16 -11.5q23 -14 39 -31q35 -30 53 -75q25 -59 27 -113q1 -18 1 -37q0 -36 -3 -72q92 72 190.5 133.5t204.5 96.5 q-18 -27 -58 -58.5t-89 -66.5t-99.5 -74t-86.5 -80q-18 -12 -37 -25.5t-39 -25.5q-31 -16 -47.5 -4t-34.5 29l-6 67q4 37 4 73q0 26 -2 50q-4 62 -39 104q-12 16 -19 23q-4 2 -6 5t-6 3q-8 8 -12 10q-27 16 -60 31q-29 10 -61 14q-8 1 -16 0q-24 0 -48 -8 q-37 -16 -64.5 -43.5t-49.5 -62.5q-16 -25 -34 -72q-18 -48 -30 -106q-11 -54 -12 -114q0 -4 1 -10q1 -66 24 -132q18 -53 42.5 -106.5t59.5 -99.5t84 -82t117 -54q66 -16 142 -20h17q68 0 132 26q-59 -42 -134 -64q-49 -15 -99 -14q-27 0 -54 4q-78 10 -145.5 52t-127.5 89 q-49 39 -85 127q-34 88 -48 194q-7 55 -8 109q0 52 6 103z" />
<glyph unicode="O" horiz-adv-x="1042" d="M-6 1006v73h1073v-73h-221v-7q-4 -29 -11.5 -67t-23.5 -101q-8 -25 -27.5 -20.5t-26.5 6.5t-46 25q-31 18 -76 27.5t-94 11.5q-15 1 -30 1q-35 0 -67 -4q-48 -4 -82 -16q-25 -6 -43 -24q-8 -10 -6 -24.5t6 -29.5q18 -23 49 -40t54 -27q51 -23 98 -42.5t91 -42t87 -49 t88 -65.5q16 -16 33 -33.5t27 -44.5q10 -33 8 -59q-2 -16 -8 -30.5t-15 -26.5q-18 -23 -39.5 -37.5t-43.5 -24.5q-16 -8 -34 -14t-34 -12q14 -20 26.5 -41t24.5 -43l21 -39q45 -86 77.5 -167t85.5 -163q-63 66 -114 141.5t-103 149.5q-25 35 -49 67.5t-51 65.5 q-12 -4 -22.5 -8t-20.5 -9q-29 -10 -56.5 -19t-56.5 -15q-58 -12 -122 -14q-5 0 -10 -1q-59 0 -120 25q-25 8 -56.5 29.5t-53.5 46.5q-32 37 -60 85q-17 30 -18 70q0 23 6 49q6 29 26.5 49.5t41.5 30.5q40 18 74 20q13 1 26 1q20 0 41 -2q39 -4 83 -14.5t85 -26.5 q78 -33 145 -94q61 -55 105 -113q16 8 32.5 14t32.5 15q39 20 56 41q8 8 8 15v15q0 10 -9.5 23.5t-21.5 27t-26.5 24.5t-22.5 17q-25 18 -60.5 38t-73.5 40.5t-75 41t-63 36.5l-60 37q-16 10 -39.5 29.5t-40.5 40.5q-6 10 -13 22t-11 29q-4 16 -3 28.5t9 28.5q10 23 25.5 36 t31.5 22q14 10 27.5 14t28.5 8q48 11 98 11q25 0 51 -3q78 -8 146 -24q12 -4 22 -7.5t21.5 -7.5t24.5 -11t32 -19l2 -2q4 -4 11 -6.5t7 8.5l4 30q2 23 2 39.5t3 44.5l38 13h-835zM80 400v-9q0 -31 14 -45q33 -45 78 -78q46 -33 100 -40q22 -3 44 -3q31 0 63 6q41 4 81 13.5 t81 23.5q-39 55 -99.5 109.5t-142.5 79.5q-25 8 -53.5 14t-55.5 10q-14 2 -26 2t-22 -2q-19 -4 -44 -28q-16 -15 -18 -53z" />
<glyph unicode="P" horiz-adv-x="1030" d="M-25 1006v73h285q8 4 14.5 6t10.5 5q-4 -2 -5 -4.5t-6 -6.5h535q0 6 -1 12.5t-1 12.5l12 -25h283v-73h-254q12 -42 19 -88q3 -19 3 -38q0 -26 -6 -51q-12 -45 -25.5 -96t-33.5 -90q-20 -41 -35.5 -63.5t-38.5 -63.5q-41 -57 -103.5 -108.5t-127.5 -88.5q-48 -23 -104 -34 q-23 -5 -48 -5q-32 0 -65 9q-66 16 -110 52t-73 85q0 -23 -1 -40t1 -40q0 -53 11.5 -116.5t35.5 -110.5q31 -59 74 -98t92 -80q47 -37 96.5 -67t104.5 -50q39 -16 84 -25.5t90 -12.5q19 -1 38 -1q25 0 49 2q42 4 73 14l18 6q16 6 42 17.5t55.5 27t59.5 33t54 35.5 q-31 -47 -66.5 -81t-88.5 -64q-37 -23 -99.5 -38.5t-132.5 -19.5q-33 2 -53.5 3t-43 5.5t-53 13.5t-79.5 25q-72 35 -144.5 79t-132.5 96q-41 43 -83 97t-64 111q-23 55 -27 107.5t-8 112.5q-2 22 -2 44.5t2 44.5q4 44 10 87q6 47 15.5 97t23.5 91q20 57 36.5 105.5 t49.5 97.5q12 18 24.5 36.5t26.5 35.5h-213zM102 451q29 -29 61 -46.5t66 -37.5q18 -10 40 -13.5t44 -5.5q12 -1 22 -1q9 0 19 1q18 2 41 6q31 10 50.5 18.5t46.5 22.5q29 14 52 31.5t46 40.5q29 29 60.5 68.5t51.5 74.5q18 33 29.5 62.5t26.5 64.5q23 51 36 104.5t13 108.5 v13l6 43h-584l-18 -43q-16 -41 -31.5 -88.5t-27.5 -77.5q-12 -31 -19.5 -63t-11.5 -58q-6 -47 -10.5 -76t-8.5 -63q-1 -12 -1 -22.5t1 -20.5q2 -20 0 -43z" />
<glyph unicode="Q" horiz-adv-x="1046" d="M-37 1006v73h1114v-73h-153q0 -12 -5.5 -53.5t-13.5 -99.5t-17 -128t-17.5 -141.5t-14.5 -138t-6 -119.5q-8 -49 -16.5 -103.5t-16.5 -103.5l-10 -56q-6 -31 -13.5 -59.5t-35.5 -38.5q-1 21 -1 45v25q1 39 4 80t5 79.5t2 69.5q10 74 20.5 145.5t12.5 147.5q6 59 11 114.5 t9 110.5q-37 -3 -76 -3q-33 0 -67 2q-74 5 -133 14q-12 2 -27.5 2t-40 -3t-60.5 -10.5t-87 -21.5q-41 -12 -57.5 -44t-16.5 -74t9 -89t22 -90q8 -29 19 -76t25.5 -98t32 -101.5t37.5 -83.5q23 -72 26 -102.5t5 -54.5q-68 129 -125 254t-117 270q-16 43 -22 93q-4 30 -4 59 q0 20 2 39q4 12 6 23t6 24q8 18 17.5 36.5t23.5 34.5l-69 11q-74 2 -119 10t-49 26q14 -1 30 -1q35 0 80 4q66 4 121 8q18 -4 44 -2t44 2q4 0 6 -2q29 12 48.5 16t47.5 8q47 9 92 9q30 0 59 -4q71 -11 128 -21l143 -25q4 33 10.5 69t16.5 83q4 10 6 18t4 15h-899z" />
<glyph unicode="R" horiz-adv-x="960" d="M-47 803q29 12 54.5 12t51.5 -2q6 2 38 -4t71 -12t72.5 -10.5t42.5 1.5q20 2 41.5 0t40.5 5q18 2 42.5 4t45.5 2q27 -4 41 -16.5t43 -16.5l4 -2l69 -33q-35 -4 -66.5 -7t-66.5 -7q-12 6 -24.5 12t-26.5 12q-41 -6 -79 -24.5t-71 -46.5q-27 -20 -52 -61.5t-29 -71.5 q-4 -29 2 -57.5t22 -51.5q16 -18 43 -32.5t56.5 -21.5t60.5 -9.5t57 2.5q61 0 113.5 24.5t98.5 64.5t88 92t85 107l2 4l31 -10l12 -10q-10 -20 -18 -37.5t-17.5 -34t-20.5 -35t-30 -38.5q-35 -39 -70.5 -76t-76.5 -65.5t-89 -47t-106 -20.5q-12 -1 -24 -1q-71 0 -133 21 q-51 18 -99 50q-50 32 -74 78q-18 34 -17 75q0 14 2 30q9 60 77 134q18 23 44 35t48 22q-20 0 -39.5 2t-42.5 4q-23 4 -48.5 5t-45.5 12q-55 27 -83 36t-50 15zM-29 1006v73h1047v-73h-1047z" />
<glyph unicode="S" horiz-adv-x="942" d="M-31 1006v73h574q2 4 3 10.5t3 10.5v-21h506v-73h-508q0 -25 -1 -50.5t-3 -50.5q-4 -6 -6 -42t-4.5 -80t-5.5 -85t-5 -55q-6 -31 -6 -50.5t-2 -49.5q0 -16 -4 -42t-4 -40q8 8 10 12q25 29 50.5 62.5t56.5 68.5q29 35 63 64q10 8 18.5 15t18.5 13q4 4 10 6.5t10 6.5 q12 6 15 7l2 1l-2 -1t2 1h2h4h6q4 2 14 2h23q18 -4 36.5 -12.5t28.5 -24.5q14 -16 18.5 -32.5t4.5 -33.5q-2 -16 -6 -30.5t-21 -24.5q-8 -6 -16 -2t-10 8q-4 4 -6 10.5t-7 12.5q6 -10 15.5 -15.5t11.5 -1.5q12 12 4 35q-10 41 -49 41q-4 0 -9 -1t-9 -1q-4 -2 -5.5 -2 t-5.5 -2q-8 -6 -15 -13t-15 -16q-16 -16 -26.5 -35.5t-27.5 -35.5q-41 -43 -89 -82t-97 -70q-2 -2 -2 -4v-22q-4 -37 -7 -74t-7 -74q-8 -53 -15.5 -110.5t-13.5 -110.5l-33 33l-18 88q12 39 20 67.5t13 67.5q2 14 8 34.5t4 35.5q-53 -63 -131 -107q-25 -10 -51.5 -15 t-55.5 -5t-57.5 7t-56.5 23q-29 16 -48.5 41t-31.5 53q-23 55 -27 115q0 82 35 162q16 37 41.5 73t66.5 62q31 13 65 17l22 2q22 0 42 -5q29 -8 53.5 -22t45.5 -31q39 -35 57 -82q12 -29 12 -55q0 -15 -4 -29q-6 57 -59 101l-13.5 9t-11.5 9q-20 8 -28 12q-31 12 -60 13 q-23 10 -42 8t-42 -25t-35 -46t-18 -52q-9 -39 -19 -77q-7 -27 -7 -54q0 -11 1 -23q4 -41 21.5 -76.5t56.5 -52.5q14 -2 27 -2q35 0 71 16q48 22 89 54q23 14 44 29.5t40 33.5q0 16 -2 25q2 61 10 120.5t12 121.5q2 23 3 56.5t3 69t3 69.5t3 57q6 18 10.5 26t8.5 14.5 t7 15.5t9 28h-553z" />
<glyph unicode="T" horiz-adv-x="712" d="M-18 1006v73h761v-73h-761zM12 643q-2 -21 -2 -41q0 -30 4 -58q6 -46 17 -89q10 -59 30.5 -109.5t46 -98.5t55.5 -98.5t60 -107.5q-2 39 -9 81t-17 79q-16 59 -39 116.5t-35 110.5q-13 48 -19 104q-2 19 -3 38q-1 35 7 69q10 51 40 92t88 62q48 16 84 18q9 1 19 1 q29 0 64 -5q47 -10 93.5 -28.5t87.5 -35.5q12 -4 23 -10t22 -10q12 -6 14 -8q-8 20 -17.5 30.5t-13.5 14.5q-31 25 -50 42t-36.5 30.5t-36 23.5t-45.5 23q-50 23 -109 23h-3q-60 0 -121 -19q-39 -16 -78 -42t-63 -57q-51 -63 -58 -141z" />
<glyph unicode="U" horiz-adv-x="667" d="M-23 1006v73h730v-73h-271q10 -12 27.5 -50t33 -83.5t28 -91.5t12.5 -74q3 -38 3 -69v-16q-1 -38 -5 -81q-10 -59 -29 -113.5t-76 -114.5q-45 -41 -85 -67.5t-95 -36.5q-13 -3 -34 -3q-10 0 -23 1q-37 2 -64 6q-25 4 -51.5 18.5t-42.5 38.5q-18 25 -24.5 49.5t-6.5 47.5 q0 41 10 86l4 16q47 90 119 149q-43 -74 -55 -157q-4 -22 -4 -46q0 -16 2 -32q4 -18 9 -33.5t15 -23.5q6 -35 64 -45q26 -7 49 -7q18 0 35 4q39 9 69.5 32.5t55 56t41.5 67.5q10 23 22.5 63t12.5 78q0 41 -3.5 81t-7.5 81q-2 29 -5 48.5t-7 37t-10 34.5t-12 42 q-10 35 -30 64.5t-63 33.5h-7q-38 -1 -70 -19q-36 -20 -74 -44q16 20 35.5 37.5t42.5 34.5h-265z" />
<glyph unicode="V" horiz-adv-x="974" d="M-23 1006v73h306q6 6 14 11q19 8 31 8h5q13 -2 27 -4q25 -6 39 -15h680v-73h-579q4 -8 10 -8.5t10 -8.5q6 -10 12.5 -16t11.5 -12.5t9 -12.5t4 -18q0 -18 1 -43t1 -51.5t-2 -50t-4 -42.5q-4 -35 -17.5 -63.5t-23.5 -63.5q-14 -47 -51 -93t-72 -83l12 -12q35 -41 61.5 -84 t51.5 -90q10 -23 20.5 -45.5t20.5 -44.5q10 -23 19.5 -48.5t17.5 -47.5l6 -19q20 -59 29.5 -115.5t44.5 -107.5q-43 39 -71 90t-50 104q-12 27 -23.5 51.5t-25.5 49.5t-29.5 47t-28.5 47q-25 47 -62.5 86t-68.5 84q-41 -33 -73 -42q-22 -6 -54 -6q-15 0 -32 1 q-41 4 -80 28.5t-56 71.5q-8 23 -4 52.5t27 52.5t50.5 29t49.5 6q45 -4 79 -19.5t67 -36.5q23 -10 45 -30q8 8 14 20q47 55 72.5 128t42.5 144q10 51 10 100.5t-22 102.5q-2 4 -11.5 9t-13.5 10h-447zM117 463q0 -16 3 -24.5t19 -18.5t32.5 -9t39.5 5q14 2 22.5 4t15.5 4 t13 7t19 15q-31 18 -46.5 24.5t-48.5 10.5q-23 4 -46 7.5t-23 -25.5zM293 1079h59q-12 6 -30 6q-14 0 -23 -4q-4 0 -6 -2zM526 527.5q0 50.5 17 95.5q37 57 94 86q14 6 26.5 12t26.5 10q4 2 12 2h3v2v-2h2q0 -6 2 -10v-2q-4 -2 -11.5 -9t-17.5 -14q-14 -6 -28.5 -33.5 t-20.5 -62.5q-3 -19 -3 -39q0 -17 2 -33q5 -38 29 -63q16 -16 26.5 -21.5t31.5 -9.5q29 6 36 15.5t21 33.5q12 20 22.5 52t15.5 66t5 65.5t-6 52.5l-4 4q-2 10 -20.5 18.5t-42 12.5t-48 7t-39.5 5q12 4 38 8q25 4 53 6q11 1 22 1q16 0 31 -2q25 -3 39 -13q29 -20 46 -49 t17 -62q0 -41 -13 -89t-26 -81q-6 -16 -18 -37.5t-28.5 -41t-37 -35t-43.5 -21.5q-18 -7 -38 -7q-17 0 -35 5q-33 8 -60 29q-29 18 -51 51q-27 47 -27 97.5zM700 729l2 2zM705 735h2h-2zM707 733v2v-2z" />
<glyph unicode="W" horiz-adv-x="700" d="M0 788v10q0 43 14 83q8 27 34 57.5t57.5 58t65.5 49t56 29.5q18 6 47 12.5t60 7.5h8q28 1 52 -5q28 -6 48 -21q23 -16 35 -36.5t17 -43.5q3 -18 3 -36q0 -65 -35 -119q-44 -70 -120 -109q-10 -4 -22.5 -8t-26.5 -6q-14 0 -28.5 2t-26.5 10q-29 16 -41.5 45t-12.5 60.5 t8.5 62.5t22.5 53q8 10 15.5 20.5t17.5 18.5q-4 -2 -6 -2t-6 -2q-29 -12 -54.5 -28.5t-46.5 -37.5q-20 -23 -34.5 -51t-16.5 -57v-10q0 -57 41 -107q20 -27 38.5 -40t43 -21.5t59.5 -12.5t84 -10l-4 -16q-2 -10 -3 -13.5t-1 -5.5t-1 -6t-3 -18h-2l-6 -2q-6 -2 -21 -2 q-16 0 -32.5 2t-40.5 -2q-29 -4 -62 -12.5t-57 -26.5q-27 -18 -37 -39q-8 -18 -2 -33q2 -12 17.5 -28.5t37.5 -30.5q47 -31 98 -43q25 -6 54.5 -9t61.5 6t65.5 28.5t70.5 54.5q14 14 37 37.5t37 39.5q22 23 47 58q10 16 17.5 33.5t3.5 39.5q10 -18 6 -38.5t-8 -38.5 q-6 -18 -14.5 -35t-18.5 -33q-39 -66 -87 -128t-126 -95q-39 -16 -82 -24q-18 -3 -36 -3q-24 0 -48 6q-49 12 -89 42t-75 67q-16 18 -26.5 40.5t-10.5 45.5q-2 23 7.5 43t21.5 37q18 25 40.5 48t51.5 40q-68 39 -106 108q-23 42 -25 90zM234 908q-4 -13 -4 -30q0 -23 6 -53 q8 -29 32 -34q7 -2 14 -2q18 1 38 9q28 12 55.5 36t44 51.5t16.5 56.5t-28 49q-27 18 -56 17q-16 -2 -35.5 -5.5t-35.5 -7.5q0 -2 -2 -2q-6 -4 -13.5 -13t-13.5 -19q-10 -23 -18 -53zM573 1006v73h132v-73h-132z" />
<glyph unicode="X" horiz-adv-x="827" d="M-18 1006v73h868v-73h-182v-54v-32.5t-2 -32.5q0 -4 1 -12.5t-3.5 -17.5t-15.5 -18.5t-38 -15.5q-2 6 -8 8q0 4 -4 9q-20 41 -55 46q-9 1 -17 1q-27 1 -54 -11q-36 -16 -67.5 -43.5t-46.5 -50.5q-6 -33 9 -51q10 -10 26.5 -18t34.5 -17q25 -4 50.5 -5t51.5 -5 q27 -2 58 -12q16 -4 32.5 -13.5t32.5 -27.5q14 -18 19.5 -42t1.5 -42v-4l-2 -6q0 -6 -2 -11q-4 -16 -8 -24q-12 -23 -29 -35q-31 -25 -57.5 -33t-49.5 -18q-35 -10 -64.5 -18.5t-45.5 -24.5q-16 -10 -19.5 -34t6.5 -44l7 -6q10 -31 49 -53q16 -10 36.5 -18.5t43.5 -18.5 q-41 2 -84 7t-84 36q-20 16 -31.5 39.5t-15.5 48.5q-4 27 4 54.5t26 49.5q29 18 56.5 24.5t54.5 10.5q27 2 52.5 3t51.5 7q10 8 21.5 17.5t17.5 23.5q6 12 5 25.5t-5 23.5q-10 23 -30.5 30t-42.5 11q-37 10 -77 14.5t-85 20.5q-4 2 -9.5 4t-11.5 4q-111 -25 -179.5 -89 t-96.5 -144q-18 -54 -18 -110q0 -28 4 -56q14 -86 67 -155.5t147 -113.5q87 -40 206 -40h22h21q79 1 129 -13q56 -16 114 -57q-67 12 -129 12q-19 0 -38 -1q-66 -4 -129 -4h-24q-74 1 -149.5 21.5t-153.5 88.5q-82 70 -118.5 157t-39.5 169v19q1 72 21 133q24 69 64 103 q20 18 50 39t60.5 38.5t61 29.5t55.5 14q-4 6 -7 12.5t-7 12.5q-8 16 -9.5 32.5t-1.5 30.5q4 31 17 62q27 41 61.5 61.5t69.5 30.5q42 10 82 10q32 0 63 -6q16 -6 29.5 -14t26.5 -19v6l12 40t10 42q2 2 2 9h-665z" />
<glyph unicode="Y" horiz-adv-x="790" d="M4 482v9q0 33 27 64q29 35 66.5 55.5t76.5 36.5q31 10 61.5 18.5t61.5 16.5q41 10 71.5 28.5t51 38t32 35t13.5 21.5q14 23 22.5 46t4.5 38q0 10 -3.5 15t-15.5 14q0 2 -2 2q-35 -47 -87 -73t-114 -26q-23 4 -45 12.5t-43 28.5q-20 18 -27.5 45t-2.5 49q4 23 12 39.5 t18 30.5q12 16 26.5 27.5t31.5 19.5q47 27 98 27q14 0 29 -2q33 -6 51 -23q10 -10 16 -24.5t6 -26.5q-16 16 -28.5 30.5t-30.5 18.5t-34.5 1t-37.5 -11q-25 -10 -49 -31.5t-35 -50.5q-10 -18 -10 -42t23 -40q25 -18 52 -17t49.5 15t41 36.5t25.5 47.5q8 12 12 20v3 q-4 -4 13.5 6t35.5 6q4 0 16 -4q35 -10 62 -35q31 -29 35 -70q4 -18 1 -35.5t-8 -33.5q-12 -35 -32.5 -65t-42.5 -54q-47 -53 -118 -81t-149 -50q-37 -10 -58 -19.5t-46 -27.5q-37 -26 -37 -61q0 -9 2 -18q12 -46 66 -75q41 -23 73.5 -35t83.5 -20q25 -4 51.5 -6t49.5 -2 q37 0 62.5 6t60.5 18q29 8 50 24.5t44 39.5t43 50t37 56q-18 -59 -51 -118.5t-93 -100.5q-89 -58 -185 -58q-12 0 -24 1q-110 8 -208 61q-29 14 -63 43t-57.5 63.5t-27.5 72.5zM625 1006v73h186v-73h-186z" />
<glyph unicode="Z" horiz-adv-x="1105" d="M-35 1006v73h486v-73h-486zM1 307v13q0 13 1 28q2 20 10 45t29 47q18 23 43 34t47 15q33 6 59.5 3t51.5 -9q23 -4 44 -11t44 -17q86 -35 157 -80q37 -23 74 -49q12 -8 19 -15q2 -2 4 -3t4 -5l2 -2h2l4 -4l2 -2l2 -4q14 -14 21 -23q16 12 24 21q8 8 15.5 15t13.5 15 q25 29 45 68q37 68 55 162q14 73 13 138q0 18 -1 36q-6 -10 -19 -29.5t-24 -25.5q-23 -14 -49 -23.5t-55 -9.5q-41 4 -74 22.5t-55 42.5q-41 51 -51 115q-2 15 -2 29q-1 44 19 84q26 52 67 86q18 16 39.5 28.5t44.5 22.5q35 15 70 15q11 0 22 -1q45 -2 88 -22q23 -10 39 -21 q4 -4 7 -6t7 -6t6 -7t-6 1q-6 6 -10 8q-8 4 -29 12q-31 10 -63 13q-10 1 -20 1q-22 0 -45 -6q-34 -8 -77 -40q-6 -6 -12 -11.5t-12 -11.5q-23 -23 -37 -49q-17 -31 -17 -72q0 -14 2 -30q8 -60 48 -93q18 -16 46 -24t56 2q25 18 38 42.5t24 49.5q6 20 7 32.5l2 25t4 27.5 t11 40q0 2 4 9t11.5 12.5t17.5 6.5t25 -12v-2v-2l20 -88q4 -46 12 -110q5 -43 5 -77q0 -17 -1 -32q-8 -100 -31.5 -193.5t-95.5 -171.5q-10 -12 -19 -24t-22 -23q-6 -8 -14 -15t-18 -15q27 -47 49 -93l16 -32q33 -100 76 -207t90 -199q-80 76 -133 174.5t-96 182.5 q-18 35 -39 66.5t-43 60.5q-12 -6 -24.5 -12.5t-26.5 -10.5q-59 -25 -120 -41t-128 -20q-33 2 -67 7t-68 17q-35 12 -69 38t-56 67q-10 18 -16.5 38.5t-10.5 36.5q-2 18 -3 37zM57 313q4 -33 17.5 -63.5t40.5 -50.5q23 -20 52.5 -28.5t57.5 -12.5q26 -2 53 -2q33 0 67 3 q61 5 116 25q16 4 45 15.5t45 23.5q-29 43 -79 82t-110 67q-62 26 -124 38q-33 6 -63 7q-26 0 -50 -5q-33 -6 -49 -37q-10 -14 -13.5 -29.5t-5.5 -32.5zM969 1006v73h178v-73h-178z" />
<glyph unicode="[" d="M-586 -111q0 43 15.5 84t43 71t65.5 41t85 -3q29 -6 49.5 -23.5t32.5 -38.5q-14 18 -42 20.5t-56.5 -6.5t-54 -26.5t-37.5 -38.5q-18 -33 -22.5 -73.5t5.5 -77.5t39 -62.5t76 -25.5q53 -4 110.5 6t108.5 18l109 64q-23 -49 -51.5 -91t-77.5 -53q-35 -8 -71 -14t-67 -6 q-57 0 -105 8t-82 33.5t-53.5 72t-19.5 121.5z" />
<glyph unicode="\" d="M-653 -25q16 2 35.5 5.5t21.5 3.5q8 -4 43 -20.5t59 -33.5l107 -67q18 -16 59 -44t91.5 -60.5t101.5 -63.5t92 -49q115 -53 104 -107q-23 4 -38 12.5t-37 14.5l-9 4q-63 29 -129.5 56.5t-121.5 70.5q-59 35 -103.5 68.5t-85.5 66.5t-82 63.5t-90 59.5q-4 2 -6 5t-6 7 t-6 8z" />
<glyph unicode="]" d="M-748 1465.5q5 31.5 21 58t39.5 43t52.5 18.5q68 2 101.5 -18.5t68.5 -40.5q31 -23 52.5 -48.5t47.5 -54.5q39 -43 69 -90t63 -94l6 -10q16 -31 38.5 -81t38.5 -81q-14 12 -24 15t-20.5 10.5t-24.5 28t-35 69.5q-12 27 -30.5 54.5t-39 52t-41 45l-34.5 34.5t-35 36 t-42.5 42.5t-43 37.5t-37.5 24q-33 16 -59.5 12t-49.5 -25q-4 -4 -12 -22.5t-8 -43t11 -47t48 -32.5q12 -4 32 -6t32 2q2 0 10 7t14.5 22.5t6.5 39t-15 56.5q-6 10 -10 20t-14 12q18 -2 29.5 -14t21.5 -22q6 -14 11 -28.5t9 -31.5q10 -45 -11 -73.5t-46 -43.5 q-20 -10 -49 -7t-56.5 16.5t-50 38t-30.5 55.5q-10 33 -5 64.5z" />
<glyph unicode="^" horiz-adv-x="808" d="M2 418q-6 53 14 104q20 49 60.5 84t81.5 58q-49 41 -70.5 96t-5.5 119q10 29 25.5 55.5t33.5 46.5q47 55 116 74.5t134 25.5q41 4 83 3t83 -7q20 -4 38.5 -8t35.5 -14q16 -12 18 -19q0 -10 -2 -16q-2 10 -10 16q-16 10 -45 11q-29 4 -66 3t-65 -6q-2 0 -43 -3 t-93.5 -22.5t-102.5 -63.5t-68 -124q-10 -47 19.5 -78.5t64.5 -54.5t72.5 -35t97.5 -28q-12 -18 -32 -30.5t-43.5 -16.5t-47 0t-41.5 14q-23 6 -48.5 -6t-45.5 -29q-25 -18 -40.5 -43.5t-20.5 -55.5t1 -58.5t25 -51.5q25 -31 52.5 -45t58 -18t61 -2t61.5 4h2q29 57 84 105.5 t123 58.5q29 6 60.5 4t56.5 -23q24 -18 24 -43q0 -16 -6 -28.5t-12 -22.5q-12 -23 -47 -44t-75 -38.5t-79 -30t-61 -18.5q-10 -20 -19.5 -40.5t-17.5 -41.5l-8 -26q-16 -37 -28.5 -76t-16.5 -80t9 -98.5t36 -98.5q-29 33 -54.5 88.5t-31.5 98.5t-4 86t8 86q4 23 9 43t11 43 q-63 -6 -125 8q-43 12 -84 39.5t-69 73.5q-25 43 -31 96zM461 311q25 8 66 18.5t59 24.5q8 4 17 13.5t5 13.5q-12 10 -34.5 7t-46 -14.5t-43 -27.5t-23.5 -35z" />
<glyph unicode="_" horiz-adv-x="598" d="M16 -233q29 2 52.5 18t50.5 35q78 55 133 147t88 205t43 240t-1 255t-44 249t-86 221q-20 39 -57 77.5t-86 53.5q47 4 94 -15.5t84 -52.5q82 -115 124 -237.5t52 -249.5t-3.5 -253t-37.5 -245q-25 -117 -80 -223.5t-160 -175.5q-41 -27 -85 -43.5t-81 -5.5z" />
<glyph unicode="`" d="M-2774 903q1 -2 2 -6t-1 2v2h2q10 4 17.5 5t15.5 5q35 10 67.5 16.5t67.5 10.5q33 4 65.5 7t67.5 7q29 4 62.5 8.5t64.5 8.5h106.5t106.5 -2q47 12 95 24.5t96 22.5q78 8 156.5 14t156.5 12q43 2 96 4.5t108.5 3.5t110 2t97.5 1q104 10 210.5 19t215.5 17q104 0 208.5 -3 t208.5 -7q154 -10 303 -24t301 -37q45 -10 105.5 -24.5t101.5 -33.5q23 -10 39 -20q8 -6 13.5 -14.5t1.5 -16.5q-10 -16 -30 -22t-40 -13q16 8 30.5 16.5t16.5 18.5q4 10 -11.5 16.5t-31.5 12.5q-37 10 -79 16t-85 11q-168 14 -342 18q-104 18 -209.5 34.5t-212.5 31.5 q-221 -8 -440 -31q-84 -4 -177 -9.5t-188.5 -11.5t-188.5 -13t-175 -15q-123 -10 -245 -21.5t-245 -25.5q-45 0 -88 -1t-88 -4l-86 -2q-27 -2 -47 -1t-43 1q-45 -2 -88 -3t-88 -5l-43 -6q-6 -2 -11 -3t-12 -3l-10 -2h-2q-2 8 -1 5t3 -11t3 -15.5t1 -5.5h2h2l7 -2 q23 -8 47 -11t47 -7q-16 2 -36 2t-40 4q-4 0 -9 1t-9 1l-11 2l-6 2q-6 33 -8 41t-1 6z" />
<glyph unicode="a" horiz-adv-x="980" d="M-37 1006v73h799q2 10 3 20.5t3 20.5v2q6 0 9 -2t13.5 -4t32 -6t62.5 -10l-6 -21h133v-73h-148q-6 -14 -17 -57.5t-23.5 -102t-26 -124t-24.5 -125.5t-21.5 -107.5t-14.5 -65.5q-12 -47 -24.5 -93t-12.5 -95l-2 -33q-14 -92 -14 -185.5t21 -187.5q-37 86 -56.5 175 t-25.5 183v33q-10 -12 -23 -22q6 -16 7 -22.5t9 -22.5q-14 10 -22 9t-23 9q-39 -33 -88 -51q-55 -19 -113 -19q-25 0 -51 4q-18 4 -37.5 7.5t-37.5 9.5q-8 4 -17.5 6t-15.5 6q-10 4 -18.5 7t-18.5 8q-35 16 -70.5 42.5t-58.5 67.5q-27 41 -34 86q-4 24 -4 47q0 20 3 39 q14 57 41 101.5t60 80.5q63 72 145 123q66 41 144 57q27 5 54 5q51 0 101 -19q35 -12 53.5 -45t27.5 -67.5t11 -65.5t4 -39q-14 59 -43.5 107.5t-105.5 64.5q-35 5 -63 5h-9q-31 -1 -59.5 -12t-58 -31.5t-66.5 -53.5q18 -29 30.5 -45t23.5 -28.5t23.5 -26t32.5 -33.5 q39 -43 85 -87t79 -101l25 -37q25 23 53.5 46t38.5 58q12 41 25.5 77t23.5 77q27 98 39 199.5t25 201.5q2 10 3 29.5t3 32.5h-793zM84 371q2 -29 14.5 -48.5t32.5 -35.5q39 -31 90 -47q37 -12 72 -20.5t72 -8.5q7 0 13 -1q66 0 120 38q-4 18 -22.5 35.5t-29.5 33.5 q-16 23 -28 39.5t-25.5 30.5t-28 29.5t-32.5 38.5q-35 37 -70 73.5t-55 81.5q-25 -25 -47.5 -51.5t-41.5 -54.5q-18 -30 -28 -62q-7 -23 -7 -49q0 -11 1 -22z" />
<glyph unicode="b" horiz-adv-x="952" d="M-25 1006v73h484q6 2 11 3t11 3q37 6 74 7q59 0 121 -13h338v-73h-170q18 -12 30.5 -22.5t4.5 -35.5q-2 -8 -30 -23.5t-68 -33t-86 -35.5t-88 -34.5t-71.5 -29t-35.5 -14.5q-29 -12 -81 -39.5t-108.5 -66.5t-108.5 -86q-52 -48 -80 -98q-23 -42 -23 -84q0 -9 1 -18 q6 -52 66 -101q29 -20 77 -31.5t83 -15.5q23 -4 59.5 -5.5t58.5 3.5q-2 18 -2 37t2 38q6 47 34 93.5t69 78.5q27 20 49 31.5t51 15.5q7 0 15 1q51 0 100 -13q33 -10 45 -33.5t9 -52.5t-15.5 -57.5t-28.5 -48.5q-41 -55 -99.5 -95.5t-129.5 -64.5q4 -39 16 -76t39 -70 q25 -33 61.5 -56t79.5 -38q-43 4 -85 17.5t-76 42.5q-76 53 -111 143q-2 4 -6 16q-35 -6 -74 -6q-45 4 -90 10.5t-86 24.5q-47 20 -95 52t-79 75t-35 97v9q0 50 39 105q53 76 118.5 132t137.5 99t148.5 77t152.5 65q41 16 78 31.5t72 31.5q10 4 26.5 14.5t1.5 20.5 q-8 6 -11 8t-13 8l-13 7h-764zM537 260q37 10 70.5 30.5t62.5 45.5q16 14 28.5 27.5t22.5 29.5q12 18 16 37q-2 0 -1 1t-1 1q-16 14 -56 16q-3 0 -6 1q-37 0 -71 -31q-29 -25 -44 -71t-21 -87z" />
<glyph unicode="c" horiz-adv-x="1425" d="M-137 757q10 40 26 62q51 66 111.5 109t127.5 70.5t139.5 46t146.5 36.5q37 7 84 13q34 4 67 5q12 0 24 -1q44 -2 82 -9.5t56 -21.5q16 -12 21.5 -30.5t3.5 -39.5q-4 -39 -22.5 -78.5t-39.5 -74.5q-37 -66 -76 -119t-73 -115q-6 -14 -9.5 -29.5t7.5 -19.5q25 -4 56.5 -6 t63.5 -10q35 -8 67 -24.5t56 -43.5l2 -2q104 74 203 148q20 16 40 29.5t38 29.5q12 53 26.5 106.5t32.5 106.5q10 20 20.5 38.5t24.5 39.5q6 8 12.5 16t12.5 17h-346v73h625v-73h-146q8 -12 10 -19q15 -27 15 -56q0 -18 -6 -36q-16 -45 -44 -76t-59 -59q-23 -20 -45 -37.5 t-45 -34.5q-20 -66 -30.5 -124t-24.5 -124l-13 -94q-16 -68 -26 -133.5t-22.5 -130t-31 -129t-47.5 -127.5q10 57 14.5 97t6.5 81t5 95.5t15 142.5q4 31 10.5 79t13.5 101t13 101t13 79q-55 -47 -111.5 -94t-112.5 -94q12 -33 12 -64q0 -10 -1 -20q-4 -41 -19.5 -76 t-38.5 -64q-43 -57 -96 -99t-115 -77q-18 -10 -37.5 -19t-42.5 -18q-12 -4 -32.5 -7t-36.5 1q-12 4 -19.5 12.5t-7.5 18.5q-1 10 -1 19q0 49 27 93q32 52 64 91q53 59 111.5 111.5t118.5 101.5q-20 18 -56 28q-16 6 -36.5 9.5t-45.5 7.5q-12 2 -25 2t-30 4q-31 6 -57.5 14.5 t-42 24.5t-14 44t23.5 71q8 14 22.5 33.5t22.5 29.5q41 57 88 112.5t88 119.5q12 16 21.5 34.5t13.5 32.5q6 27 -24.5 37t-59.5 10q-31 0 -62.5 -4t-64.5 -10q-61 -12 -136 -29.5t-149.5 -43t-143.5 -60.5t-118 -80q-16 -16 -29.5 -51t-2.5 -62q25 -53 75 -80 q-35 8 -60.5 23.5t-41.5 50.5q-8 18 -8 39q0 15 4 32zM471 53q10 4 20.5 7t20.5 10q27 12 52.5 28.5t49.5 34.5q47 39 84.5 87t49.5 95q2 10 3 18.5t-1 16.5q-80 -68 -154 -141l-45.5 -45.5t-40.5 -46.5q-27 -35 -39 -64zM1184 786q10 10 18 17.5t17 17.5q16 20 30.5 40 t22.5 38q6 18 6 29.5t-10 25.5l-2 2q-2 -2 -2 -3t-2 -3q-14 -16 -26.5 -40.5t-23.5 -49.5q-8 -18 -14 -36.5t-14 -37.5z" />
<glyph unicode="d" horiz-adv-x="1077" d="M-100 1006v73h1214v-73h-117l-4 -9q-61 -176 -107 -355t-73 -363l-4 -39q-17 -112 -27 -224q-3 -33 -3 -65q0 -80 16 -162q-35 104 -47 216q-8 76 -9 150q0 36 2 72q6 111 28 217.5t44 214.5q4 16 7 27.5t7 26.5q-6 -4 -13 -5t-13 -6q-59 -23 -108.5 -37t-110.5 -30 q-8 -39 -36 -93.5t-67 -111.5t-88 -108.5t-102 -83t-109 -36.5q-7 -1 -13 -1q-48 0 -93 32q-23 18 -40.5 46t-26.5 59t-8 62.5t15 60.5t44 59.5t55 46.5q47 31 96 47.5t100 28.5t102.5 21.5t102.5 25.5q12 39 12 78q0 52 -22 102q-23 43 -69 77t-95 54q-2 2 -4 2.5t-6 2.5 h-430zM98 381q6 -33 27.5 -58.5t52.5 -31.5q8 -2 16 -2q20 0 42 12q30 16 59 41t53.5 51.5t44.5 42.5q37 43 57.5 85t41.5 95q-86 -23 -172.5 -47t-163.5 -67q-36 -20 -50 -54q-9 -24 -10 -47q0 -10 2 -20zM461 1006q37 -23 71.5 -51.5t51.5 -71.5q17 -41 17 -82 q0 -38 -5 -88q33 10 69.5 20t71.5 19.5t63.5 17.5t45.5 14l3 6q3 5 9 26.5t18.5 65.5t32.5 124h-448z" />
<glyph unicode="e" horiz-adv-x="1107" d="M8 268q0 35 6 64q2 6 5.5 16t7.5 21q4 10 9 18t9 16q35 43 73 66t72 41q37 16 73 29.5t73 25.5q33 10 64.5 20.5t64.5 20.5q-2 8 0 20.5t2 22.5q3 31 3 61q0 15 -1 30q-2 44 -6 91q-23 -16 -45.5 -31.5t-48.5 -25.5q-60 -25 -122 -25q-21 0 -42 3q-29 8 -55.5 20 t-49.5 33q-23 18 -40 46t-19 60q-4 33 8 59.5t31 45.5q18 18 39.5 29.5t44.5 19.5q40 10 78 10h12q43 -2 84 -12q43 -10 72 -33q14 -10 21 -29.5t5 -29.5q-2 8 -8 21.5t-14 19.5q-16 12 -45 18q-28 5 -57.5 5t-59.5 -5q-29 -4 -53 -12q-6 -4 -10.5 -6t-12.5 -6 q-12 -8 -20 -17q-29 -27 -29 -51q0 -9 4 -18q-2 -16 9.5 -33t29.5 -31t42 -27.5t50 -9.5q86 10 143.5 64.5t73.5 138.5q2 4 7.5 13t31.5 7l21 -141q10 -68 13 -131q1 -27 2 -55q0 -38 -3 -78l31.5 9l31.5 9l29 11q41 16 83 25t81 28q18 10 34.5 19.5t28.5 25.5q2 14 14.5 53 t27 80t28.5 72.5t21 36.5h-281v73h436v-73h-104q-12 -27 -22.5 -66t-19.5 -85t-17.5 -94t-18.5 -93l-100 -459q-8 -27 -14.5 -56.5t-10.5 -69.5q-4 -39 -5 -97v-24q0 -50 3 -116q-47 111 -48 230v13q1 113 17 219q18 112 43 211t33 171q2 -2 -15.5 -12t-43 -23.5t-54 -29 t-49.5 -27.5q-35 -16 -69.5 -33.5t-71.5 -34.5q-4 -43 -13.5 -83.5t-21.5 -84.5q-10 -31 -20 -51q-6 -16 -15.5 -30.5t-19.5 -26.5q-20 -25 -45 -46.5t-49 -37.5q-27 -16 -51.5 -26.5t-55.5 -18.5q-32 -7 -66 -13q-8 -1 -17 -2q-28 0 -64 13q-23 6 -45.5 23.5t-34.5 39.5 q-14 23 -18.5 43.5t-4.5 38.5zM77 244q3 -28 32 -49q11 -9 27 -11q7 -1 14 -1q8 0 16 1q53 6 105.5 34t90.5 63q18 18 35 39.5t25 41.5q12 33 22.5 69t14.5 67q-20 -8 -52 -15.5t-70 -17.5t-78 -24.5t-77 -37.5q-23 -14 -44 -25t-38 -32q-14 -18 -20 -47q-4 -18 -4 -36 q0 -10 1 -19z" />
<glyph unicode="f" horiz-adv-x="516" d="M-6 1006v73h309l16 27h5l16 -2l-4 -21v-4h223v-73h-242q0 -4 -4 -13.5t-12 -51.5t-24.5 -130t-40.5 -250q-8 -47 -17.5 -92t-13.5 -113q-4 -47 -8 -81.5t-9.5 -68.5t-8.5 -72t-5 -91q-1 -11 -1 -23q0 -24 3 -53q4 -43 31 -71q-33 16 -51.5 47.5t-28.5 66.5q-9 32 -9 67v7 v26q0 25 -1 48v27q0 72 9 135q11 73 19 165q12 131 35 265.5t82 255.5h-268z" />
<glyph unicode="g" horiz-adv-x="1169" d="M-18 1006v73h856h299h45v-73h-164q-10 -23 -17.5 -47.5t-17.5 -47.5q-113 -297 -174 -604l-18 -69q-25 -92 -43.5 -169t-32.5 -173q-11 38 -11 116v13q1 88 13 195.5t33.5 219t48.5 201.5q14 47 31.5 101.5t37.5 97.5q-8 -4 -23.5 -12.5t-32.5 -15.5t-32.5 -14t-23.5 -10 q-45 -14 -77 -25t-77 -20q-47 -8 -90 -15t-86 -17q-2 -2 -4 -2t-4 -2q14 -8 26.5 -16.5t28.5 -24.5q27 -29 49 -62q23 -35 34 -78q5 -21 5 -42q0 -23 -6 -48q-16 -35 -43 -55.5t-55 -30.5q-31 -10 -58.5 -10t-56.5 2q-55 4 -106.5 15.5t-104.5 41.5q-20 12 -42.5 26.5 t-39.5 33.5q-16 18 -24.5 37.5t-12.5 50.5q-4 33 7.5 58.5t27.5 43.5q18 20 33.5 34.5t36.5 25.5q0 2 2 2v13t2 17q4 10 9 20.5t15 16.5q18 12 35 13q29 4 48.5 -1.5t39.5 -11.5q12 -4 21 -8q4 2 6 2t6 2q47 10 93 18.5t93 14.5q57 12 117 23.5t113 27.5t97 36.5t73 49.5 q16 16 24.5 30.5t12.5 31.5h-942zM104 553q-1 -1 -1 -3q0 -4 3 -11q4 -12 29 -27.5t47 -32.5q45 -33 100 -51q44 -15 82 -15q9 0 17 1q31 2 56.5 14t37.5 41q6 16 6 35q0 17 -5 36q-11 41 -36 78q-10 18 -27.5 33t-35.5 31q-10 10 -15 10q-29 4 -59.5 -5t-54.5 -19 q-39 -16 -74 -37t-57 -43q-8 -8 -10.5 -19.5t-2.5 -15.5zM123 713q66 31 131 49q-10 4 -21.5 8t-23.5 8q-8 2 -31 2q-8 -2 -19.5 -6t-21.5 -14t-12 -21.5t-2 -21.5v-4z" />
<glyph unicode="h" horiz-adv-x="1032" d="M-25 1006v73h922v19v6v2v2h37v2h10v-2h37v-4q0 -12 -2 -17v-8h115v-73h-131q-4 -8 -5.5 -15.5t-5.5 -15.5q-14 -53 -25.5 -120t-27.5 -120q-25 -76 -51.5 -148.5t-51 -144t-47 -144.5t-38.5 -151l-6 -32q-10 -47 -22.5 -91t-12.5 -92q-1 -9 -1 -18q0 -40 15 -74 q20 -47 76 -53q-25 0 -47.5 11.5t-36.5 33.5q-14 20 -19.5 44t-9.5 46q-4 31 -4 63q0 16 1 31q3 47 7 95q25 182 70 362q12 45 25.5 83t26.5 73t27.5 70.5t33.5 76.5q-135 -115 -293 -166q-20 -6 -39 -10t-39 -6q18 -16 36.5 -34.5t35.5 -41.5q10 -16 19 -36.5t13 -43.5v-35 l-2 -14q-2 -10 -6 -25.5t-8 -25.5q-23 -41 -47.5 -60.5t-61.5 -37.5q-20 -10 -68 -14q-15 -1 -32 -2q-34 0 -72 6q-56 10 -112 33.5t-90 70.5q-31 41 -46.5 78t-19.5 84q-2 19 -2 38q0 28 4 57q6 48 24.5 93t48 83t70.5 64q-53 -68 -70.5 -128t-17.5 -128q0 -121 80 -213 q37 -35 73 -45t91 -16q10 -1 22 -1q23 0 50 3q41 4 63 16q48 27 56 83l2 18q0 47 -35 86q-25 27 -55.5 49.5t-63.5 42.5q-12 2 -24.5 5t-22.5 7l-12 11l20 59l14 4l2 -2l7 -2l18 -12q10 -4 17.5 -9.5t17.5 -9.5q10 -2 28.5 -1t28.5 1h9q40 -1 75 15q39 18 80 38q45 27 91 61 t86 72.5t70 82t42 88.5h-914z" />
<glyph unicode="i" horiz-adv-x="616" d="M-18 1006v73h817v-73h-496q47 -92 91 -175t88 -161t92.5 -157t103.5 -165q29 18 39 41t26 57q8 -15 8 -31q0 -23 -15 -49q-25 -44 -76.5 -84t-120 -69t-131.5 -29q-41 6 -86.5 15.5t-89.5 26t-82.5 39t-67.5 54.5q-62 75 -78 169q-7 41 -7 81q-1 54 11 107 q20 94 70.5 181t118.5 149h-215zM79 565q0 -65 27 -129q27 -61 90 -104q62 -44 137 -62q50 -12 102 -12q25 0 51 3q78 9 132 50q-68 104 -134 224t-136 239q-6 10 -19.5 38t-28.5 61.5t-28.5 69.5t-21.5 63h-4q-10 -16 -21.5 -33t-21.5 -33q-31 -53 -61 -114 q-30 -60 -46 -124q-18 -68 -17 -137z" />
<glyph unicode="j" horiz-adv-x="1050" d="M-16 1006v73h839q4 10 9.5 24.5t5.5 24.5h1q5 0 21 -4q23 -6 68 -10v-2l-6 -33h151v-73h-168q-29 -98 -55 -191q-27 -80 -47.5 -151.5t-37.5 -141t-32.5 -142.5t-30.5 -153l-4 -32q-6 -25 -11 -57t-8 -66.5t-5 -67.5t-2 -57v-16q0 -41 8 -83q10 -51 47 -92 q-43 31 -63.5 79t-30.5 97t-13 100v33q0 34 3 68q4 78 12 140.5t22 140.5l-2 -2q-8 -20 -29.5 -60.5t-56 -84.5t-81 -84t-103.5 -63q-48 -19 -104 -19q-9 0 -19 1q-67 4 -141 50q-78 49 -103 118q-19 52 -19 105q0 19 2 39q9 73 43 143t75 119q35 41 74.5 74.5t87.5 56.5 q45 25 94 36q26 6 51 6q23 0 45 -5q39 -8 75 -34t64.5 -57.5t46 -66.5t17.5 -61q-18 35 -51 72.5t-72 65.5t-82 40q-18 5 -37 5l-49 -9q-63 -25 -130 -87.5t-111 -138t-54 -153.5q-2 -13 -2 -26q0 -61 41 -107q63 -72 123 -85q21 -4 40 -4q40 0 76 17q56 25 104 77t90 109.5 t77 109.5t59 79q25 86 40.5 139t26.5 95t21.5 82t24.5 95q0 2 1 2.5t1 2.5h-827z" />
<glyph unicode="k" horiz-adv-x="860" d="M-18 1006v73h888v-73h-110l-2 -2q-4 -10 -6 -20.5t-4 -20.5l-25 -80l-131 -637l-17 -94q-6 -37 -10 -63t-5 -50.5t-2 -51t0 -65.5q-10 45 -18 74t-11 56.5t-3 59t3 83t8.5 128t13.5 193.5q-12 -12 -27.5 -30.5t-33 -37t-36 -36t-32.5 -27.5q-53 -31 -121 -41 q-21 -3 -42 -3q-46 0 -91 15q-37 12 -66.5 39t-46.5 56q-16 29 -26.5 59.5t-16.5 58.5v16q0 75 18 142q20 74 48 141q16 35 35.5 66t42.5 59q8 8 10 13h-184zM102 624v-10q0 -27 11 -61q12 -41 40.5 -79t63.5 -42q21 -3 41 -3q34 1 64 9q48 14 96 51q53 39 84.5 92.5 t66.5 112.5q27 74 51 157q22 76 21 144v11h-399q-12 0 -22.5 -11.5t-18.5 -27t-14.5 -31.5t-10.5 -29q-18 -47 -36.5 -102t-28.5 -109q-7 -42 -9 -72z" />
<glyph unicode="l" horiz-adv-x="419" d="M-37 1006v73h103q-4 2 -7.5 3t-7.5 5q-8 4 -15 9.5t-13 15.5q-20 27 -30.5 58.5t-10.5 60.5t3 58.5t13 58.5q14 43 48 74.5t69 60.5q41 27 78.5 44t85.5 32q55 16 125 21q15 1 31 2q54 0 102 -15q55 -27 102 -60.5t88 -68.5q59 -57 103 -119t100 -115l33 -33 q8 -8 41.5 -35.5t68.5 -56.5h82v-73h-936l-2 -25q-4 -25 -5 -48.5t-5 -45.5l-10 -68l-15 -125q-6 -35 -6 -75.5t-2 -75.5q-2 -43 -4 -79t-4 -79q-2 -41 -9 -81t-14 -81q-12 -59 -23 -102t-28 -103l-18 -47q-16 -35 -28.5 -65.5t-29.5 -63.5q10 70 11.5 138.5t17.5 136.5 q10 43 16.5 84t14.5 86t11 80.5t3 81.5v22q0 58 8 117q10 71 15 139q6 51 9 102.5t15 98.5q6 20 14.5 38.5t16.5 39.5h-205zM66 1191.5q0 -15.5 10 -32.5q6 -10 11 -17t13 -14q10 -10 35 -24q10 -6 21.5 -12.5t21.5 -10.5l2 2v2l2 2h-2q8 0 4 1.5t13 -1.5l4 -2l2 2h-2h6v-2 q10 -2 17 -2t3 0h2v-2v-2h826q-78 31 -138.5 75t-115.5 103q-41 43 -92.5 92.5t-96.5 86.5q-47 39 -90 51t-96 16q-11 1 -22 1q-28 0 -55 -4q-38 -5 -73 -21t-68.5 -39t-57.5 -51q-20 -18 -38 -40t-30 -44q-12 -23 -14 -45.5t-2 -38.5v-29.5z" />
<glyph unicode="m" horiz-adv-x="356" d="M-612 1006v73h1007v-73h-1007zM-313 594q12 33 38.5 48t51.5 26q54 23 116 23q1 -1 3 -1q64 0 123 -21.5t109 -61.5t81 -95q20 -35 30.5 -72t18.5 -78q5 -25 5 -51q0 -17 -2 -33q-5 -42 -19 -77q-23 -53 -49.5 -94t-53.5 -87q-27 -31 -55.5 -68.5t-50.5 -62.5 q12 45 32.5 91.5t41 92.5t39 93t28.5 94q5 26 5 52q1 50 -17 98q-26 74 -78.5 128t-125.5 82q-49 19 -100 20q-25 0 -51 -5q-25 -4 -48 -18.5t-41.5 -26.5t-27.5 -16q-5 -2 -5 6q0 5 2 14z" />
<glyph unicode="n" horiz-adv-x="1181" d="M-109 1006v73h1321v-73h-145q-16 -117 -41 -235t-51.5 -235.5t-51 -235.5t-42.5 -234q-4 -20 -5.5 -63.5t-1.5 -74.5q-6 12 -11 24.5t-9 30t-9 42t-9 63.5q-9 61 -9 110q1 7 1 14q2 54 6 112q1 12 1 24q-1 48 -13 98q-16 62 -23 109q-4 23 -22.5 53.5t-39.5 34.5 q-16 -6 -40.5 -30.5t-52.5 -58.5t-52.5 -75t-38.5 -80q-12 -35 -17.5 -79t-15.5 -82q-4 -18 -7 -36t-7 -36l-6 -37l-2 -10v-2q29 -10 22.5 -8t-28.5 10v-2l-3 -2v-2q-18 8 -26 13t-15.5 33.5t-16.5 92t-28 186.5q-10 68 -36.5 144.5t-53.5 130.5q-6 14 -13 24.5l-11 16.5 q-2 4 -3 4t-3 2q-2 -2 -5.5 -3t-7.5 -5q-29 -23 -48 -49.5t-48 -67.5q-36 -55 -62 -129q-25 -69 -24 -141v-11q2 -33 12.5 -89t35 -123.5t65.5 -141.5t102.5 -142.5t145 -126t196.5 -91.5q-123 23 -231.5 86t-196.5 155q-43 47 -83 101.5t-70.5 114t-50 124t-21.5 135.5v20 q0 75 26 146q30 80 72 148q23 33 46.5 62.5t51.5 55.5q27 27 62 41q33 12 57 -8q31 -12 54.5 -45t39.5 -67q16 -35 30.5 -73t25.5 -79q18 -57 30 -121q10 23 20.5 44.5t20.5 41.5q31 59 68 110.5t90 100.5l6 6q27 14 60.5 4t44.5 -18q10 -10 19 -22.5t20 -22.5 q10 -18 18 -36.5t14 -37.5q12 -41 19 -84q18 117 37.5 232.5t46.5 251.5h-1080z" />
<glyph unicode="o" horiz-adv-x="1198" d="M-16 1006v73h346q4 10 12 21.5t23 21.5q17 12 37 12h4q17 0 32 -4q27 -10 44.5 -22t31.5 -29h703v-73h-150q-18 -92 -46 -206t-53.5 -227.5t-44 -218t-18.5 -176.5l-6 -250q-12 29 -18.5 42.5t-9.5 24.5t-4 24.5t-3 41.5q-4 35 -7 65t-4 62v17q0 26 2 57q3 41 11 98 q-10 -10 -18 -19t-19 -19q-39 -37 -88 -63t-100 -42t-109 -20q-12 -1 -24 -1q-47 0 -94 13q-57 16 -105.5 46t-89.5 64q-57 53 -104 106.5t-95 100.5l-16 17q12 16 35.5 44.5t66.5 78.5h3l6 -4q6 -4 22 -13q20 -12 47 -18q25 -5 50 -5q30 0 59 7q39 0 78 13t73.5 38t61 59.5 t39.5 81.5q8 32 8 67q0 12 -1 22q-3 48 -22 92h-546zM147 547q41 -68 98.5 -130.5t126.5 -98.5q70 -38 150 -40h7q77 0 161 54q84 51 128 117.5t66.5 143.5t35 158.5t32.5 161.5q4 23 6.5 46.5t4.5 46.5h-396q2 0 2 -2q4 -10 9.5 -19.5t9.5 -19.5q4 -12 4 -21q2 -8 6 -20 q10 -39 10 -77q0 -49 -16 -97q-14 -43 -39 -80t-57 -66q-57 -35 -109.5 -46t-112.5 -17q-20 -2 -63 2t-64 4zM330 1079h155q-6 6 -12 12.5t-14 12.5q-9 10 -27 17q-11 4 -26 4q-8 0 -17 -1q-12 -2 -22.5 -8t-18.5 -14q-6 -4 -10 -10.5t-8 -12.5z" />
<glyph unicode="p" horiz-adv-x="1116" d="M-29 1006v73h326v-73h-326zM-14 494q6 49 24 88q23 41 58 63q-29 -29 -38 -67q-7 -24 -7 -49q0 -14 2 -27q4 -39 17 -75t32 -71q18 -35 29.5 -63.5t37.5 -54.5q12 -14 32 -33t34 -29q16 -10 40.5 -28.5t41.5 -28.5q86 -45 170 -53q16 -2 33 -2q70 0 149 28 q51 18 102.5 55t73.5 80q22 36 22 73q0 8 -1 17q-7 45 -23 86q-14 31 -26.5 58.5t-32 49t-46.5 33.5q-24 9 -60 9h-13q-29 -2 -46.5 6t-45.5 -2q-6 -2 -24.5 -8t-22.5 -8l-86 -19l82 58q49 35 79.5 59.5t53 45t42 42t46.5 49.5q51 53 67 100q4 16 4 30q0 31 -22 59 q-27 33 -72 48t-94 18q-16 1 -32 1q-32 0 -62 -4q-45 -6 -72 -16q-20 -8 -40.5 -22.5t-35.5 -37.5q-14 -23 -23 -50.5t-3 -51.5q-8 18 -11.5 39.5t0.5 44.5t23.5 45t36.5 37q31 27 55.5 37t57.5 20q66 16 134 17q6 1 12 1q62 0 122 -14q53 -23 90 -63q36 -41 36 -85 q0 -13 -4 -27q-14 -60 -55 -113.5t-93 -95.5t-83 -62q6 -4 30 -4t30 -4q53 -20 92 -54t71 -84q33 -49 56 -117q11 -34 11 -67t-11 -65q-33 -94 -100.5 -140.5t-149.5 -77.5q-91 -32 -182 -32q-51 0 -102 10q-142 27 -290 156q-27 31 -47 62.5t-36 66.5l-17 28q-12 45 -18 91 q-4 28 -4 56q0 19 2 38zM883 1006v73h266v-73h-266z" />
<glyph unicode="q" horiz-adv-x="1196" d="M-27 -23q49 135 131 228.5t182.5 165t213 136t225.5 142.5q2 2 19.5 10.5t39 17.5t39 17t19.5 11q-23 6 -55.5 17t-68.5 23.5t-69 24.5t-53 21q-47 18 -106.5 33.5t-121 29.5t-122 28.5t-111.5 28.5q57 0 132 -8t150 -19.5t140.5 -22.5t101.5 -19q47 -10 107.5 -27.5 t105.5 -28.5q8 -4 16.5 -5t16.5 -5q2 23 5 56.5t8 56.5q8 35 14 57.5t10 59.5h-960v73h1249v-73h-244q2 -33 2 -60q0 -21 -1 -40q-3 -42 -9 -82t-12 -82t-9 -99q0 -86 -7 -172t-21.5 -177t-33.5 -190.5t-42 -212.5q-20 23 -24.5 41.5t-4.5 34.5q0 94 7.5 178t17.5 165 t21.5 164t19.5 175q-66 -39 -125 -71.5t-137 -85.5q-47 -35 -92 -57.5t-93 -53.5q-145 -84 -327 -238q-39 -33 -74 -79t-70 -87z" />
<glyph unicode="r" horiz-adv-x="1204" d="M-18 836q46 6 89 6q33 0 65 -4q74 -8 145 -17q72 -10 143.5 -22.5t142.5 -22.5q25 -14 58 -20q10 0 21 3t22 5q10 4 26 8l13 -8l18 -25q0 -8 2 -14q0 -6 1 -10t1 -6q0 -4 2 -23.5t6 -23.5q6 -8 3 -18.5t-3 -14.5l-14 18q-25 4 -48.5 11.5t-45.5 15.5q-33 -18 -70 -30.5 t-65 -31.5q-35 -20 -65 -43.5t-48 -52.5q-8 -12 -12 -32.5t-4 -32.5q2 -14 13 -25.5t23 -22.5q27 -27 67 -47t83 -30q45 -10 92 -11h4q45 0 84 11q59 23 100 56.5t58 68.5q4 10 9 16t9 16q8 53 26.5 102.5t29.5 96.5q16 78 21 165t22 159h-1024v73h991h125h135v-73h-143 q-2 -20 -5.5 -57.5t-8.5 -81.5t-12 -88t-17 -81q-8 -31 -14.5 -56.5t-11.5 -54t-12.5 -62t-17.5 -76.5l-2 -3q-6 -25 -11 -48t-9 -46l-19 -71q-6 -23 -10 -42.5t-7 -38t-7 -38t-11 -43.5q-6 -25 -11 -42.5t-7 -41.5q-2 -23 -6 -52.5t12 -45.5q-16 6 -18 17t-6 28 q-2 12 -3.5 24t-1.5 25q-2 23 -1 51.5t1 50.5q4 47 6.5 91t6.5 91q2 4 2 13q-8 -8 -16.5 -14.5t-18.5 -12.5q-45 -29 -95 -43t-100 -18q-17 -1 -34 -1q-85 0 -168 25q-27 8 -51.5 18.5t-49.5 26.5q-23 16 -46 41t-38 64q-10 29 -6 57.5t13 50.5q4 6 5 11.5t5 9.5q4 14 14 24 q12 23 29 35q31 33 63.5 53.5t67.5 36.5q10 4 37.5 13.5t38.5 13.5q-37 12 -90.5 19t-90.5 20q-90 27 -194.5 45t-181.5 33z" />
<glyph unicode="s" horiz-adv-x="1204" d="M-14 1006v73h682q4 20 6 29q16 -12 20 -29h545v-73h-532q1 -16 1 -34q0 -38 -6 -83q-8 -66 -18 -137l13.5 9t15.5 9q29 14 56.5 22.5t61.5 6.5q31 -2 74 -18.5t72 -37.5q29 -18 45 -37.5t29 -48.5q23 -58 23 -114q0 -58 -13 -113l-10 -45q-47 -121 -136 -213 q-23 -23 -53.5 -48.5t-64 -48t-67.5 -42t-62 -29.5q49 29 97 73t90 95t72.5 106.5t43.5 108.5q14 53 20 115q2 17 2 33q0 42 -12 75q-16 47 -56 79t-85 36q-25 2 -58.5 -7t-62.5 -26q-18 -10 -34.5 -38.5t-29.5 -51.5q-27 -45 -33 -95t-20 -97q-18 -66 -35.5 -130.5 t-36.5 -129.5q-4 -35 -8 -68t-14 -68l-4 -16l-2 -4v-4q-14 39 -19.5 84t-11.5 86q-4 29 -10 70.5t-10.5 80.5t-7.5 68t-1 29q-23 -25 -60.5 -61t-68.5 -48q-35 -12 -72.5 -12t-74.5 10t-70 34.5t-53 61.5t-27.5 77t-7.5 81q0 61 21.5 119.5t56.5 111.5q16 27 41 52 q20 20 49 43q14 10 29.5 18t36.5 14q23 6 47 5t47 -11t38 -23.5t27 -27.5q12 -16 20.5 -29.5t16.5 -29.5q16 -29 25.5 -58.5t17.5 -58.5q6 -25 12.5 -50.5t10.5 -50.5q23 29 46 55.5t52 55.5q14 76 27.5 155t27.5 165h-671zM82 519.5q0 -62.5 22.5 -106.5t71.5 -63 q19 -8 44 -8q37 0 87 18q12 4 29.5 15.5t37 25t38 28.5t28.5 28q2 29 0 57.5t-6 38.5q-6 45 -16 92t-26.5 87t-38 66.5t-48.5 30.5q-21 3 -33 5q-2 0 -3 1q-12 0 -31 -10q-45 -23 -81 -73t-55.5 -110t-19.5 -122.5zM522 373.5q0 -17.5 1 -31.5t1 -20q4 16 10.5 42.5 t11.5 55.5t10 55.5t9 42.5q-10 -10 -21.5 -22.5t-21.5 -22.5v-41v-25.5v-33z" />
<glyph unicode="t" horiz-adv-x="1040" d="M-16 1006v73h1132v-73h-137l-2 -5h-2q4 -20 4 -28v-12q0 -51 -31 -95q-27 -37 -69 -55l-37 -12q-6 -10 -11 -21q-61 -104 -109 -216.5t-71 -231.5q-2 -4 -3 -12.5t-3 -14.5q-18 -72 -22.5 -167t-8.5 -173q-18 31 -27 104.5t-9 164t13 183.5t42 163q23 53 54.5 108 t66.5 102q-29 0 -54.5 1.5t-52.5 3.5q-10 0 -18 1t-17 1h-4h-4h-4h-16q-18 -2 -36 -3t-34 -4q-35 -4 -66.5 -9t-64.5 -13q-47 -8 -94 -25q-25 -10 -45.5 -18t-40.5 -18q-84 -45 -113 -117q-18 -38 -17 -88q1 -14 1 -29q6 -68 28 -135q12 -35 25.5 -69t30.5 -68 q8 -16 25.5 -45t39 -57.5t43 -55.5t37.5 -41q-45 14 -81 44t-63.5 64.5t-49 70.5t-35.5 61q-61 98 -74 215q-1 17 -1 35q0 31 4 63q7 51 28 90q18 41 53 81t76 69q29 20 59.5 31.5t63.5 21.5q35 10 67.5 17t67.5 11q39 4 75.5 4.5t73.5 0.5h37q14 -2 21.5 -3.5l17.5 -3.5 q18 -4 35.5 -6t36.5 -4q29 2 57.5 4t50.5 11q4 4 7.5 8t7.5 8q12 27 24 53.5t27 50.5v2q0 2 -1 3.5t-1 3.5h-903z" />
<glyph unicode="u" horiz-adv-x="1015" d="M-23 1006v73h349q4 2 5 3t5 3q15 13 37 14q4 0 8 -1q16 0 30.5 -5.5t24.5 -13.5h479q4 4 5 4l-2 -4h174v-73h-189q-4 -23 -9 -44.5t-9 -43.5q-10 -16 -6 -37t-5 -37q2 -16 -8 -40t-6 -40q-4 -25 -9 -37t-9 -37q-4 -12 -4 -34.5t-1 -46t-2 -46t-4 -37.5q0 -16 -1 -24 t-4 -15.5t-4 -15.5t-1 -25q-4 -33 -7 -64.5t-7 -64.5q-6 -49 -16.5 -95t-16.5 -93l-2 -10q-8 -27 -14 -54.5t-2 -58.5q-12 27 -16.5 54.5t-8.5 56.5v56.5t2 55.5q10 24 10 49q0 9 -1 17q-2 10 -2 21q0 23 8 46q-1 13 -1 25q0 22 4 43q7 33 7 70q0 53 10 110.5t18 110.5 q2 20 8.5 52t12.5 66.5t12 66.5t10 50q8 18 15.5 28.5t15.5 21.5h-352q8 -10 14 -31t10 -33q8 -35 12.5 -49t6.5 -26.5t4 -33t6 -69.5q2 -16 1 -34q0 -26 -3 -53q-6 -46 -16 -87q-14 -47 -32.5 -102.5t-57.5 -102.5q-18 -23 -52 -42t-63 -30q-24 -9 -55 -9q-27 0 -58 7 q-41 10 -76.5 28.5t-68.5 45.5t-55.5 58.5t-30.5 72.5v25q0 51 26.5 108.5t69.5 87.5q-8 -18 -16 -42.5t-12.5 -51.5t-5.5 -51.5t3 -40.5q10 -35 28.5 -55.5t43.5 -42.5q31 -29 71 -49q27 -14 59 -15q16 0 32 4q27 4 48 11.5t36 27.5q16 20 31.5 42t25.5 44q28 68 46 138 q17 64 16 131v14q0 55 -13.5 114.5t-27.5 90.5h-478zM338 1079h51q-13 5 -27 5q-5 0 -10 -1q-4 -2 -7 -2t-7 -2z" />
<glyph unicode="v" horiz-adv-x="1286" d="M-27 508q-1 8 -1 16q0 33 20 62q10 16 24.5 26.5t26.5 16.5q29 12 54.5 16t52.5 2q49 -8 87.5 -29.5t69.5 -54.5l17 -16l8 6q53 43 100 98.5t55 114.5l7 49q2 14 -3.5 36.5t-13.5 45.5t-19.5 44.5t-19.5 31.5l-28 33h-435v73h285q2 0 6 4q27 17 58 17h10q33 -2 61 -21 h924v-73h-209q4 -23 10 -57q6 -35 8 -75q1 -16 1 -33q0 -27 -2 -57q-3 -50 -17 -100l-6 -72l-8 -71l-4 -54l6 2l-6 -10l-2 -78q-4 -16 -12.5 -42.5t-17.5 -56.5t-17.5 -57.5t-10.5 -43.5q-14 -43 -23.5 -67.5t-15.5 -70.5v-10q-10 -29 -18 -57.5t-12 -56.5q-8 27 -15.5 47 t-11.5 39.5t-7 40t-3 49.5q8 18 17 41.5t18.5 48t19.5 47t20 39.5q-2 10 -2 18v19q-35 -55 -92 -95q-20 -14 -41.5 -24t-44.5 -12q-23 -4 -45 -5.5t-41 3.5q-41 10 -84 38q-20 12 -34.5 35t-24.5 45q-6 28 -6 56q0 10 1 21q3 38 11 73q4 18 9 36.5t11 35.5q6 20 17 34 q4 14 10 21.5t12 17.5q86 90 203 117q41 -4 82 -18.5t70 -42.5q6 -8 11 -14.5t9 -12.5v14q12 35 17.5 94.5t9.5 117t9 99.5t22 44h-635q10 -14 26.5 -36t32.5 -47.5t28.5 -52t14.5 -51.5l6 -74q1 -8 1 -17q0 -38 -16 -76q-18 -46 -44.5 -86t-56 -69.5t-50.5 -43.5l6 -11 q27 -49 42.5 -96t27.5 -93t23.5 -90t29.5 -87l9 -17q29 -53 56 -114.5t64 -110.5q-49 31 -90 75t-76 91q-33 51 -49 93t-32 95q-16 51 -39 111.5t-39 114.5q-48 -23 -102 -29q-12 -1 -25 -1q-41 0 -82 15q-12 0 -23 4l-18 5q-10 4 -19.5 8t-19.5 10q-18 10 -39 27 q-8 10 -16.5 23t-12.5 32zM70 520q0 -4 1 -1t3 -1l10 -10t14 -10l21 -9q8 -4 12 -4q0 -2 2 -2l6 -2q10 -2 20.5 -3t20.5 1q41 0 90 27q-23 16 -48 27.5t-52 15.5q-16 3 -30 3q-19 0 -34 -5q-16 -4 -26 -12.5t-10 -14.5zM291 1079h35q-8 2 -16.5 2t-18.5 -2zM676 335 q0 -32 20 -44q6 -8 13.5 -14.5t17.5 -10.5q2 0 10 -4l13 -2q4 0 10 -1h4l8 1q39 4 84 33q41 27 84 69l8 9q12 8 25.5 15t23.5 15t14.5 31t4.5 31l8 125q-14 23 -36.5 32t-51.5 19q-18 4 -36 11q-8 3 -17 3q-11 0 -23 -4q-23 -6 -43 -10t-37 -21q-20 -18 -34.5 -42.5 t-30.5 -47.5t-22.5 -57.5t-16.5 -62.5v-73z" />
<glyph unicode="w" horiz-adv-x="1026" d="M4 440q-3 17 -3 34q0 20 4 41q7 38 24 71q18 35 41 59q27 31 67 47l19 6l-4 9q-20 47 -28 101q-3 19 -2 38q0 36 9 72q6 29 19.5 54t29.5 48q23 27 47.5 42t48.5 25q35 12 69 16.5t69 6.5q35 -2 69.5 -6t69.5 -19q16 -8 33.5 -20t27.5 -41q8 -25 -2 -47q-8 -20 -20 -35 q-23 -25 -54.5 -42t-66.5 -19q-7 -1 -14 -1q-27 0 -51 12q-30 15 -48 42q-20 31 -20 57q4 33 24 51l3 2q-33 -4 -61 -14t-54 -33q-57 -53 -57 -129q2 -68 38 -129q4 -8 8.5 -15t8.5 -15q10 0 18 -1t19 -3q35 -6 69.5 -19.5t65.5 -38.5q20 -16 41 -45q2 -4 4 -7t4 -7l4 -8 l2 -2v-3q-10 -10 -23.5 -30.5t-29.5 -48.5h-2v2h-2q-18 0 -29 2q-29 4 -55.5 15t-48.5 28q-49 31 -88 84q-29 -4 -45.5 -19.5t-32.5 -42.5q-16 -23 -26.5 -44t-10.5 -50q0 -27 15.5 -56.5t31.5 -52.5q45 -53 103 -65q32 -7 66 -7q28 0 56 5q68 10 125.5 28.5t110.5 65.5 q25 18 48.5 41t45.5 45q4 92 13.5 181t33.5 182q14 37 33.5 72.5t46.5 66.5q8 8 14 15t15 14h-166v73h366v-73h-118q0 -4 2 -5q4 -10 6 -20l4 -20q1 -15 2 -29q0 -25 -5 -50q-7 -38 -18 -75q-12 -37 -27.5 -72t-31.5 -69q-16 -55 -43 -107.5t-61 -99.5q-2 -14 -3.5 -28.5 t-3.5 -31.5l-4 -43q-8 -66 -16 -122t-16.5 -112t-15.5 -113.5t-13 -121.5q-25 45 -30 99q-2 27 -2 54.5t2 57.5q6 58 12 118q4 37 4 74q0 23 -2 46q0 10 8 26q4 8 10 15q-51 -53 -112.5 -96t-135.5 -68q-30 -11 -62 -17q-22 -4 -45 -4q-11 0 -22 1q-35 2 -67.5 11t-63.5 25 q-61 33 -106 84q-23 27 -39.5 58.5t-22.5 68.5zM375 1004q-1 -5 -1 -11q0 -25 23 -49q12 -12 29.5 -14t34.5 -2q35 0 61 20q16 12 27.5 28.5t9.5 24.5q4 4 -11.5 13.5t-35.5 13.5q-49 18 -111 19q-14 -8 -18 -20.5t-8 -22.5zM762 578q4 4 8 12q8 14 16.5 29.5t14.5 27.5 q6 16 12 32.5t12 33.5q12 33 22.5 65.5t14.5 65.5q4 23 7 43q2 12 2 24q0 8 -1 17q-18 -25 -32.5 -54.5t-24.5 -62.5q-18 -55 -29.5 -113.5t-21.5 -119.5z" />
<glyph unicode="x" horiz-adv-x="929" d="M-18 1006v73h1030v-73h-312q14 -10 27.5 -20.5t28.5 -22.5l2 -2q4 -6 4 -15.5t-17 -38.5l-186 -51q-25 -6 -54.5 -22.5t-58 -36t-52 -43t-36.5 -45.5q-20 -29 -4.5 -52.5t47 -40t68.5 -25.5t59 -7q12 1 24 1q48 -1 106 -13q73 -16 128 -62q25 -20 35 -45 q12 -23 19.5 -47.5t5.5 -50.5q0 -53 -30 -97.5t-81 -76.5q-23 -16 -52.5 -16.5t-55.5 7.5q-29 6 -51.5 39t-26.5 56q10 -18 33.5 -41t42.5 -22q39 0 71 28q60 34 76 74q8 20 8 43q0 24 -8 53q-25 43 -65.5 62.5t-88 28.5t-96.5 11t-88 10q-78 -6 -146.5 -37.5t-113.5 -84.5 q-46 -52 -58 -122q-3 -18 -3 -36q0 -55 28 -117q20 -47 62.5 -96t115.5 -70q88 -25 162 -40t140.5 -27.5t129 -23.5t128.5 -28q-27 2 -106 6t-176 11.5t-192.5 23t-152.5 41.5q-59 27 -112.5 65t-90.5 86q-37 47 -49 107q-4 20 -4 41q0 42 16 90q18 59 54 105.5t84.5 77 t103.5 44.5q42 10 87 10q13 0 26 -1q-14 6 -27 16q-25 16 -44.5 41t-19.5 88t45.5 110.5t109 79.5t129 52t108.5 31q-10 10 -18.5 18t-20.5 19h-647z" />
<glyph unicode="y" horiz-adv-x="1077" d="M-35 475v2q6 10 20.5 30.5t24.5 27.5h4q16 -4 25 -5q27 -3 54 -3q77 0 153 25q102 34 180 99q61 49 86 111q12 29 12 60q0 33 -14 67q-16 37 -43 65q-8 -20 -16.5 -40.5t-20.5 -41.5q-16 -29 -39.5 -54t-56.5 -44q-35 -20 -68 -26q-18 -4 -33.5 -4.5t-35.5 4.5 q-35 6 -64 24.5t-51 42.5q-23 25 -40 57q-14 25 -14 51q0 7 1 13q2 35 22.5 68.5t46.5 46.5q29 14 55.5 22t55.5 8q25 0 52.5 -3t51 -11t40 -20.5t20.5 -30.5t-2 -32.5t-17 -25.5q4 14 7.5 31t-13.5 29q-16 12 -38.5 16t-47 5t-46 -1t-36.5 -4q-20 -4 -38.5 -12t-28.5 -18 q-29 -23 -33 -58q-1 -6 -1 -12q0 -28 17 -55q18 -33 53 -51.5t70 -20.5q29 -2 58.5 7t54.5 32t41 47.5t33 56.5q6 12 12 33t14 37l6 14l23 17q23 16 50.5 -12.5t74.5 -118.5q14 -27 18 -56.5t0 -60.5q-6 -59 -37 -113q-29 -49 -71.5 -87t-92.5 -66q-109 -59 -229 -72 q-31 -4 -51.5 -4t-50.5 4q-2 0 -6.5 -1t-6.5 -1q41 -57 85 -93t110 -46q24 -4 49 -4q38 0 77 10q64 16 122 47q59 33 112.5 68.5t92.5 97.5q39 61 59 104t47 105q10 23 19.5 53.5t17.5 61t13 56t9 35.5l15 48h-273v73h482v-73h-99q-2 -4 -2 -9q-2 -4 -2 -8t-2 -8l-33 -98 q-14 -49 -28.5 -85t-28.5 -71t-29.5 -73t-31.5 -91q-31 -96 -48.5 -185t-19.5 -153v-30q0 -46 4 -95q6 -67 53 -125q-25 18 -44 45t-32.5 59t-21.5 66.5t-12 65.5q-3 26 -3 55v14q1 37 3 72t6 64.5t10 48.5v12q-23 -37 -47 -60.5t-61 -51.5q-61 -47 -138 -82t-159 -43 q-10 -1 -20 -1q-53 0 -104 19q-61 21 -108 61q-25 18 -46 41t-40 46q-10 12 -17 24t-18 27l-8 12z" />
<glyph unicode="z" horiz-adv-x="1445" d="M-10 1006v73h436v-73h-436zM-4 458q2 20 13 37t30.5 26t44.5 5l2 -2l8 -4q16 -8 29.5 -15t26.5 -18q49 -31 96 -69q10 -10 19 -17.5t20 -15.5q10 -1 20 -1q63 0 127 22q74 26 139 67q39 25 84 62.5t86 84t73 99.5t44 107q6 27 6 54.5t-6 54.5q-12 54 -59 105 q-34 34 -79 34q-10 0 -18 -1q-56 -8 -102 -55q-29 -31 -50.5 -70t-29.5 -84q-4 -23 -3 -45t9 -45q6 -14 21.5 -35.5t36 -40t46 -27.5t52.5 3l18 8l21 35l12 49l-8 -76q-2 -18 -14.5 -31.5t-51.5 -15.5q-51 0 -101 38t-71 85q-18 41 -20 84v14q0 36 8 70q23 82 74 145 q23 23 50.5 38.5t57.5 23.5q20 4 39 4q17 0 34 -3q36 -7 68.5 -25.5t60.5 -45.5t44 -55l17 -33l14 -51q11 -43 11 -86q0 -32 -6 -62q-15 -72 -57 -139t-103.5 -125.5t-130 -102.5t-140.5 -73t-133 -37q10 -10 21.5 -20.5t21.5 -20.5q61 -68 123.5 -135.5t139.5 -137 t174 -144t226 -154.5q41 -23 91 -33q16 -3 32 -4q33 0 66 14q-42 -29 -93 -29l-1 1q-52 0 -99 14q-47 12 -92 33.5t-86 44.5q-86 49 -166 103.5t-149 119.5q-80 78 -146.5 165t-138.5 173q-11 -1 -23 -1q-56 0 -112 16q-68 20 -123 65l-25 24l-10 13l-4 4v2q-6 14 -6 30v8z M1006 1006v73h473v-73h-179q12 -9 12 -36q0 -24 -16 -73q-20 -37 -34.5 -107.5t-26.5 -190.5t-24.5 -297t-26.5 -427q-6 23 -14.5 40t-15.5 33.5t-12 36t-5 48.5q0 39 1 56t1 27.5t1 23t1 42.5q0 47 4 125t10 160t14.5 153.5t16.5 106.5q2 20 7 47t11 54.5t13.5 53 t13.5 44.5q8 18 13 28.5t9 17.5t8.5 14t12.5 20h-268z" />
<glyph unicode="{" d="M-375 1241q2 57 29 111.5t70 93.5t99 56.5t118 0.5l18 -6l16 -8q29 -14 40.5 -44t19.5 -52q-33 29 -56.5 44t-58.5 11q-27 -2 -50.5 -4t-45 -10.5t-43 -24.5t-43.5 -45q-25 -31 -38 -67.5t-9 -69.5q4 -43 17 -68.5t54 -42.5q10 -2 24.5 -5t25.5 5q10 8 15 21.5t5 25.5 q6 -23 -2 -43q-10 -23 -31 -33q-35 -23 -66.5 -14.5t-56 34.5t-39 62.5t-12.5 71.5z" />
<glyph unicode="|" d="M-1094 -236q45 31 80 72t82 68q29 16 55.5 32.5t55.5 36.5t52.5 36t45.5 44q39 35 82 73t84 73l31 24l8 6l4 2l2 2h2q8 6 5 4.5t-1 0.5q8 4 12 8q16 10 30.5 22.5t31.5 22.5q25 12 50.5 23.5t51.5 21.5q47 23 62.5 14.5t-27.5 -24.5q-16 -10 -29.5 -19.5t-27.5 -25.5 q-20 -23 -53 -41.5t-56 -40.5q-41 -25 -75.5 -57.5t-65.5 -67.5q-23 -25 -55.5 -46.5t-55.5 -47.5q-27 -18 -51 -38t-49 -40q-80 -53 -160 -99l-8 -6q-29 -10 -56.5 -17t-56.5 -16z" />
<glyph unicode="}" d="M-631 1343q2 16 5 31t14 31q10 20 32 31q12 4 23.5 5t21.5 1q18 -2 43 -3t29 -5q4 -2 6 -4.5t6 -2.5q0 -2 5 -2q31 -18 63.5 -41.5t58.5 -48.5q16 -18 21.5 -29.5t21.5 -33.5q6 -10 8.5 -14.5t6.5 -12.5l4 -12t4 -10q4 -12 8 -23.5t10 -23.5l4 -9q6 -12 10.5 -36.5 t10.5 -34.5q4 -6 8 -11.5t10 -3.5q6 -2 12.5 4.5l10.5 10.5q-4 -16 -19 -25q-10 -4 -19 1t-13 9q-10 10 -18.5 22.5t-18.5 24.5q-16 25 -29 52q-4 6 -7 11t-7 13q-4 4 -7 11.5t-5 9.5q-16 29 -35 55.5t-41 54.5q-6 4 -14.5 11.5t-14.5 11.5q2 -4 2 -12q10 -23 16.5 -42.5 t2.5 -48.5q-4 -10 -4.5 -17t-22.5 -28q-6 -6 -15.5 -9t-19.5 -7q-16 -8 -37.5 -6t-40.5 10q-29 10 -48 32.5t-32 49.5q-12 31 -10 63zM-567 1354q-4 -25 2 -39.5t18 -32.5q20 -29 35.5 -33t34.5 2q2 2 8 5.5t10 7.5l2 2l2 2q0 2 2 3t4 5q4 10 3.5 19.5t-0.5 25.5 q0 14 -3.5 22.5t-5.5 22.5q-23 12 -31 13l-24 3q-29 4 -43 -4q-8 -4 -9 -9t-5 -15zM-482 1533q-3 32 9 56q4 10 21.5 24.5t33.5 18.5q20 6 44 5t34 -5q12 -6 29.5 -18t27.5 -25q23 -23 34 -51.5t24 -60.5q10 -29 17 -49.5t13 -49.5q10 -41 14.5 -69.5t20.5 -79.5l10 -29 q8 -25 22.5 -56.5t37.5 -47.5q-12 4 -17.5 4t-8.5 1t-10 6t-21 21q-18 20 -33 44t-21 47q-4 16 -12 38.5t-16.5 46t-16.5 45t-12 35.5q-10 33 -14 65t-21 58q-10 23 -23.5 40.5t-29.5 27.5q-12 10 -33 10q-10 -2 -20.5 -3t-16.5 -5q-18 -10 -18 -31q0 -12 6 -25.5t12 -25.5 q18 -37 58 -29q12 4 13 3t11 10q10 6 8 26q0 16 -12 29q4 -4 8 -6t8 -6l9.5 -9.5t7.5 -15.5t1 -16t-3 -13q-4 -8 -12 -20q-8 -10 -20.5 -15.5t-25.5 -9.5q-23 -2 -45 9q-47 23 -59 51q-10 18 -13 50z" />
<glyph unicode="~" horiz-adv-x="1048" d="M-18 1006v73h1097v-73h-1097zM14 627.5q6 50.5 29 91.5q-8 -43 1 -84t30 -76q18 -35 48 -67.5t56 -61.5q35 -39 76 -70.5t94 -52.5q104 -41 184 23q61 33 84 108q10 37 11.5 70t-9.5 67q-10 51 -27.5 99.5t-53.5 89.5q-16 35 -50 65.5t-69 47.5q-43 10 -88 4 q-12 -4 -23 -9q-6 -4 -8 -5t-6 -15q-4 -6 -8 -15.5t0 -15.5q4 -4 6 -7t4 -7q6 -6 12 -11t10 -10q-10 4 -19 10.5t-22 22.5q-8 10 -7 25.5t10 23.5q6 12 20 21q20 12 37.5 17t36.5 9q14 6 37 7q4 0 9 1t15 -1l19 -7q35 -8 69 -32q18 -23 40 -41.5t38 -38.5t29.5 -42t34.5 -42 q14 -29 25 -59.5t18 -61.5q8 -12 14 -16q10 12 22 22h35q2 0 6 -1t16.5 2t34 10.5t60.5 21.5q16 2 30.5 6t30.5 8l2 2q12 -4 25.5 -5t26.5 -3q-16 -16 -32.5 -24.5t-33.5 -22.5q-39 -10 -69.5 -21.5t-71.5 -19.5q-16 -4 -19.5 -8t-13.5 -6q-16 2 -29.5 2h-25.5l-2 2 q0 -43 -13 -86q-8 -23 -17 -43.5t-21 -40.5q-10 -27 -28 -52.5t-44 -45.5q-49 -43 -117 -56q-61 -4 -118.5 10.5t-108.5 38.5q-72 43 -129.5 102.5t-91.5 137.5l-7 14q-10 51 -4 101.5z" />
<glyph unicode="&#xa1;" horiz-adv-x="897" d="M-16 1006v73h702v2v-2h264v-73h-243q2 -2 2 -5q2 -37 0 -73q-2 -35 -8.5 -71t-24.5 -73q-10 -23 -29 -36l-2 -3l-6 -4q-2 -2 -10 -6q-12 -8 -21 -10q-23 -8 -42 -9t-38 1q-37 4 -70.5 10t-64.5 12q-23 10 -46 16.5t-46 8.5q-51 0 -102 -12q-43 -29 -70 -72t-25 -88 q-14 -66 11.5 -134.5t70.5 -123.5q45 -59 105.5 -107.5t132.5 -70.5q0 10 -1 21t-1 24q6 57 24 110q18 57 60 99q39 39 90 61q25 10 50.5 15.5t47.5 0.5q53 6 90 -36q16 -23 28.5 -49.5t12.5 -55.5q0 -59 -32.5 -111.5t-77.5 -93.5q-41 -31 -80 -47q-25 -10 -47.5 -14 t-46.5 -8q-14 0 -21 -2q-2 -6 -2 -23q-4 -41 -17.5 -84t-41.5 -80l-27 -28q-47 -33 -96 -44.5t-98 -7.5q-25 2 -49.5 9.5t-43.5 23.5q-39 31 -43 80q14 -45 50 -63q33 -18 75 -15q41 4 79 19.5t67 40.5t41 59.5t14 75.5q2 20 0 45q-41 6 -74 20q-88 33 -161.5 92.5 t-126.5 137.5q-18 31 -33 63.5t-25 69.5q-10 35 -11 74.5t9 80.5t32.5 77t53.5 63q29 27 63.5 44t69.5 27q10 4 23.5 5.5t23.5 3.5q31 2 56 0q29 -4 50 -10.5t44 -14.5q41 -14 81 -28.5t79 -12.5q14 0 36 12q8 4 15.5 11.5t11.5 15.5q12 18 20.5 38.5t14.5 43.5q14 47 16 88 q2 8 2 27h-714zM522 150q59 6 105 34q39 25 69.5 61t40.5 70q16 35 11 60q-2 6 -4.5 13t-6.5 15q-6 14 -14 23q-8 6 -16.5 9t-24.5 -1q-33 -4 -64 -28q-51 -33 -73 -80q-10 -27 -14.5 -59.5t-6.5 -67.5q-2 -12 -2 -24.5v-24.5z" />
<glyph unicode="&#xa2;" horiz-adv-x="890" d="M2 0v1079l713 -618h-441l533 -461h-805zM84 203l51 -13l-43 -28l51 2l-32 -41l49 18l-19 -49l41 33l-2 -51l29 43l12 -51l15 51l28 -43l-2 51l41 -33l-18 49l49 -18l-33 41l51 -2l-43 28l51 13l-51 14l43 29l-51 -2l33 41l-49 -19l18 49l-41 -32l2 51l-28 -43l-15 49 l-12 -49l-29 43l2 -51l-41 32l19 -49l-49 19l32 -41l-51 2l43 -29zM84 700q0 -57 40 -97t97 -40t98 40t41 97q0 10 -4 27q-4 -29 -19 -48.5t-38 -31.5l-14 4l30 21l-36 -2l22 28l-35 -12l15 33l-31 -23l2 37l-21 -31l-10 37l-8 -37l-20 31v-37l-29 23l14 -33l-35 12l23 -28 l-37 2l31 -21l-15 -4q-49 27 -57 80q-4 -16 -4 -27z" />
<glyph unicode="&#xa3;" horiz-adv-x="712" d="M-23 1006v73h758v-73h-448q-35 -25 -64 -58q-27 -14 -38 -36.5t-21 -55.5q-12 -31 -16.5 -55.5t12.5 -46.5q10 -37 35.5 -69t62.5 -56q8 -6 15.5 -11.5t17.5 -11.5q0 2 12 -6t16 -10l11 -6h2l-6 -64h-2l-2 -2h-7q-4 -2 -22.5 -9t-22.5 -3q-10 -4 -22 -9t-25 -12 q-53 -39 -88 -84q-18 -23 -30.5 -41t-18.5 -38q-8 -23 16.5 -43.5t62.5 -35t79 -18.5t69 6q37 12 68 26.5t65 43.5l31 25q41 35 81 55t83 57q-27 -47 -59.5 -88t-71.5 -82q-39 -39 -81 -72.5t-95 -62.5q-35 -6 -72 -7t-72 9t-60.5 24.5t-49.5 33.5q-14 10 -28.5 23t-24.5 26 q-27 27 -27 63q-2 39 14.5 74t36.5 65q55 61 129 107q-8 6 -20 14q-35 29 -64.5 70t-42.5 94q-12 51 -5 102.5t30 92.5q35 45 84 82h-185z" />
<glyph unicode="&#xa4;" horiz-adv-x="890" d="M2 0v1079l713 -618h-441l533 -461h-805zM84 203l51 -13l-43 -28l51 2l-32 -41l49 18l-19 -49l41 33l-2 -51l29 43l12 -51l15 51l28 -43l-2 51l41 -33l-18 49l49 -18l-33 41l51 -2l-43 28l51 13l-51 14l43 29l-51 -2l33 41l-49 -19l18 49l-41 -32l2 51l-28 -43l-15 49 l-12 -49l-29 43l2 -51l-41 32l19 -49l-49 19l32 -41l-51 2l43 -29zM84 700q0 -57 40 -97t97 -40t98 40t41 97q0 10 -4 27q-4 -29 -19 -48.5t-38 -31.5l-14 4l30 21l-36 -2l22 28l-35 -12l15 33l-31 -23l2 37l-21 -31l-10 37l-8 -37l-20 31v-37l-29 23l14 -33l-35 12l23 -28 l-37 2l31 -21l-15 -4q-49 27 -57 80q-4 -16 -4 -27z" />
<glyph unicode="&#xa5;" horiz-adv-x="880" d="M-39 1006v73h969v-73h-969zM18 557q-12 -47 2.5 -106.5t61.5 -100.5q31 -29 80 -43t90 -18q72 -6 159 3t163.5 42t131 91t62.5 150q-16 -25 -36.5 -49.5t-45.5 -42.5q-35 -29 -66.5 -45t-66.5 -30q-78 -31 -143.5 -36t-149.5 -5q-184 0 -242 190z" />
<glyph unicode="&#xa7;" horiz-adv-x="1038" d="M-18 1006v73h735q-16 23 -43 35q33 -10 51 -35h330v-73h-297q8 -33 8 -72q2 -12 1 -24.5t-1 -22.5q0 -6 -1 -12.5t-1 -12.5l-2 -12v-6v-2q-6 -4 -3 -2t5 3t-5 -3t-36 -21l-2 2q-23 8 -42.5 14.5t-41.5 10.5q-29 16 -59.5 16h-65.5q-37 0 -69.5 -3t-61.5 -21 q-47 -16 -88 -42t-74 -63q-39 -41 -50 -97t-26 -112q-4 -35 -2 -58.5t9 -57.5q6 -35 16 -66t27 -55q23 -53 55.5 -89t89.5 -57q84 -35 179 -36t185 28l19 8q57 12 110.5 38t100.5 67q-33 -45 -83 -88t-107.5 -76t-118 -49.5t-111.5 -5.5q4 -20 1 -39t-7 -41q0 -6 -35 -47 l-20 6q4 -2 -13 4l-6 4q-4 2 -7 4t-7 4q-12 8 -25.5 14.5t-27.5 12.5q-35 10 -84.5 8t-81.5 -20q-33 -12 -49.5 -31t-32.5 -49q-20 -31 -29.5 -63t12.5 -62q68 -72 160 -86q10 -4 21.5 -7.5t21.5 -5.5t22.5 -3t22.5 -3q25 -2 48.5 -3t45.5 -1q70 -4 138.5 4t134.5 33l12 6 q41 10 79 29.5t73 48.5q-49 -72 -126 -113t-163 -61q-104 -14 -215 -13t-207 60q-39 16 -76 43t-59 72q-23 45 -17 96q2 25 11.5 48.5t23.5 43.5q45 57 115 89t135 11q31 -10 71 -20t62 -33q2 -2 4 -3t4 -3l4 -4l3 -2l8 -2q4 6 12 20.5t8 20.5q2 18 0 39q-94 29 -187 70.5 t-159 119.5q-27 29 -43 65t-27 74q-10 59 -10 121t17 121q33 125 125 217q72 66 164 94.5t184 24.5q66 -12 121 -37q27 -10 55 -29q4 0 6 -2q0 6 2 9q8 29 12 57.5t2 58.5v9h-757z" />
<glyph unicode="&#xa8;" horiz-adv-x="1705" />
<glyph unicode="&#xa9;" horiz-adv-x="1388" d="M21 631q-7 76 14 147q31 90 105.5 155.5t181.5 98.5q88 27 184 31q31 27 69.5 42t81.5 17q86 6 187 -30q174 -66 309 -207v-2q29 -39 59.5 -94t34.5 -121q12 -117 -22 -224q-23 -117 -99 -211q-78 -96 -192 -143q-84 -31 -176 -31h-10q-84 4 -183 33q-174 53 -325 174 q-119 100 -177 219q-35 70 -42 146zM92 713q-2 -94 55 -185v-2h3q59 -125 200 -229q72 -53 150 -91t155 -61q23 -4 43.5 -6t42.5 -2q80 0 155 28t132 81v2q72 57 113 144t37 181q-2 29 -6.5 65t-16.5 69q-23 55 -72 116q-47 53 -104 99.5t-121 81.5l6 14l-28 12l-7 -12 q-92 47 -163 53q-45 4 -80 -8q23 -2 47 -3t49 -5l-2 -31q-141 6 -262 -25q-143 -39 -223 -122q-43 -35 -66 -74q-23 -33 -37 -90zM432 543q-2 25 4 69q4 25 12.5 44.5t18.5 35.5q61 84 162 135l2 2h2q29 8 69.5 11.5t81.5 -11.5q20 -6 35 -20t23 -31q6 -18 6 -35.5t-2 -29.5 h-31q-2 12 -7 27.5t-20 21.5v2q-10 4 -28.5 4t-38.5 -8h-4h-2q-27 2 -68 -4q-12 -12 -21.5 -26.5t-19.5 -29.5v-4h-4q-47 -43 -65 -75q-4 -6 -6.5 -11.5t-4.5 -11.5q-2 0 -2 -4v-2l-2 -2v-4v-4q-2 -2 -2 -4.5t-2 -4.5v-2q-6 -29 -6 -53q18 -61 74 -80h2h2q20 -14 48 -19 t62 -3q100 0 174 57l11 -12l6 6l-6 14q57 29 88 82l26 -10q-10 -70 -59 -125q-23 -29 -51.5 -50.5t-61.5 -37.5l-2 -2h-2q-14 -2 -28.5 -3t-28.5 -1q-59 0 -109 18q-37 -4 -83 3t-87 44h-2q-49 53 -53 144z" />
<glyph unicode="&#xaa;" horiz-adv-x="925" d="M-20 1006v73h962v-73h-307q-2 -6 -3 -13.5t-3 -13.5q-4 -23 -9.5 -47.5t-9.5 -48.5q-12 -49 -24.5 -97.5t-34.5 -99.5q-16 -16 -32.5 -31.5t-45.5 -25.5q-16 -4 -28.5 1t-18.5 11q-82 45 -148.5 72.5t-89.5 25.5h-14q-16 -4 -22 -6q-20 -6 -25 -14q-2 -4 -11.5 -15.5 t-6.5 -19.5q2 -16 24.5 -42t42.5 -42q27 -23 61.5 -36t72.5 -20t76 -10.5t73 -9.5q41 -6 83 -15t89 -32q20 -12 40.5 -30.5t37.5 -40.5q16 -25 26 -53.5t15 -57.5q2 -29 2 -54.5t-7 -47.5q-4 -12 -10 -23.5t-10 -24.5q-23 -51 -58.5 -84.5t-78.5 -58.5q-29 -16 -59.5 -26.5 t-59.5 -18.5q-123 -31 -246 -12l-24 4q-39 6 -71 30.5t-58 51.5q-53 57 -58 127q25 -57 85.5 -88t117.5 -35t101 -8t104 6q20 2 51 16t62.5 32.5t59.5 39t42 35.5q29 31 39 70.5t-12 82.5q-18 37 -52 60q-35 20 -59.5 33.5t-65.5 19.5q-57 14 -128.5 19t-137.5 28 q-31 8 -67 29q-10 4 -18.5 9t-16.5 11l-31 25q-33 29 -55 71q-14 25 -17 56q-6 35 11 71q12 29 30.5 45.5t36.5 26.5q16 10 32.5 16.5t33.5 10.5q43 10 80 0q39 -6 63 -21q29 -12 50.5 -25.5t41.5 -27.5q18 -12 40 -25.5t32 -3.5q18 23 34.5 49.5t32.5 55.5q8 14 13.5 35.5 t10.5 45t10 45t12 38.5h-598zM617.5 611.5q0.5 27.5 13.5 45.5q10 12 28.5 21.5t35 13.5t28.5 2t10 -12q-4 -16 -18.5 -16t-28.5 -11q-10 -8 -14 -18q-4 -8 -6 -14.5t0 -12.5q4 -8 5 -12t7 -10t10 -6t14 2q12 4 16.5 6t10.5 12t17.5 18.5t15.5 18.5q6 16 7 30.5t-9 18.5 l-2 2q-10 4 -25.5 6t-17.5 17q-2 12 17.5 11t33.5 -5q16 -4 29.5 -15.5t15.5 -27.5q0 -20 -6 -36.5t-12 -31.5q-8 -14 -18.5 -25.5t-22.5 -27.5q-25 -20 -56 -20q-16 0 -32.5 5t-28.5 21q-18 23 -17.5 50.5z" />
<glyph unicode="&#xab;" d="M-1055 -432q49 35 93 64.5t87.5 59t83 63.5t80.5 77q33 35 75 80t56 94l7 19v4l2 2v2q-4 0 3 0t19 -1t25.5 -2t19.5 -5q6 -10 12.5 -18.5t10.5 -16.5q16 -35 30.5 -68t30.5 -65q23 -47 48.5 -90t64.5 -74q18 -23 49 -44.5t65 -31.5q-70 -4 -126 27q-31 16 -50.5 34.5 t-36.5 47.5q-18 31 -34.5 66.5t-32.5 70.5t-32.5 65.5t-35.5 53.5q-2 2 -5 -5.5t-15 -28t-34.5 -54t-61.5 -84.5q-78 -96 -180.5 -150.5t-217.5 -91.5z" />
<glyph unicode="&#xac;" horiz-adv-x="1116" d="M-29 1006v73h963q2 4 2 7.5t2 7.5v-15h217v-73h-211v-55.5t-4 -53.5q-10 -18 -13 -36.5t-14 -35.5q6 -18 6.5 -37.5t4.5 -37.5q-4 -29 -9.5 -56.5t-11.5 -56.5q-8 -31 -16 -60.5t-19 -58.5v-156q-10 -37 -17 -71.5t-15 -69.5q-16 -51 -29.5 -101t-24.5 -104l-2 -10 q-6 -16 -13 -30.5t-13 -30.5l-4 -8h2l30 -15l-30 -2h-15h-2h-2q-16 16 -11 12t1 0v5v8q-2 16 -2 31.5v31.5q-4 61 0 127q20 35 33.5 69t36.5 68q-2 41 3 82t3 82q8 59 15 119.5t11 120.5q6 29 11.5 57.5t9.5 57.5q-80 -23 -159 -48.5t-161 -48.5q-10 2 -20 2t-21 2 q27 -37 35 -73q37 -37 53.5 -96.5t-8.5 -122.5q-10 -23 -28.5 -42.5t-40.5 -33.5q-45 -27 -101 -31q-25 -2 -50.5 0t-47.5 6q-51 10 -92 31q-66 35 -117 90t-76 127q-8 53 1 103.5t32 91.5t57 71l19 12l2 3q2 -4 0 -7q10 4 22.5 8.5t-0.5 0.5l-2 -2l-2 -3l-8 -12 q-10 -10 -17.5 -23.5t-13.5 -25.5q-25 -53 -20 -117q-12 -49 -10 -104q39 -39 84 -62q51 -57 116 -84q35 -16 75 -26t79 -6q47 18 65.5 56t12.5 75q4 37 -10.5 73.5t-42.5 63.5q-4 4 -9.5 10t-11.5 10q-4 2 -6 4.5t-6 4.5l-6 4v2q2 16 0 6t-3 -15.5t3 14t18 97.5h2h4 q18 4 36.5 5t37.5 3q37 4 73.5 9.5t75.5 9.5l15 4l86 -4t86 -6q2 12 3 25.5t3 25.5q35 74 63 158h-942zM117 836q12 6 15 7l3 1l-2 -1t0 1v-2h-2l-4 -4l-6 -4q-2 0 -2 2h-2z" />
<glyph unicode="&#xad;" horiz-adv-x="548" d="M25 418q-2 92 14 184t33 178q29 117 82 222.5t157 177.5q41 29 88 43t84 4q-59 -4 -108 -49q-104 -104 -161.5 -236.5t-81 -277t-20.5 -294t21 -286.5q8 -49 28.5 -103.5t51.5 -104.5t74 -90t98 -58q-47 -4 -94 16t-84 53q-74 57 -112 133t-53 159t-15 168t-2 161z" />
<glyph unicode="&#xae;" horiz-adv-x="800" d="M-12 1006v73h317q14 10 31 17q29 10 63 4q12 -4 23.5 -9.5t21.5 -11.5h365v-73h-297l2 -2q6 -10 11 -23.5t14 -46.5q10 -39 1.5 -86t-30.5 -76q-29 -35 -64.5 -62.5t-75.5 -50t-80 -40t-75 -27.5q-29 -4 -49.5 -8t-48.5 -4h-27h-6q0 -8 -4 -25q4 -63 24.5 -117.5 t59.5 -85.5q29 -39 72 -63.5t96 -34.5q37 -10 101.5 -17.5t130 10t119.5 71t73 161.5q12 -53 0 -110q-12 -59 -49 -105q-37 -47 -89.5 -67.5t-111.5 -30.5q-74 -10 -139.5 -2t-124.5 35q-31 12 -60.5 31.5t-58.5 39.5q-61 45 -98 113q-23 55 -26 113.5t5 115.5l2 6v3v2 q-4 -4 10.5 8t30.5 25.5t24.5 19.5t-10.5 -8h2h13q6 2 12 2t12 2q12 2 23.5 4t23.5 4q23 6 46.5 12t46.5 15q53 18 96 37.5t73.5 46t45 64.5t8.5 95q-2 12 -6 24.5t-8 24.5q-2 2 -2.5 3.5t-2.5 3.5h-456z" />
<glyph unicode="&#xaf;" horiz-adv-x="1255" d="M57 520q0 115 42 215.5t116 175t174 116.5t217 42t217.5 -42t175 -116.5t116.5 -175t42 -215.5q0 -117 -42 -217t-116.5 -174t-175 -116t-217.5 -42t-217 42t-174 116t-116 174t-42 217zM143 520q0 -100 35 -185t96.5 -148.5t146.5 -100.5t185 -37t185.5 37t146.5 100.5 t97 148.5t36 185q0 98 -36 184.5t-97 150t-146.5 100t-185.5 36.5t-185 -36.5t-146.5 -100t-96.5 -150t-35 -184.5zM408 203v635h243q109 0 158 -45t49 -131q0 -41 -12 -73t-35 -53.5t-51.5 -34t-61.5 -18.5l189 -280h-90l-181 280h-131v-280h-77zM485 551h105q35 0 69.5 2 t61.5 12t43 33t16 64q0 33 -12 54t-33.5 33.5t-48.5 16.5t-57 4h-144v-219z" />
<glyph unicode="&#xb0;" horiz-adv-x="1263" d="M96 528q0 117 43 218.5t117 175t174 115.5t213 42q109 0 201 -33.5t159.5 -95t106.5 -146.5t39 -188q0 -90 -31 -168.5t-80 -138t-110.5 -93.5t-124.5 -34q-39 0 -66.5 25.5t-34.5 75.5h-2q-35 -35 -84 -67t-104 -32q-47 0 -84 17.5t-62.5 47.5t-39 68.5t-13.5 83.5 q0 78 26 155t72 138.5t111.5 99t145.5 37.5q49 0 91 -28.5t66 -95.5l37 96h80l-143 -428q-8 -25 -12.5 -47.5t-3.5 -40t9.5 -27.5t26.5 -10q49 0 95.5 34.5t80 88t55 119t21.5 129.5q0 92 -33.5 164.5t-92 122.5t-135.5 77t-163 27q-104 0 -191 -38t-149.5 -104.5 t-96.5 -156.5t-34 -195q0 -100 36 -188t98.5 -153.5t150.5 -102.5t188 -37q55 0 109.5 14.5t105.5 40t94 61t76 83.5h76q-33 -61 -83 -110.5t-110.5 -84.5t-128 -52.5t-139.5 -17.5q-121 0 -222 43t-175 118t-115 177.5t-41 218.5zM408 408q0 -66 34.5 -105t89.5 -39 q51 0 96.5 36t79 89t53 114.5t19.5 110.5q0 27 -11 51.5t-27.5 44t-36.5 32t-43 12.5q-57 0 -103.5 -35t-80.5 -86t-52 -111.5t-18 -113.5z" />
<glyph unicode="&#xb1;" horiz-adv-x="948" d="M-8 504q12 10 19 12l14 4q12 4 20 4q10 2 19.5 3t19.5 1q23 0 68 -6t97 -9t103 -2t88 17q0 23 -1 58t-1 71.5t1 74.5t5 67q10 23 19.5 47t19.5 47q6 10 11.5 21.5t15.5 19.5q4 4 6 4h2l6 -6q2 0 4 -2v-2q0 -2 -1 -2t-1 -2q0 -4 -1 -7.5t-1 -7.5q-6 -72 -11 -169t-15 -179 q0 -8 2 -10q43 8 86 15t88 12q41 2 82 9t82 9h8q27 -8 52.5 -15.5t51.5 -17.5q-33 -16 -87 -26.5t-114.5 -17.5t-119 -15t-101.5 -23q-8 0 -20 -4l6 -31q-6 -55 -10 -86.5t-8 -63.5t-7.5 -77t-5.5 -129q-14 18 -24 31.5t-18.5 26t-13.5 26.5t-9 39q10 25 14 56.5t5 64.5 t3 65.5t6 61.5q-49 -12 -104 -25l-35 -2h-20l-19 2h-67q-23 12 -46.5 24.5t-48.5 22.5q-12 4 -23 10.5t-26 10.5l-12 4l-12 4h-17h-9t-15 -8zM514 932q2 2 2 4q0 -2 -2 -4zM516 938v2v-2zM516 940q2 0 2 -2v2h-2z" />
<glyph unicode="&#xb6;" horiz-adv-x="1171" d="M-18 1006v73h1214v-73h-420q6 -35 -8 -64q-10 -16 -21.5 -28.5t-21.5 -22.5q-41 -35 -81 -60.5t-81 -48.5q59 12 122 18.5t128 -1.5q37 -4 74 -16.5t71 -37.5q35 -23 58.5 -61.5t30.5 -79.5q0 -53 -18.5 -98t-43.5 -84q-78 -111 -181.5 -200t-240.5 -136q-20 -4 -33 -4 v-72q-4 -4 -2 -2l3 3t-3 -3l-20 -20h-2l-8 2h-17h-16t-16 -2q-59 -2 -130 -23q-27 0 -45 -12t-45 -16q-23 -16 -39 -24.5t-32 -29.5q-29 -23 -54.5 -54.5t-15.5 -61.5q8 -37 41 -60.5t68 -50.5q47 -25 90 -41t90 -10q45 0 73.5 20.5t59.5 52.5q23 23 40 46.5t19 52.5 q0 29 -6 52.5t-35 39.5l-14 6q-35 23 -79 34t-91 15q45 6 89 6t91 -12q23 -8 44.5 -19.5t37.5 -29.5q37 -37 43 -94q-10 -66 -46 -110t-81 -73q-47 -29 -107.5 -41t-119.5 -2q-45 10 -86 31t-78 47q-18 12 -35.5 27.5t-34.5 36.5q-16 20 -27 46.5t-9 55.5q2 47 25.5 80 t51.5 55q29 23 60 40.5t61 29.5q47 10 92 14t91 2q43 0 90 -10q2 0 4 -1t6 -1h2q-2 -2 6 5t4 3v8l4 23l8 41q-70 -4 -137 16.5t-123 61.5q-63 47 -110 106q-25 31 -44.5 71t-23.5 87q-2 35 6 69.5t23 63.5q16 29 34.5 52.5t41.5 43.5q41 41 86 73t90 60q70 29 137.5 51.5 t132.5 51.5q16 8 30.5 15t31.5 18q14 10 27 23t22 34q2 6 2 13v14h-774zM199 387q16 -55 63 -111q45 -53 100 -88q76 -35 154 -25.5t143 48.5q68 29 125.5 79t98.5 111q31 45 50 94.5t15 96.5t-33 80t-84 51l-20 6q-59 25 -127 34t-137 11q-4 -4 -12 -8q-53 -6 -104.5 -30.5 t-96.5 -62.5t-80 -85t-53 -96q-18 -51 -2 -105z" />
<glyph unicode="&#xba;" horiz-adv-x="622" d="M6 1092q0 49 14.5 92t43 75.5t69.5 51t96 18.5q59 0 103.5 -18.5t74 -51t45 -75.5t15.5 -92t-15.5 -92.5t-45 -76t-74 -51t-103.5 -18.5q-55 0 -96 18.5t-69.5 51t-43 75.5t-14.5 93zM72 1092q0 -33 11 -67t31.5 -58.5t50.5 -41t71 -16.5t72.5 16.5t51 41t30.5 58.5 t11 67t-11 66.5t-30.5 58t-51.5 42t-72 17.5q-41 0 -71 -17.5t-50.5 -42t-31.5 -58.5t-11 -66z" />
<glyph unicode="&#xbb;" horiz-adv-x="872" d="M147 244v137l193 182l-193 182v138l273 -256v-127zM477 244v137l193 182l-193 182v138l273 -256v-127z" />
<glyph unicode="&#xbc;" horiz-adv-x="1708" d="M98 1196v80q55 2 99.5 6t77 18.5t54 44t31.5 82.5h82v-866h-96v635h-248zM272 -68l928 1553h96l-925 -1553h-99zM885 205v80l436 581h90v-581h139v-80h-139v-205h-96v205h-430zM979 285h336v442h-4z" />
<glyph unicode="&#xbd;" horiz-adv-x="1708" d="M98 1196v80q55 2 99.5 6t77 18.5t54 44t31.5 82.5h82v-866h-96v635h-248zM272 -68l928 1553h96l-925 -1553h-99zM983 0q2 100 50 165.5t117 116t145.5 93.5t136.5 98q39 37 59 74t20 90q0 41 -17 71.5t-46 52t-67 33t-81 11.5q-55 0 -94 -19.5t-63.5 -52.5t-34.5 -75 t-10 -87h-97q-4 141 72 227.5t236 86.5q129 0 214 -62.5t85 -193.5q0 -55 -19.5 -99.5t-52.5 -81t-76 -67.5t-88 -57q-33 -20 -76 -44t-84 -52.5t-73.5 -64.5t-44.5 -83h508v-80h-619z" />
<glyph unicode="&#xbe;" horiz-adv-x="1708" d="M16 844h97q-4 -98 55 -159.5t170 -61.5q43 0 86 12t75.5 35.5t53 58.5t20.5 78q0 86 -66.5 129t-158.5 43h-72v80h72q33 0 67 9t61.5 27.5t45 47t17.5 67.5q0 80 -60.5 118t-140.5 38q-100 0 -153.5 -59.5t-51.5 -151.5h-96q2 129 80 210t221 81q57 0 110.5 -13.5 t95.5 -41t66.5 -70.5t24.5 -102q0 -72 -41 -123.5t-117 -67.5v-4q92 -12 142.5 -68.5t50.5 -142.5q0 -66 -27 -117t-71 -84.5t-104 -51t-128 -17.5q-154 0 -244 76.5t-80 224.5zM354 -68l928 1553h96l-925 -1553h-99zM885 205v80l436 581h90v-581h139v-80h-139v-205h-96v205 h-430zM979 285h336v442h-4z" />
<glyph unicode="&#xbf;" horiz-adv-x="1329" d="M-41 1006v73h1401v-73h-506q10 -12 17.5 -25.5t15.5 -26.5q27 -53 37 -116q-4 -59 -20.5 -114.5t-39.5 -102.5q27 16 57.5 26t65.5 6q25 -2 48.5 -14t41.5 -29q45 -39 63.5 -91t15.5 -107.5t-27.5 -106.5t-67.5 -88q-10 -10 -30.5 -17t-42 -12.5t-41 -5.5t-32.5 6 q57 2 102.5 49.5t67 110t15.5 123.5t-53 92q-18 12 -41 23.5t-45 11.5q-14 0 -32 -1t-28 -11q-33 -29 -46 -49.5t-36 -55.5q-35 -59 -78 -108t-96 -92q-43 -33 -82 -56q12 -16 21 -24q41 -51 77.5 -101.5t75.5 -97.5l17 -20q23 -29 47 -51.5t53 -41.5q14 -10 40 -12t42 2 q8 2 36.5 8.5t60.5 14.5t59.5 17t33.5 15q-6 -8 -30.5 -20t-54 -24.5t-57.5 -22.5t-36 -17q-16 -10 -51 -12t-55 2q-41 12 -72 36t-59 48q-66 61 -126.5 125t-109.5 135q-37 -12 -75 -23t-75.5 -17.5t-76.5 -5.5t-80 18q-51 18 -91 56t-69 81l-12 24v2l-2 3q-14 39 2 58 t27 26l6 4q2 2 10 6q12 4 23.5 10t25.5 10q49 18 107 19q55 0 105 -18.5t91 -45.5q33 -23 59.5 -46t51.5 -50q33 23 61.5 47.5t54.5 48.5q47 45 89.5 104.5t74 122t49 120t15.5 98.5q0 35 -6 68.5t-23 64.5q-4 10 -9 18t-13 19h-836zM74 344l4 -6q6 -10 13 -18.5t15 -18.5 q29 -33 64 -51q51 -35 114 -33t122 25q4 4 10 5t12 5q-6 8 -12 14t-10 15q-33 39 -70 66.5t-78 38.5t-85 4t-89 -40q-8 -4 -10 -6z" />
<glyph unicode="&#xc0;" horiz-adv-x="1024" d="M0 504v119h1024v-119h-1024z" />
<glyph unicode="&#xc1;" horiz-adv-x="1228" d="M94 463v110l1041 480v-113l-914 -422l914 -422v-110z" />
<glyph unicode="&#xc2;" horiz-adv-x="1228" d="M94 -14v110l914 422l-914 422v113l1041 -480v-110z" />
<glyph unicode="&#xc6;" horiz-adv-x="665" d="M-6 983q37 -4 68.5 10.5t54.5 36.5q43 10 78 45q14 51 -7 88q-10 29 -34.5 52.5t-49.5 35.5q-6 4 -12 6.5t-8 2.5q-2 -2 -6 -17q-4 -10 -8 -14t-7 -8q-4 -12 13 -23q14 -10 35 -10q10 -4 20 0q6 2 12.5 5t12.5 13q-8 -16 -16.5 -20t-16.5 -8q-16 -6 -33 -7q-20 0 -37 9 q-18 8 -26 30q2 16 9 26.5t13 20.5q-2 10 0 24.5t17 25.5q29 8 46 -1.5t31 -19.5q31 -29 50 -61q18 -16 30 -39q8 -10 11.5 -26.5t5.5 -29.5q-6 -51 -39 -94q-47 -59 -119 -75l-8 -3q-23 0 -43.5 7.5t-36.5 17.5zM82 1260h2h-2zM209 971q49 0 90 24.5t68 59.5q27 12 51 31.5 t43 48.5q2 35 -8.5 64.5t-28.5 51.5q-12 18 -27 33q2 -12 0 -31q0 -8 -2 -12l-2 -6q2 2 -3 -3t-11 -9t-8 -7.5t4 3.5h-2h-4q-6 -2 -23 -2q-16 8 -30.5 19t-20.5 28q-33 10 -49 49q0 33 16 57q20 31 60 31q33 -2 57 -25q10 -10 19.5 -19t17.5 -20q27 -18 51.5 -46.5 t34.5 -65.5q6 -37 0 -73t-23 -69q-51 -92 -147 -127l-10 -4q-31 -4 -61 2.5t-52 16.5zM315 1315q0 -20 13 -23q4 -16 22 -22q8 -4 10 -4q2 2 2.5 3t2.5 3q4 10 4 19t2 20q-2 2 -3 2t-3 2q-8 6 -16.5 10t-14.5 8q-20 4 -15 -2q0 -2 -2 -6t-2 -10z" />
<glyph unicode="&#xc7;" horiz-adv-x="929" d="M72 350v70h182l35 244h-174v71h182l49 348h78l-49 -348h221l49 348h78l-47 -348h164v-71h-174l-35 -244h166v-70h-174l-50 -350h-77l47 350h-221l-48 -350h-79l49 350h-172zM332 420h221l35 244h-221z" />
<glyph unicode="&#xcb;" horiz-adv-x="923" d="M-18 1006v73h811h172v-73h-150v-7q2 -29 0 -55q-2 -6 -2 -13t-2 -13q-2 -2 -4 -15q0 -4 -4 -12q-4 -12 -7 -24.5t-10 -26.5q-6 -12 -17 -27.5t-32 -24.5q-23 -6 -37 -5t-28 3q-12 2 -24.5 3.5t-24.5 5.5q-35 12 -69 19t-73 3q-41 -4 -71.5 -15t-59.5 -32 q-23 -14 -37 -27.5t-24 -33.5q-23 -37 4 -76q14 -20 31.5 -37.5t46.5 -30.5q29 -14 56.5 -24.5t57.5 -14.5q41 -6 80 -12t80 -18q20 -6 40 -13.5t42 -17.5q20 -10 40.5 -24.5t39.5 -43.5q18 -31 14 -69q-6 -37 -26 -62q-16 -23 -36 -38t-38 -25q-20 -12 -39.5 -21.5 t-38.5 -17.5q-2 -16 -15.5 -57t-52.5 -119q-14 -23 -26 -62t-21.5 -82t-14.5 -85t-5 -70l2 -6q-6 -29 8 -60q-35 29 -43 73t-2 87q6 53 16.5 84t18.5 59q6 20 14 40t17 40q14 39 37.5 77t41.5 73q-12 -4 -23 -8.5t-24 -8.5q-23 -6 -46 -11t-46 -9q20 -20 27 -51 q6 -31 -2 -59.5t-23 -55.5q-16 -31 -36.5 -61.5t-51.5 -51.5q-29 -20 -60.5 -29.5t-66.5 -13.5q-49 -6 -93 1t-91 26l-10 4q-25 18 -48.5 40.5t-33.5 49.5q39 -35 81 -43t89 -16q31 -4 66.5 -9.5t70.5 5.5q35 8 56.5 28.5t43.5 42.5q16 16 28.5 33.5t16.5 36.5q2 10 3 17 t-1 18q-2 18 -10 28q-6 16 -27.5 25.5t-52.5 13.5q-23 4 -48 7.5t-52 -1.5q-27 0 -51 -12q-12 -6 -25.5 -17.5t-17.5 -31.5q0 16 6 28.5t14 22.5q12 14 33 29q-59 12 -107 43l-22 14q-57 51 -80 125q-10 35 -13 69t1 66q10 -61 43 -116.5t84 -85.5q49 -31 104.5 -35 t114.5 -6q37 -2 68.5 -4.5t62.5 0t62.5 8.5t68.5 22q18 8 47 15.5t45 21.5t30.5 31.5t16.5 36.5q2 16 -1 30.5t-17 24.5q-16 10 -32.5 17.5t-35.5 13.5q-27 12 -55.5 20t-56.5 17q-14 4 -28.5 6t-29.5 6q-10 0 -30 4q-10 2 -17.5 3t-15.5 3q-33 6 -65.5 17.5t-65.5 27.5 q-16 10 -30.5 20.5t-31.5 26.5q-14 16 -26.5 36t-18.5 44q-8 37 4.5 72t30.5 59q20 27 44 44.5t48 29.5q49 25 101.5 37t103.5 8q35 -2 68.5 -13.5t64.5 -23.5q16 -4 29.5 -9t25.5 -9t21.5 -2t19.5 14q14 20 25 53q8 20 9 32.5t1 29.5q0 12 -1 21t-1 18h-794zM640.5 645.5 q5.5 24.5 21.5 40.5q10 12 31.5 19.5t39.5 7.5q-16 6 -16 20q2 12 15 13.5t29.5 -5t32 -18.5t21.5 -27q8 -18 2 -38.5t-12 -34.5q-12 -29 -43 -50q-12 -4 -24.5 -9t-28.5 -5q-8 0 -16.5 1t-18.5 5q-8 4 -15.5 11.5t-11.5 15.5q-12 29 -6.5 53.5zM680 633q2 -18 8 -29 q4 -4 14.5 -8t20.5 0q12 2 21.5 9t15.5 16q16 16 19 41.5t-11 35.5q-2 -2 -2 -3t-2 -3q-6 -12 -20.5 -16l-29 -8t-25.5 -11.5t-9 -23.5z" />
<glyph unicode="&#xcc;" horiz-adv-x="980" d="M-35 1006v73h924v2v-2h121v-73h-103q-6 -39 -8 -58.5t-5 -39t-8 -50.5t-18 -92q-6 -23 -12 -55.5t-12 -68.5t-11.5 -69.5t-7.5 -56.5q-4 -35 -10 -68.5t-2 -68.5q-4 -43 -5 -87t-5 -87l-4 -78l-21 -139l-20 18q0 41 -1 88t-7 88q0 72 2 110t0 56q-2 23 4 76t10 115 q2 8 2 24q-10 8 -22.5 15.5t-22.5 17.5q-59 4 -116.5 -8.5t-112.5 -32.5q-90 -35 -166 -84q10 -2 21 -4t22 -6q35 -39 49 -94.5t-2 -110.5q0 2 -8.5 -24.5t-34.5 -57.5q-12 -16 -30.5 -29.5t-39.5 -19.5q-23 -8 -42 -8t-36 4q-16 4 -43.5 14t-56.5 33q-16 14 -30.5 31.5 t-22.5 44.5q-6 25 -3 50t13 48q20 41 48 70.5t54 50.5q49 39 72 47q8 4 30.5 17.5t56.5 29.5t75 31.5t84 21.5q43 8 85 10.5t73 0.5q27 0 40 -4.5t17 -8.5q-35 29 -62.5 51.5t-58.5 49.5q-51 45 -102 71q-8 4 -14.5 6t-14.5 7l-6 4h-2q-4 0 -4 2l-15 4q-16 6 -30.5 10 t-30.5 8q-57 27 -111 39q-29 8 -57.5 10t-56.5 -4q-18 -10 -33 -27.5t-23 -33.5q-12 -37 4 -64q4 -18 20.5 -34.5t37.5 -26.5q10 -6 21.5 -9t23.5 -7q8 -2 20 -2q4 0 21 4q43 10 78 39q35 23 52 53t-5 65q14 -4 27.5 -9t23.5 -17q10 -31 -1 -60.5t-30 -52.5q-35 -47 -90 -76 l-8 -4l-8 -4t-11 -4q-12 -4 -31.5 -9t-41.5 -3q-23 2 -44.5 8t-41.5 16q-39 20 -60 56q-4 6 -11 17t-13 28q-6 16 -9.5 36.5t3.5 42.5q4 23 17 45.5t30 38.5q16 16 38.5 31t47.5 21q49 12 92 8t78 -10q35 -8 57.5 -16.5t30.5 -12.5q10 -4 34.5 -16.5t59.5 -34.5 q35 -23 69.5 -58.5t69.5 -68.5q39 -39 58.5 -55.5t42.5 -38.5q6 -6 13 -12.5t11 -10.5q4 53 6 80t6 39q2 12 16.5 71.5t33.5 124.5q8 25 15 48.5t13 44.5h-899zM123 303q-6 -39 20 -65q8 -8 13 -11q6 -6 6 -4q4 -2 5 -3t5 -3q14 -8 35 -12q39 -18 78 -6q37 14 59 55 q21 37 21 78q4 35 -7.5 69.5t-35.5 63.5q-10 -4 -17.5 -10t-15.5 -13q-49 -27 -95.5 -58.5t-70.5 -80.5z" />
<glyph unicode="&#xcd;" horiz-adv-x="964" d="M-10 1006v73h1005v-73h-170v-7q2 -29 0 -55q0 -10 -4 -26q-2 -2 -4 -15q0 -2 -1 -5t-1 -7q-4 -12 -8 -24.5t-10 -26.5q-6 -12 -16.5 -27.5t-32.5 -24.5q-20 -6 -36 -5t-28 3q-33 4 -49 9q-37 12 -71 19t-72 3q-39 -4 -71 -15t-61 -32q-23 -14 -37 -27.5t-24 -33.5 q-23 -37 4 -76q14 -20 32.5 -37.5t45.5 -30.5q29 -14 56.5 -24.5t60.5 -14.5q39 -6 78.5 -12t80.5 -18q20 -6 40 -13.5t40 -17.5t41 -24.5t39 -43.5q18 -31 14 -69q-6 -37 -26 -62q-16 -23 -35.5 -38t-38.5 -25q-39 -23 -74.5 -37t-74.5 -27q-23 -6 -45.5 -11t-44.5 -9 q-2 -29 -10.5 -65t-18.5 -70q35 20 75 37.5t89 17.5q18 0 26 -2q8 0 25 -4q23 -2 49 -17q29 -14 45 -36q18 -25 19 -58v-24q-10 -33 -28 -55.5t-40 -41.5q-45 -35 -96 -47q43 23 74.5 62t39.5 82q6 41 -30 61q-16 8 -39 11t-43 1q-25 4 -52.5 -1t-56.5 -15 q-20 -8 -38.5 -15.5t-37.5 -17.5q-4 -10 -5 -22.5t-5 -22.5q-2 -4 -4 -9t-4 -9v-35q0 -39 -6 -78l-2 -8v-6q-12 2 -6 1t11 -2t-1 0t-45 11v-2v-2h-2t-6 2v2v2q-8 2 -17.5 4t-21.5 6h2v2v2l6 15q2 10 4 17t4 17q8 10 10 23v37q-31 -20 -57 -29q-31 -10 -65.5 -12t-71.5 14 q-25 14 -44.5 42t-17.5 63t23.5 61.5t50.5 40.5q55 25 117 16q35 -4 61.5 -26.5t42.5 -50.5q4 -6 6 -13.5t7 -13.5q4 8 5 15.5t5 17.5q10 29 17 58.5t11 62.5q-47 -6 -96 -7q-59 2 -119.5 14.5t-113.5 45.5l-23 14q-57 51 -80 125q-10 35 -13 69t1 66q10 -61 43 -116.5 t84 -85.5q51 -31 105.5 -35t113.5 -6q37 -2 69 -4.5t62.5 0t62 8.5t68.5 22q20 8 49 15.5t43 21.5q16 14 31 31.5t17 36.5q2 16 -1.5 30.5t-17.5 24.5q-16 10 -32.5 17.5t-34.5 13.5q-27 12 -55.5 20t-57.5 17q-14 4 -28.5 6t-28.5 6q-10 0 -31 4q-10 2 -16.5 3t-16.5 3 q-68 12 -129 45q-37 20 -63 47q-14 16 -26.5 36t-16.5 44q-10 37 2 72t32 59q18 27 42 44.5t48 29.5q49 25 101.5 37t103.5 8q37 -2 70 -13.5t63 -23.5q16 -4 30.5 -9t27.5 -9q10 -4 19 -2t20 14q10 10 15 23.5t9 29.5q8 20 10.5 32.5t-0.5 29.5q0 12 -1 21t-1 18h-796z M154 -63q4 -23 20 -35q35 -25 86 -15q41 -2 88 25q-4 20 -11 36.5t-20 28.5q-12 16 -30.5 22.5t-40.5 6.5q-51 0 -80 -26q-16 -20 -12 -43zM650.5 645.5q5.5 24.5 21.5 40.5q10 12 31.5 19.5t39.5 7.5q-16 8 -16 20q2 12 15.5 13.5t29.5 -5t31.5 -18.5t21.5 -27 q8 -18 2 -38.5t-12 -34.5q-12 -29 -43 -50q-12 -4 -24.5 -9t-28.5 -5q-8 0 -16.5 1t-16.5 5q-23 10 -29 27q-12 29 -6.5 53.5zM692 633q0 -16 6 -29q4 -4 14.5 -8t20.5 0q14 2 22.5 9t14.5 16q16 16 20.5 41.5t-12.5 35.5q0 -2 -1 -3t-1 -3q-6 -12 -21.5 -16t-29.5 -8 t-24.5 -11.5t-8.5 -23.5z" />
<glyph unicode="&#xce;" horiz-adv-x="964" d="M-20 1006v73h1009v-73h-170v-7q2 -29 0 -55q-2 -6 -2 -13t-2 -13q-2 -2 -4 -15q0 -2 -1 -5t-1 -7q-4 -12 -8 -24.5t-10 -26.5q-6 -12 -17.5 -27.5t-32.5 -24.5q-20 -6 -35.5 -5t-29.5 3q-12 2 -24.5 3.5t-22.5 5.5q-37 12 -71 19t-73 3q-74 -6 -131 -47 q-23 -14 -37 -27.5t-24 -33.5q-23 -37 4 -76q14 -20 32.5 -37.5t45.5 -30.5q29 -14 56.5 -24.5t60.5 -14.5q39 -6 77.5 -12t79.5 -18q20 -6 41 -13.5t41 -17.5t41 -24.5t39 -43.5q18 -31 14 -69q-6 -37 -26 -62q-16 -23 -36 -38t-38 -25q-23 -14 -46.5 -24.5t-45.5 -20.5 v-37q-4 -8 -9.5 -15.5t-9.5 -15.5q4 -8 8.5 -15t8.5 -18q-2 -12 -4 -24.5t-4 -22.5q-6 -31 -15 -53q2 -8 2 -27q2 2 4 2l-4 -4q2 -10 2 -18t2 -19q-4 -16 -5 -30.5t-3 -28.5q-8 -41 -8 -88v-4q-4 -14 -6 -28.5t-2 -28.5q-14 25 -22.5 50t-12.5 54q6 16 14.5 32.5t16.5 33.5 q0 4 -1 8t-1 8q-10 -16 -19.5 -29.5t-23.5 -27.5q-12 -4 -24.5 -8.5t-27.5 -6.5q-12 -2 -25 -1t-24 5q-27 -8 -49 4q-27 8 -39 35q-8 16 -9 35t1 35q2 10 3 18.5t5 16.5q0 8 6 18q2 6 4.5 10t6.5 9q20 25 46.5 41t59.5 26q25 2 49.5 -3t42.5 -17l13 -13v9q4 18 6 36.5 t2 36.5q8 12 13 25.5t9 28.5q-10 -4 -17 -6.5t-18 -6.5q-111 -33 -231 -33q-10 0 -18.5 1.5t-18.5 1.5q2 -6 2 -19v-10l-2 -2v-2v-6q-4 -8 -7 -16.5t-7 -16.5q8 -29 2 -70q-27 -41 -64 -73l2 -5q37 -43 60.5 -86t50.5 -82l6 -8q12 -27 28.5 -50t41.5 -46q-29 10 -55.5 28.5 t-49.5 41.5t-42 44t-40 44q-8 25 -16 49t-22 47q-27 -12 -58 -18.5t-61 0.5h-13q-4 2 -12 2q-6 2 -22 6q-6 2 -11.5 4t-11.5 6t-12 10t-10 15q-8 23 6 38q10 12 26 23q27 14 60 14q29 0 52.5 -8t43.5 -22q4 -2 5 -3t5 -4l4 5q29 23 46.5 54.5t19.5 59.5q6 8 6 21q4 6 0 20 q-2 8 -6 21q-76 12 -141 51l-23 14q-57 51 -80 125q-10 35 -13 69t1 66q10 -61 43 -116.5t84 -85.5q49 -31 104.5 -35t114.5 -6q37 -2 68.5 -4.5t62.5 0t62.5 8.5t68.5 22q18 8 48 15.5t44 21.5q16 14 30.5 31.5t16.5 36.5q2 16 -1 30.5t-17 24.5q-16 10 -32.5 17.5 t-35.5 13.5q-27 12 -55.5 20t-56.5 17q-14 4 -28.5 6t-29.5 6q-10 0 -30 4q-10 2 -17.5 3t-15.5 3q-33 6 -65.5 17.5t-63.5 27.5q-37 20 -64 47q-14 16 -26 36t-17 44q-10 37 2.5 72t30.5 59q20 27 44 44.5t48 29.5q49 25 101.5 37t103.5 8q35 -2 69 -13.5t64 -23.5 q16 -4 30.5 -9t27.5 -9q10 -4 19 -2t20 14q10 10 15 23.5t9 29.5q8 20 10 32.5t0 29.5q0 12 -1 21t-1 18h-800zM39 -94q0 2 2 0q6 -6 16 -8q4 0 6.5 -1t6.5 -1q2 -2 6 -2h2h2q12 -4 24 0q25 2 50 18q-33 14 -60 14h-19t-18 -4q-18 -8 -18 -16zM383 -109q2 -18 10 -35.5 t21 -21.5q8 -8 18 -10h6h6h13q18 2 47 20q10 8 21.5 17.5t21.5 19.5l4 6q15 7 27 17q-2 6 -3 16q0 18 1.5 36.5t3.5 37.5q-25 20 -56 18q-10 4 -22.5 5t-24.5 3q-16 -16 -28 -34q-25 -14 -41 -39q-8 -10 -14.5 -24.5t-10.5 -31.5zM640.5 645.5q5.5 24.5 21.5 40.5 q10 12 31.5 19.5t39.5 7.5q-16 6 -16 20q2 12 15 13.5t29.5 -5t32 -18.5t21.5 -27q8 -18 2 -38.5t-12 -34.5q-12 -29 -43 -50q-12 -4 -24.5 -9t-28.5 -5q-8 0 -16.5 1t-18.5 5q-8 4 -15.5 11.5t-11.5 15.5q-12 29 -6.5 53.5zM680 633q2 -18 8 -29q4 -4 14.5 -8t20.5 0 q12 2 21.5 9t15.5 16q16 16 19 41.5t-11 35.5q-2 -2 -2 -3t-2 -3q-6 -12 -20.5 -16l-29 -8t-25.5 -11.5t-9 -23.5z" />
<glyph unicode="&#xcf;" horiz-adv-x="1034" d="M-23 1006v73h1086v-73h-232v-7q2 -29 0 -55q-2 -6 -2 -13t-2 -13q-2 -2 -4 -15q0 -2 -1 -5t-1 -7q-4 -12 -8 -24.5t-10 -26.5q-6 -12 -17.5 -27.5t-31.5 -24.5q-20 -6 -36 -5t-30 3q-12 2 -24.5 3.5t-22.5 5.5q-37 12 -70.5 19t-72.5 3q-74 -6 -131 -47 q-23 -14 -37.5 -27.5t-24.5 -33.5q-23 -37 4 -76q14 -20 32.5 -37.5t45.5 -30.5q29 -14 56.5 -24.5t60.5 -14.5l78 -12t80 -18q20 -6 40.5 -13.5t40.5 -17.5t41 -24.5t39 -43.5q18 -31 15 -69q-6 -37 -27 -62q-16 -23 -35.5 -38t-38.5 -25q-10 -6 -20 -11.5t-21 -11.5 l-6 -45l-16 -90h-2q-14 -66 -31.5 -128t-34.5 -124l-4 -16q-18 -45 -34.5 -91t-26.5 -96q-8 90 4 177.5t24 173.5q-10 -16 -21 -33t-26 -33q-18 -18 -39.5 -35.5t-48.5 -29.5q-25 -16 -55.5 -25.5t-59.5 -13.5q-31 -4 -64.5 -5.5t-72.5 15.5q-18 8 -34.5 23.5t-20.5 33.5 q-6 20 -3 38t11 32q20 35 53 57q-33 20 -45 45q-20 33 -6 68q16 35 53 57q-35 12 -67 31l-23 14q-57 51 -80 125q-10 35 -13 69t1 66q10 -61 43 -116.5t84 -85.5q49 -31 104.5 -35t114.5 -6q37 -2 69 -4.5t62.5 0t62.5 8.5t68 22q18 8 48 15.5t45 21.5q16 14 30.5 31.5 t16.5 36.5q2 16 -1 30.5t-18 24.5q-16 10 -32.5 17.5t-34.5 13.5q-27 12 -55.5 20t-57.5 17q-14 4 -28.5 6t-28.5 6q-10 0 -31 4q-10 2 -17.5 3t-15.5 3q-33 6 -65.5 17.5t-63.5 27.5q-37 20 -63 47q-14 16 -26.5 36t-16.5 44q-10 37 2 72t30 59q20 27 44 44.5t49 29.5 q49 25 101 37t103 8q35 -2 69 -13.5t65 -23.5q16 -4 30.5 -9t26.5 -9q10 -4 19.5 -2t19.5 14q10 10 15 23.5t9 29.5q8 20 10.5 32.5t0.5 29.5q0 12 -1 21t-1 18h-816zM195 63q-10 -20 4 -40q10 -16 37 -31q25 10 53 20q6 2 22 6l11 2l6 3h2q-4 31 -1 15.5t7 -42.5l4 2h2 q0 2 1 -6t3 -16.5t3 -13.5t-1 5h-2l-4 -2h-2q6 -29 4 -24h-2h-45q-4 2 -10 2q-14 -6 -26.5 -12.5t-22.5 -16.5q-37 -27 -37 -55q-4 -33 49 -39q25 -4 51.5 -1t50.5 7q59 23 99.5 63.5t66.5 87.5q33 45 47 91q4 12 7.5 24.5t7.5 22.5q2 6 2 11t2 11q-115 -31 -228 -31 q-29 2 -57.5 4.5t-56.5 8.5q-18 -10 -31.5 -24.5t-15.5 -31.5zM726 649.5q5 24.5 22 40.5q10 12 31.5 19.5t39.5 7.5q-16 6 -16 20q2 12 15 13.5t29.5 -5t32 -18.5t21.5 -27q8 -18 2 -38.5t-12 -34.5q-12 -29 -43 -49q-12 -4 -24.5 -9.5t-28.5 -5.5q-8 0 -16.5 1t-18.5 5 q-8 4 -15.5 11.5t-11.5 15.5q-12 29 -7 53.5zM766 637q2 -18 8 -29q4 -4 14.5 -8t20.5 0q12 2 21.5 9.5t15.5 15.5q16 16 19 41.5t-11 35.5l-4 -6q-6 -12 -20.5 -16l-29 -8t-25.5 -11.5t-9 -23.5z" />
<glyph unicode="&#xd0;" horiz-adv-x="634" d="M-37 1006v73h762v-73h-303q-4 -16 -6 -30.5t-8 -29.5q-23 -49 -63 -100t-71 -80q-12 -12 -31.5 -29.5t-42 -48.5t-48 -77.5t-50.5 -116.5q-12 -33 -11 -67t7 -65.5t16.5 -60.5t18.5 -51q45 -88 124 -164t177 -168q66 -57 140.5 -110.5t152.5 -94.5l238 -129 q-125 29 -254 87.5t-251 144.5t-230.5 198.5t-190.5 247.5q-31 49 -33 114.5t2 121.5q10 47 34 82.5t48 70.5q55 84 120.5 140.5t127.5 128.5q35 39 53 86h-428z" />
<glyph unicode="&#xd1;" horiz-adv-x="1417" d="M-16 1006v73h1458v-73h-426q70 -33 114 -84q16 -20 31 -45t21 -54q16 -76 -20 -146.5t-93 -117.5q-39 -33 -96.5 -68.5t-121 -67.5t-126.5 -56.5t-115 -32.5q49 -25 97.5 -50.5t97.5 -52.5q129 -78 254 -159.5t252 -167.5q170 -127 366 -221q96 -45 197.5 -78t206.5 -43 l43 -2q61 -6 124 1t122 36q59 27 107 71.5t83 102.5q-29 -59 -69 -109.5t-95 -87.5q-55 -35 -119.5 -53.5t-130.5 -22.5q-133 -6 -251.5 18.5t-235.5 80.5q-72 35 -146.5 83t-136.5 95q-66 47 -132 93t-132 93q-135 92 -270 167t-281 146q-18 10 -35.5 18.5t-33.5 16.5 q-68 -10 -135.5 -12t-137.5 6q-33 4 -65.5 11.5t-63.5 23.5q-35 14 -61 43q-12 14 -21.5 32.5t-11.5 39.5q-2 10 -2 20t4 23q6 29 33 39q23 10 42 9t36 -5q35 -6 65.5 -17.5t58.5 -23.5q63 -23 124 -47.5t120 -53.5q47 8 93 17.5t94 23.5q57 16 128.5 43t138 66t119 88 t68.5 113q14 51 -6 104q-12 27 -31.5 49.5t-42.5 40.5q-49 41 -118 64h-236l-12 -7q-31 -16 -56.5 -42.5t-40.5 -61.5q16 55 64 94q8 8 20 17h-675zM63 469h3h-3zM70 461q2 -6 6 -15q8 -10 28 -24q41 -23 97.5 -30t113.5 -7q6 0 11.5 1t9.5 1q-53 25 -109.5 46.5 t-109.5 33.5q-29 6 -47 4v-10z" />
<glyph unicode="&#xd2;" horiz-adv-x="1224" d="M-18 1006v73h1028q2 2 4 2t4 2l8 4l8 5q18 8 47 3t37 -16h150v-73h-117v-9q4 -25 3 -44t-5 -40q-16 -72 -39 -131t-45 -118q-25 -59 -50.5 -114.5t-51.5 -113.5q-41 -80 -81 -159.5t-77 -159.5q-35 -80 -67.5 -165t-49.5 -190q-12 -47 -3 -96t44 -78q18 -14 35.5 -14 t44.5 -4t53.5 -6t55.5 -2q-51 -12 -106.5 -21.5t-109.5 15.5q-47 23 -63 77t-21 119q-4 57 9.5 128t36.5 120q57 131 111 235.5t102.5 202t85 198.5t61.5 228q4 23 4 48.5t-10 48.5q-12 -8 -23.5 -15.5t-21.5 -15.5q-78 -53 -133.5 -129t-106.5 -158t-91 -170t-71 -180 q-4 -10 -6 -17.5t-6 -17.5q0 -2 -2 -3t-14.5 1t-40 6t-80.5 14v3q6 12 9 25t7 28q12 55 0 112q-6 25 -29.5 58t-55 62.5t-68.5 47t-68 11.5q-33 -6 -57.5 -32t-41 -58.5t-26.5 -67.5t-12 -62q-4 -49 9 -100t36 -100q12 -25 38.5 -61t59.5 -72.5t67 -69.5t60 -51 q-23 10 -50.5 28.5t-56 41t-54 45t-39.5 38.5t-31 40t-33 50.5t-29.5 52t-21.5 48.5q-16 41 -24.5 87t-0.5 95q2 25 10.5 48.5t18.5 43.5t21.5 39t27.5 37q29 23 61.5 41t67.5 23q51 6 98 -15.5t86 -58.5t68 -83t45 -89q35 68 66.5 118t62.5 92t63.5 82t69.5 89 q2 4 25.5 28.5t50.5 54t49.5 53t26.5 28.5h-946z" />
<glyph unicode="&#xd3;" horiz-adv-x="954" d="M-12 1006v73h983v-73h-107l-2 -21q0 -16 1 -30.5t1 -30.5q2 -31 2 -64t-4 -65q-6 -66 -22.5 -131.5t-48.5 -126.5q-2 -6 -11 -19q-16 -86 -29.5 -171t-23.5 -171l-2 -24q-16 -66 -29.5 -131.5t-23.5 -131.5q-10 125 -10 250t6 252q-4 -4 -6.5 -5t-6.5 -5 q-68 -63 -138.5 -88t-142 -22t-143 25.5t-139.5 53.5q-2 -39 4 -84q12 -117 82 -221q23 -29 53.5 -49.5t61.5 -38.5q94 -53 194.5 -97t200.5 -87q98 -41 197.5 -70t204.5 -33h20q61 -8 124.5 -1t117.5 55q-39 -55 -101.5 -83t-126.5 -30q-96 -2 -220 21.5t-253 68.5 t-253 108.5t-218 141.5q-29 25 -47 49q-10 12 -19.5 25.5t-19.5 27.5q-37 53 -60.5 118t-29.5 132q-2 59 15.5 132t46 146.5t66.5 143.5t79 128t80 98t71 55h-374zM94 391q94 -37 191.5 -44t183.5 19.5t155.5 89t110.5 165.5q10 20 18.5 40.5t16.5 43.5q4 72 8 144.5 t8 143.5q0 8 -2 13h-364q-51 -66 -99.5 -131.5t-91.5 -135.5q-16 -33 -31.5 -57.5t-29.5 -51t-28.5 -61.5t-26.5 -90q-8 -27 -12.5 -44t-6.5 -44z" />
<glyph unicode="&#xd4;" horiz-adv-x="1841" d="M-25 1006v73h1917v-73h-204v-29q-4 -68 -20.5 -132.5t-39.5 -125.5q-41 -88 -96 -170t-141 -141q-16 -78 -25.5 -162t-9.5 -183q0 -33 -3 -65.5t-3 -67.5v9l2 -25q0 -8 9 -7t21.5 5t24.5 11t18 14q-14 -16 -28.5 -26.5t-38.5 -25.5l-12 -4q-4 2 -13.5 9.5t-19.5 41.5 q-8 33 -12.5 58.5t-8.5 58.5q-8 66 -2 132.5t10 131.5q4 16 8.5 32.5t8.5 33.5q-53 -14 -107.5 -10t-99.5 37q-29 18 -49.5 44.5t-32.5 55.5q-10 31 -14 67q2 -18 -20.5 -52t-52.5 -67.5t-60.5 -63.5t-46.5 -40q-55 -43 -119 -78q104 -70 196.5 -149.5t184.5 -159.5 q113 -109 230.5 -210t254.5 -161q45 -23 99.5 -36t109.5 -23q111 -20 225 -31q115 -10 228.5 -9t226.5 18l45 8q66 10 131.5 29.5t118.5 60.5q27 20 48 47t32 59q14 33 17 68t-1 70q16 -70 2 -138q-16 -70 -67 -121q-49 -53 -113 -82.5t-129 -50.5q-135 -39 -271.5 -48 t-273.5 -5q-84 14 -166 31.5t-162 42.5q-82 23 -153.5 65.5t-134.5 96.5q-147 88 -276.5 200.5t-262.5 221.5q-49 43 -99 85t-104 78q-53 -39 -115.5 -64.5t-134.5 -35.5q-66 -4 -130 12.5t-121 46.5q-29 16 -55.5 37t-49.5 47q-25 29 -37 64q-6 18 -6 40.5t10 45.5 q14 23 35 35t39 18q35 8 76 8q35 0 71 -6q29 -4 68 -10q70 -12 134.5 -39t123.5 -61q27 -14 43 -21.5t41 -23.5q35 20 59 43q37 27 56.5 39t36 24t36 32.5t58.5 63.5q39 49 66.5 99.5t39.5 115.5q6 33 10.5 72t0.5 74q-4 31 -21.5 64.5t-44.5 56.5h-965zM93 379q1 0 1 -4 q0 -10 12 -29q18 -29 53.5 -52.5t73.5 -39.5q80 -35 166 -31q96 2 191 47q-39 23 -79 43.5t-81 36.5q-29 10 -58.5 19.5t-60.5 15.5q-14 4 -28.5 5t-30.5 3h-8h-2h-2h-4l-3 2h-14q-10 2 -31 2q-29 2 -55.5 -2t-36.5 -12q-4 -4 -3 -4zM999 1006q9 -9 11 -13 q20 -27 30.5 -54.5t14.5 -55.5q10 -57 6 -111.5t-19 -107.5q-4 -20 -4 -24.5t-8 -23.5q2 -12 4 -34.5t6 -34.5q10 -20 18.5 -43t24.5 -37q31 -31 76 -43q41 -10 88 0q39 -2 90 14q23 57 40.5 117.5t37 123t43 126t58.5 125.5l25 37.5t28 38.5h-570zM1407 481q37 49 66 109 q35 45 60.5 96.5t45.5 104.5q20 49 34.5 101t20.5 105l-4 -4q-12 -16 -22.5 -31.5t-20.5 -31.5q-41 -70 -67 -137q-35 -66 -59.5 -135.5t-43.5 -141.5q-4 -8 -5 -16t-5 -19z" />
<glyph unicode="&#xd5;" horiz-adv-x="1388" d="M-18 1006v73h305v-73h-305zM0 228.5q4 29.5 12 62.5q23 59 76 83.5t107 39.5q61 18 126.5 37.5t127 46t117 59.5t96.5 80q84 78 73 190q-4 49 -35.5 95.5t-72.5 64.5q-27 20 -59.5 27.5t-71.5 -6.5q-37 -14 -72 -40t-45 -67q-12 -41 8.5 -87t54.5 -81q37 -35 85 -56.5 t106 -23.5q-86 -10 -164 33q-37 18 -69.5 46t-55.5 69q-10 20 -16 42.5t-6 45.5q0 25 7 48.5t17 41.5q23 41 55.5 67.5t71.5 45.5q33 10 66.5 9t62.5 -11q74 -29 127 -74t81 -102.5t26 -125t-39 -137.5q-31 -55 -92.5 -102t-142.5 -87t-173 -74t-182 -60 q-27 -10 -50.5 -21.5t-37.5 -25.5q-29 -29 -17.5 -56.5t39.5 -48.5q29 -27 76 -47t98 -37q51 -16 103.5 -28.5t107.5 -22.5q41 -10 80 -17.5t86 -23.5q41 -14 79 -27.5t79 -27.5q78 -31 154.5 -61.5t152.5 -65.5l33 -13q45 -29 88 -56t84 -64q6 -6 18 -23q4 -6 9.5 -14 t1.5 -23q-4 -14 -12.5 -18t-14.5 -6q-8 -4 -14.5 -4t-12.5 -3q-27 -2 -52 1.5t-50 7.5q25 2 48.5 4t45.5 6q10 4 20.5 8t12.5 8l-10 7q-9 8 -22 18t-25.5 19.5t-16.5 13.5q-31 20 -102.5 51t-169.5 66.5t-213 74.5t-230.5 76t-222 67.5t-188.5 53.5q-72 18 -107 42.5 t-47 52.5t-8 57.5zM850 1006v73h571v-73h-149q-6 -6 -23.5 -70t-37 -152t-39 -186t-27.5 -174q-8 -33 -15.5 -65.5t-13.5 -67.5q-14 -47 -26.5 -95.5t-20.5 -95.5v-10q-12 -29 -22.5 -57.5t-12.5 -63.5q-12 29 -16 59.5t-6 59.5q-8 76 6 153.5t33.5 157.5t39 161t23.5 163 q10 41 21.5 82t21.5 82q18 27 35.5 51.5t34.5 50.5l4 8t4 9h-385z" />
<glyph unicode="&#xd6;" horiz-adv-x="921" d="M-18 1006v73h991v-73h-195q-2 -25 -9 -56.5t-15.5 -63.5t-18.5 -63.5t-18 -56.5q-4 -2 -14.5 -5t-20.5 -3t-20.5 4t-16.5 16q-4 10 -14 27q-18 31 -71.5 45t-116 15t-121 -7t-84.5 -24q-10 -6 -23.5 -16.5t-28 -24t-27 -25.5t-18.5 -20q-6 -25 6.5 -42.5t32.5 -29.5 q70 -27 144.5 -46.5t143.5 -41t124 -50t88 -71.5q8 -12 25.5 -35.5t30 -54.5t14.5 -69t-21 -79l-16 -22q-23 -31 -55.5 -37t-61.5 -10q-29 -6 -55 -6q-20 0 -29 2h-14q-2 0 -6.5 2t-2.5 2q2 2 7 2q10 0 14 2t10 3t12 5q27 10 46 21q23 12 43 25t30 32q6 10 5 27.5t-1 33.5 q0 41 -38.5 88t-96 85t-123 60.5t-116.5 16.5q-92 -12 -134.5 -71.5t-47.5 -136.5t20.5 -154.5t66.5 -126.5q14 -23 39 -47.5t52.5 -47t56 -43t55.5 -32.5q63 -33 126 -53.5t127.5 -36t130 -29.5t132.5 -33q98 -25 193.5 -38t195.5 -23q78 -8 152 -11.5t139 -3.5 q-172 -20 -331.5 -17t-317.5 27.5t-318.5 68.5t-334.5 106q-16 6 -27.5 15t-26.5 20l-12 8q-2 0 -2 1t-2 1t-2 2l-6 6q-16 8 -27 20q-27 23 -50.5 47.5t-43.5 53.5q-55 92 -66.5 199.5t23.5 205.5q57 94 143 148q-10 4 -17 6t-17 6q-23 16 -48.5 36.5t-38.5 61.5 q-6 20 -3 41t10 37q8 18 17 31.5t19 25.5q37 45 97 76q49 27 110 39q41 6 83 5t83 -5q51 -8 107.5 -24.5t95.5 -59.5l18 31q16 27 24.5 54.5t23.5 58.5h-766z" />
<glyph unicode="&#xd7;" horiz-adv-x="864" d="M-14 1006v73h907v-73h-428q12 -16 20 -29q20 -35 32.5 -71t23.5 -75q0 -6 4 -18q0 -4 1 -8t1 -8q2 -10 4 -18.5t4 -18.5t3 -19.5t1 -21.5q0 -10 -2 -25.5t-14 -31.5q-10 -16 -29 -25q-10 -4 -17.5 -5t-13.5 -3q-14 0 -25.5 1t-21.5 3q-4 2 -9 2t-11 4q-12 2 -23 8 q-10 4 -17 9.5t-18 9.5q-23 20 -40 38.5t-37 34.5q-10 6 -21.5 11.5t-23.5 3.5q-25 -2 -46 -31q-8 -29 5.5 -53.5t33.5 -40.5q18 -16 41 -29.5t45 -26.5q31 -27 64 -51t67 -49q16 -12 34 -24.5t36 -26.5q8 -8 16.5 -14.5t16.5 -16.5q20 -20 31 -41q29 -47 34 -102 q2 -27 -2 -55.5t-26 -57.5q-20 -31 -60 -35q-16 -4 -31.5 -1t-27.5 7q-31 14 -49 27q-10 8 -20.5 17.5t-18.5 19.5q-43 43 -77 88t-71 84q-10 10 -18 18.5t-18 14.5q-16 12 -27 12v-2q0 -2 -4 -6q-10 -8 -23 -25q-29 -29 -49 -69q0 -6 -4 -6l-2 -11q-6 -10 -6 -20 q-4 -10 -5 -18.5t-3 -18.5q-2 -74 61 -137q23 -25 49.5 -45.5t61.5 -42.5q31 -23 62.5 -41.5t66.5 -36.5q68 -35 139.5 -58.5t142.5 -33.5l31 -2q45 -10 87 -12.5t83 16.5q41 16 73 53t60 76q-20 -41 -41.5 -82t-60.5 -76q-41 -33 -90 -44t-97 -13q-98 -4 -191 17.5 t-183 55.5q-53 33 -97 68q-10 10 -22 18.5t-23 18.5q-10 10 -21 19.5t-22 19.5q-43 39 -75.5 87t-40.5 101q-25 49 -21 109.5t33 113.5q16 29 32.5 53.5t45.5 47.5q16 10 35.5 16t42.5 2t38 -13t29 -20q41 -35 67.5 -72.5t53.5 -74.5q12 -18 25.5 -34.5t25.5 -33.5 q14 -16 25.5 -22t27.5 -14q16 -4 23 -5q4 0 4 1.5t-2 1.5q-2 -2 1 6t1 22q-4 29 -19.5 57.5t-39.5 45.5q-45 39 -100.5 76.5t-110.5 84.5q-29 25 -56.5 51.5t-50.5 69.5q-10 23 -18 52.5t2 64.5q4 16 11 30.5t13 22.5q8 14 21.5 26.5t34.5 22.5q25 12 53 9q23 -2 41 -11 q16 -8 29.5 -15t23.5 -15q20 -16 36.5 -32t33.5 -30q10 -6 16 -10l12 -8q18 -8 35 -13q6 0 7 -1t6 3q8 10 8 37q0 45 -3 91.5t-16 93.5q-6 20 -14 40.5t-23 41.5h-458z" />
<glyph unicode="&#xd8;" d="M-2774 903q1 -2 2 -6t-1 2v2h2q10 4 17.5 5t15.5 5q35 10 67.5 16.5t67.5 10.5q33 4 65.5 7t67.5 7q29 4 62.5 8.5t64.5 8.5h106.5t106.5 -2q47 12 95 24.5t96 22.5q78 8 156.5 14t156.5 12q43 2 96 4.5t108.5 3.5t110 2t97.5 1q104 10 210.5 19t215.5 17q104 0 208.5 -3 t208.5 -7q154 -10 303 -24t301 -37q45 -10 105.5 -24.5t101.5 -33.5q23 -10 39 -20q8 -6 13.5 -14.5t1.5 -16.5q-10 -16 -30 -22t-40 -13q16 8 30.5 16.5t16.5 18.5q4 10 -11.5 16.5t-31.5 12.5q-37 10 -79 16t-85 11q-168 14 -342 18q-104 18 -209.5 34.5t-212.5 31.5 q-221 -8 -440 -31q-84 -4 -177 -9.5t-188.5 -11.5t-188.5 -13t-175 -15q-123 -10 -245 -21.5t-245 -25.5q-45 0 -88 -1t-88 -4l-86 -2q-27 -2 -47 -1t-43 1q-45 -2 -88 -3t-88 -5l-43 -6q-6 -2 -11 -3t-12 -3l-10 -2h-2q-2 8 -1 5t3 -11t3 -15.5t1 -5.5h2h2l7 -2 q23 -8 47 -11t47 -7q-16 2 -36 2t-40 4q-4 0 -9 1t-9 1l-11 2l-6 2q-6 33 -8 41t-1 6z" />
<glyph unicode="&#xd9;" horiz-adv-x="614" d="M239 773q7 7 11 20q2 6 3 7t2 1t4 2t9 10q12 14 18.5 19.5t14.5 11.5l16 -8l29 -37l8 -25l11 -33l-17 -18q-10 -6 -18 -12q-8 -4 -13.5 -8.5t-9.5 -6.5q-10 -4 -35 4q-8 0 -12 9q-2 4 -2 8q-2 4 -6 10q-4 4 -6 11t-6 14q-8 14 -1 21zM252 279q-4 16 3 21t15 15l5 7.5 t2.5 1.5t3.5 1t10 7q16 12 23.5 15t15.5 9l16 -14l19 -39l4 -27v-10q2 -2 2 -6v-2v-16l-6 -4q4 -4 6 -5.5t4 -3.5q0 -16 -2 -24t-11 -25q2 -10 3.5 -18t1.5 -19q-4 -10 -17 -26q-20 -20 -39 -29l-2 -2h-18t-17 2q16 16 27 41q18 0 37 6q0 10 -1 18.5t-3 18.5q2 10 1 21.5 t-3 21.5v4q-20 -8 -27 -8q-6 -2 -14 2t-19 8q-6 2 -8 5t-4 7t0 9q0 6 -2 12q-4 8 -6 25z" />
<glyph unicode="&#xda;" d="M-4105 924q1 -2 2 -6.5t-1 2.5v2h2q10 4 17 5t16 5q35 10 67.5 16t67.5 10q33 4 65.5 7.5t67.5 7.5q14 2 64.5 6t108.5 8t109.5 8t67.5 6q27 0 78 3.5t106.5 6.5t105.5 5t77 2q47 12 89 7t89 5q39 4 91 5t106.5 2t106.5 2t91 5q43 2 100.5 3.5t118 1.5t117.5 1t100 1 q51 6 146.5 7t199 2t198.5 2t149 5q35 0 113.5 3t179 6t213 8.5t213 8.5t179 5t113.5 0q154 -10 303 -34.5t301 -47.5q45 -10 105.5 -24.5t101.5 -33.5q23 -10 39 -20q8 -6 13.5 -14.5t1.5 -16.5q-10 -16 -30 -22t-40 -13q16 8 30.5 16.5t16.5 18.5q4 10 -11.5 16.5 t-31.5 12.5q-37 10 -79 16t-85 11q-86 8 -171 22t-171 16q-35 6 -113.5 9.5t-180 4.5t-213 1t-213 1t-181.5 3t-115 6q-113 -4 -213 -20.5t-211 -26.5q-57 -2 -144 -1t-190.5 4t-214 6t-213 5t-189.5 1t-142 -7q-123 -10 -245 -11t-245 -15q-45 0 -88 9t-88 7l-475 -43 q-27 -2 -47.5 -1t-42.5 1q-45 -2 -88 -3t-88 -5l-43 -6q-6 -2 -11.5 -3.5t-11.5 -3.5l-10 -2h-2q-2 8 -1 5t3 -11t3 -15t1 -5h2h2l6 -2q23 -8 47.5 -11.5t47.5 -7.5q-16 2 -36 2t-40 4q-4 0 -9.5 1t-9.5 1l-10 2l-6 3q-6 33 -8 41t-1 6z" />
<glyph unicode="&#xdb;" horiz-adv-x="446" d="M70 -158q-4 57 6 113q23 35 49.5 63.5t58.5 38.5q-6 6 -10 6q-16 10 -37 7q8 4 17.5 8t19.5 6q21 0 39 -14q16 -16 25.5 -35t13.5 -39q-12 -47 -39 -88q-2 -23 -7 -47.5t-16 -46.5q-23 -33 -65 -52q-2 0 -4 -1t-6 -1h-2q-4 2 -1 0t4 -3t-4.5 2t-27.5 20v2l-2 2l-2 4 q0 6 -4 18q-2 10 -4 18.5t-2 18.5zM104 -59q4 -12 7.5 -23.5t9.5 -21.5q-4 -31 0 -62q-2 -8 -1 -16t1 -17q2 0 3 1t3 1q16 12 25.5 31t15.5 35q19 31 25 70q8 27 9 54t-9 48l-3 4q-4 8 -6 10q-33 -31 -49 -82q-18 -14 -31 -32zM127 403q16 37 33.5 72t36.5 68 q-8 39 -15.5 77.5t-11.5 77.5q4 59 8 115.5t10 116.5q23 82 41 164q18 25 38 50t36 52l19 25l8 14v4q27 0 43 1t-11 -1l-2 -4q0 -14 -2 -23q-4 -23 -9 -45t-9 -45q-14 -14 -27.5 -28.5t-27.5 -28.5q6 -20 11 -38.5t11 -39.5q-8 -47 -24 -102q-10 -27 -17.5 -54.5 t-17.5 -54.5q2 -39 6 -75.5t8 -71.5q-4 -33 -9 -66t-9 -65q-4 -47 -11.5 -95.5t-5.5 -95.5l2 -8q-8 -29 -12 -59.5t0 -65.5q-39 47 -59.5 107.5t-30.5 121.5zM293 1188q4 12 4 19v14q-2 4 -2 8l-2 4v2q-4 0 4 0t20 2q-4 -16 -9 -25.5t-15 -23.5zM317 1237l2 4v2h5h8h7t-3 0 h-2l-4 -4q-4 -2 -13 -2z" />
<glyph unicode="&#xdc;" horiz-adv-x="1013" d="M96 -37q-2 20 5.5 38.5t13.5 35.5q8 16 16 31.5t19 29.5q37 59 77 117v2h2l43 31q23 16 48.5 33.5t48.5 33.5q12 23 22 46.5t21 46.5q8 16 14 34.5t16 34.5t19.5 32.5t19.5 33.5q25 41 50.5 82t50.5 82v2q33 47 59.5 86t48.5 75l2 2q119 109 195 203l16 -10 q-23 -45 -47.5 -91t-54.5 -97l-2 -3q-18 -16 -33.5 -28t-32.5 -25q-4 -20 -9 -39.5t-11 -40.5v-2q-16 -25 -33.5 -50t-38.5 -54q-23 -29 -44.5 -55.5t-41.5 -51.5l-10 -18q-16 -35 -31.5 -67.5t-32.5 -65.5l-2 -2q-6 -10 -12 -17.5t-12 -17.5q-4 -8 -10.5 -15.5t-12.5 -17.5 q-14 -16 -26.5 -32.5t-26.5 -32.5t-28.5 -29.5t-28.5 -28.5q-29 -29 -54.5 -56.5t-52.5 -55.5l-6 6l-8 -8l6 -9q-12 -10 -25.5 -21t-27.5 -24l-4 -4q-10 -10 -20.5 -22.5t-14.5 -28.5zM182 672v8v4q-2 20 4 39v2q20 45 52 78q8 6 16 14t18 14q10 14 28.5 24.5t35.5 21.5 q10 4 19.5 8t13.5 8q18 18 41 27q20 6 39 0q12 -4 18 -14.5t10 -14.5v-2q4 -20 -1 -34.5t-9 -27.5v-2q-4 -10 -10 -22t-15 -23q-6 -57 -24 -106v-2l-22.5 -36t-33.5 -36q-20 -20 -47 -27q-6 -2 -11 -3t-11 -1q-18 0 -43 11q-20 12 -31.5 27.5t-21.5 31.5l-7 12q0 2 -1 2 t-1 2l-2 4l-2 5v2zM227 702q4 -12 6 -16t6.5 -7t8.5 -7h2v-2q18 -33 39 -39q23 -10 53 18q25 33 39 84v2q23 43 31 82v2q4 12 6 25.5t2 21.5q-4 -2 -17 -6l-4 8l-6 -4l6 -8q-16 -12 -50 -29.5t-62 -23.5l-6 -6q-6 -12 -13.5 -24.5t-11.5 -29.5l-2 -2q-16 -20 -27 -39z M481 188q8 41 24.5 73t35.5 58v3q14 12 31.5 25t39.5 24v4q-2 4 2 8l4 2l3 6l8 -8q23 10 45 12t47 -12q41 -27 45 -98l-2 -2q-16 -55 -57 -101q-6 -23 -21.5 -49.5t-44.5 -48.5v-2q-14 -6 -27.5 -10t-29.5 -4q-27 0 -52 12q-33 16 -45 49q-8 27 -6 59zM543 166 q-4 -35 26 -45q23 -4 39.5 8t26.5 27q29 29 47 71q14 31 18 62q6 35 -6 51l8 4l-4 4l-8 -4q-6 14 -39 18l11 -10l-15 -8q-4 -2 -5 -4t-5 -4l-10 -10q-10 -20 -21 -31l-10 6l-12 -8t-13 -8q-4 -14 -5 -26.5t-3 -22.5v-3v-2q-18 -37 -18 -65h-2z" />
<glyph unicode="&#xdd;" horiz-adv-x="1038" d="M-18 1006v73h735q-16 23 -43 35q33 -10 51 -35h330v-73h-297q8 -33 8 -72q2 -12 1 -24.5t-1 -22.5q0 -6 -1 -12.5t-1 -12.5l-2 -12v-6v-2q-6 -4 -3 -2t5 3t-5 -3t-36 -21l-2 2q-23 8 -42.5 14.5t-41.5 10.5q-29 16 -59.5 16h-65.5q-37 0 -69.5 -3t-61.5 -21 q-47 -16 -88 -42t-74 -63q-39 -41 -50 -97t-26 -112q-4 -35 -2 -58.5t9 -57.5q6 -35 16 -66t27 -55q23 -53 55.5 -89t89.5 -57q84 -35 179 -36t185 28l19 8q57 12 110.5 38t100.5 67q-33 -45 -83 -88t-107.5 -76t-118 -49.5t-111.5 -5.5q4 -20 1 -39t-7 -41q0 -6 -35 -47 l-20 6q4 -2 -13 4l-6 4q-4 2 -7 4t-7 4q-12 8 -25.5 14.5t-27.5 12.5q-35 10 -84.5 8t-81.5 -20q-33 -12 -49.5 -31t-32.5 -49q-20 -31 -29.5 -63t12.5 -62q68 -72 160 -86q10 -4 21.5 -7.5t21.5 -5.5t22.5 -3t22.5 -3q25 -2 48.5 -3t45.5 -1q70 -4 138.5 4t134.5 33l12 6 q41 10 79 29.5t73 48.5q-49 -72 -126 -113t-163 -61q-104 -14 -215 -13t-207 60q-39 16 -76 43t-59 72q-23 45 -17 96q2 25 11.5 48.5t23.5 43.5q45 57 115 89t135 11q31 -10 71 -20t62 -33q2 -2 4 -3t4 -3l4 -4l3 -2l8 -2q4 6 12 20.5t8 20.5q2 18 0 39q-94 29 -187 70.5 t-159 119.5q-27 29 -43 65t-27 74q-10 59 -10 121t17 121q33 125 125 217q72 66 164 94.5t184 24.5q66 -12 121 -37q27 -10 55 -29q4 0 6 -2q0 6 2 9q8 29 12 57.5t2 58.5v9h-757z" />
<glyph unicode="&#xde;" d="M-1737 1026l164 27h164h487l422 39h213l310 -13l202 -32l-358 -25l-219 39l-279 -33l-821 -14z" />
<glyph unicode="&#xdf;" horiz-adv-x="1402" d="M-23 1006v73h566q-6 35 -4 69t6 69q0 -35 6 -69t16 -69h865v-73h-142q-8 -29 -13 -73t-10 -90t-9.5 -89t-12.5 -70q-55 -231 -86 -467l-6 -49q-29 -143 -48.5 -286.5t-35.5 -291.5q-4 233 6 465t45 463q-33 -35 -69 -61q-37 -23 -80 -38.5t-84 -27.5q-35 -10 -68 -19.5 t-65 -19.5q6 -12 11 -23.5t11 -23.5q12 -31 20.5 -61.5t18.5 -63.5q10 -37 10 -77t-16 -78q-14 -41 -45 -70t-66 -45q-72 -29 -151.5 -21.5t-138.5 60.5q-41 33 -58 82q-18 45 -8 98q6 49 35 94q6 10 12 19.5t14 19.5l18.5 18.5t18.5 16.5q55 47 127 76q-33 8 -71.5 14 t-75.5 14q-51 10 -101.5 20.5t-103.5 29.5q-27 10 -52.5 21t-53.5 28q-25 16 -50.5 42.5t-40.5 67.5q-6 29 -3 55.5t12 49.5q18 41 47 73q12 16 29.5 31t35.5 25q37 20 80 26q41 6 79 3t73 -13t59.5 -13t54.5 -22q33 -16 62 -37q4 0 4 -4q2 4 2 5.5t2 5.5q2 8 3 16t3 16 q6 35 6 59.5t-4 59.5q-4 16 -5 29.5t-5 30.5h-576zM82 635q6 -39 39 -72q35 -23 75 -33t80 -18q41 -6 81 -9t81 -7q31 -4 61.5 -9.5t63.5 -13.5q31 -6 66 -16.5t65 -32.5l4 -4q18 4 37 10t37 10q41 10 80 18.5t76 18.5q41 10 71 23q29 12 56 32q49 39 82 95q4 20 7 39.5 t7 40.5q6 20 10 57t7 76t8.5 75.5t13.5 57.5q0 2 4 10v23h-606q14 -51 23.5 -103.5t2.5 -111.5q0 -12 -4 -29l-4 -17q-39 -16 -48 -19t-7 -3t7 2t-3 0l-4 2l-4 4q-23 12 -45 23q-49 23 -96 34q-47 14 -97.5 17.5t-93.5 -10.5q-16 -4 -32.5 -11.5t-30.5 -17.5 q-29 -23 -50 -57q-23 -37 -20 -74zM414 104q-6 -53 28 -92q33 -35 93 -45q8 -2 14 -2t14 -2h12h3h4l6 2q31 2 55 12q57 20 74 58q23 41 12 96q-4 23 -15.5 55.5t-21.5 61.5q-8 23 -16 40t-19 34q-55 -18 -100 -46q-29 -14 -54.5 -31.5t-41.5 -39.5q-41 -43 -47 -101z" />
<glyph unicode="&#xe0;" d="M-538 -161.5q1 20.5 21.5 40t49.5 31.5q31 0 46 -20.5t17.5 -44t-6 -42t-22.5 -18.5q-59 2 -83 17.5t-23 36z" />
<glyph unicode="&#xe1;" d="M-538 -161.5q1 20.5 21.5 40t49.5 31.5q31 0 46 -20.5t17.5 -44t-6 -42t-22.5 -18.5q-59 2 -83 17.5t-23 36z" />
<glyph unicode="&#xe3;" horiz-adv-x="1705" />
<glyph unicode="&#xe5;" horiz-adv-x="940" d="M-18 1006v73h649q-27 14 -60 21q41 0 82 -21h318v-73h-230q29 -41 41 -88q6 -16 8.5 -35t2.5 -37q2 -10 1 -18.5t-1 -18.5l-2 -8v-2q-2 -8 -9.5 -15.5t-15.5 -12.5t-13 -7t-1 0h-7h-16q-170 35 -313.5 -2t-249.5 -182q-18 -27 -32.5 -56.5t-20.5 -60.5q-18 -68 8 -137.5 t80 -120.5q66 -45 141.5 -65.5t146.5 -14.5q-2 10 -4 19.5t-4 19.5q-8 41 -11 88t22 100q23 33 55.5 46.5t64.5 13.5q31 0 57.5 -11.5t49.5 -27.5t38 -39t19 -47q2 -23 -4 -49q-4 -10 -10 -19.5t-12 -19.5q-16 -47 -53.5 -84t-88.5 -56q-4 -4 -10 -4l4 -14q2 -12 3 -24.5 t3 -26.5q20 25 45 45q-12 -16 -19 -39t-18 -41q4 -23 5.5 -41t5.5 -41l12 -86t4 -86q-8 41 -22.5 78t-28.5 74q-4 10 -8 18l-9 18q-10 -25 -21 -51t-30 -51q-57 -72 -145 -100.5t-180 -5.5q-35 12 -65 33.5t-52 54.5q-23 33 -30 71.5t-3 77.5q4 16 8 29q6 18 11 26 q12 27 30 50q41 51 105 63h18t19 -2q-41 23 -78 50.5t-68 62.5t-54.5 75.5t-33.5 89.5q-20 100 19 193q27 66 71.5 120t104.5 91q59 37 120.5 58.5t124.5 31.5q45 2 87 -1t85 -9q20 -2 41 -4t41 -6l17.5 -3.5l17.5 -3.5q0 2 1 3.5t1 3.5q8 37 3 77.5t-25 77.5q-2 6 -6 15 h-727zM111.5 -141.5q5.5 -30.5 27.5 -61.5q29 -29 52.5 -46t62.5 -17q16 0 36.5 -2t37.5 2q16 4 39.5 10t38.5 16q45 29 78.5 66t64.5 88l6 10q0 2 4 6q-8 18 -15 37t-14 37l-12 31q-31 -4 -61.5 -5t-63.5 3q-10 2 -18 3t-19 5q29 -16 54.5 -36.5t48.5 -43.5 q-45 29 -93.5 47.5t-97.5 30.5q-20 4 -33.5 2t-35.5 -18q-31 -20 -52.5 -47t-31 -57t-4 -60.5zM573 197q0 -14 2.5 -28.5t4.5 -29.5h2q10 2 17 4t15 7q29 12 56 34q10 12 19 24.5t16 29.5q8 18 -3 30q-4 12 -20 25.5t-37 17.5q-39 9 -55 -14q-10 -16 -14.5 -43t-2.5 -57z " />
<glyph unicode="&#xe6;" horiz-adv-x="638" d="M70 1098q-10 74 22 141q27 45 65 78t85 49l8 4q61 6 115 -20q-51 2 -92.5 -22.5t-67.5 -59.5q-27 -12 -51.5 -31.5t-42.5 -48.5q-4 -72 39 -117q10 -20 24 -35q0 8 -1 15.5t1 15.5q0 4 1 6t1 6l2 6v2q-2 -2 3 3.5t11.5 9.5t9.5 7t-3 -3h2h2q8 2 22 2q18 -8 32.5 -19.5 t18.5 -27.5q16 -4 29.5 -17.5t20.5 -31.5q4 -31 -17 -58q-10 -14 -25.5 -23t-31.5 -7q-20 2 -33.5 8t-25.5 16q-23 20 -37 39q-27 18 -51.5 47t-34.5 66zM203 1012l4 -4q8 -6 16 -11.5t17 -7.5q18 -4 12 2q6 6 4 17q0 16 -10 22q-4 16 -25 23q-4 2 -5 2t-5 2q0 -2 -1 -3 t-1 -5q-6 -16 -6 -37zM317 1196q2 27 11.5 50.5t25.5 43.5q47 59 121 76l6 2q47 0 80 -22q-35 4 -67.5 -10.5t-55.5 -37.5q-20 -6 -40.5 -17t-37.5 -28q-6 -25 -4 -49t13 -41q10 -29 33.5 -52.5t48.5 -35.5q14 -8 22 -8q0 2 2 6t2 10q6 10 9 14.5t6 8.5q4 14 -11 22 q-16 8 -37 13q-12 0 -20 -2l-12 -4t-13 -13q8 16 16.5 19.5t16.5 7.5q14 6 33 6q18 0 37 -6q20 -10 26 -33q-2 -16 -9 -26.5t-13 -20.5q2 -10 1 -24.5t-18 -24.5q-27 -8 -44 1t-33 19q-31 27 -50 62q-8 8 -16 18t-14 21q-8 12 -11.5 27.5t-3.5 27.5z" />
<glyph unicode="&#xe7;" horiz-adv-x="2136" d="M16 397q-27 106 7 199q-10 -92 31.5 -174t103.5 -143q129 -123 299 -189q88 -66 191.5 -112t223.5 -58q59 12 114.5 38t96.5 67q43 43 64 90q23 49 27 100q6 37 -6.5 69.5t-37 58.5t-57.5 45.5t-69 29.5q-57 16 -105 10q-8 -10 -17.5 -20.5t-22.5 -22.5t-33.5 -28.5 t-51.5 -41.5l-6 -4q6 -4 -5 1t-25.5 18.5t-25 36t-3.5 55.5q-2 0 -2 1t-2 1v2h4q0 2 1 2t1 2q4 4 8 16q16 29 39.5 48.5t50.5 29.5q12 14 23.5 28.5t21.5 31.5q74 109 111 219q20 35 32.5 71.5t8.5 63.5q0 25 -31 39q-35 16 -82 12q-45 0 -90 -9t-86 -44 q-10 -10 -18.5 -20.5t-14.5 -22.5q-10 -31 -4 -62q6 -33 24.5 -55t38.5 -41q-16 10 -33.5 25.5t-31.5 38.5q-14 20 -19.5 50t5.5 56q8 27 23 45.5t32 32.5q16 14 34.5 24.5t37.5 20.5q20 8 38.5 13.5t36.5 9.5q20 4 40 7t42 3q23 0 46.5 -4t45.5 -19q23 -14 39.5 -36.5 t24.5 -45.5q4 -37 -5 -67.5t-20 -57.5q-12 -29 -26.5 -52t-30.5 -46q-8 -51 -21.5 -101t-29.5 -100q74 -14 141 -57q6 -4 12 -7t13 -7q4 23 8 43t12 41q18 47 47 88t66 76q76 53 134 82.5t136 48.5q29 8 60.5 -0.5t60.5 -20.5q29 -14 53.5 -34.5t42.5 -43.5q39 -61 53 -120 q8 -33 7.5 -66t-7.5 -63q-6 -80 -33.5 -153t-50.5 -142q-16 -31 -28 -62t-23 -61q-8 -29 -12 -63t-2 -62q-2 -45 11.5 -84t43.5 -60q29 -20 71 -17t83 26l14 10q53 25 95 71t73 103q-16 -59 -46 -115.5t-77 -99.5q-23 -23 -51.5 -39t-62.5 -25q-35 -10 -72 -7t-72 22 q-37 31 -53 70.5t-19 78.5q-2 41 5.5 78t19.5 72q0 78 25.5 152.5t48.5 146.5q23 53 40 107.5t13 105.5q0 25 -7 48t-18 46q-27 49 -59 76q-25 23 -55.5 31t-64.5 5t-70.5 -15.5t-71.5 -28.5q-49 -23 -98.5 -52.5t-85.5 -76.5q-23 -27 -40.5 -59t-25.5 -68 q16 -10 31.5 -23.5t30.5 -30.5q23 -25 39 -56.5t22 -68.5q8 -37 4 -73.5t-14 -71.5q-20 -63 -64 -125q-47 -53 -107.5 -85t-123.5 -48q-63 -14 -126 -15t-122 7q-88 14 -169 42.5t-157 69.5t-144.5 91.5t-127.5 115.5l-25 25q-29 45 -52 93t-34 99zM1253 1010q2 23 13.5 38 t27.5 15q-16 -10 -16 -34.5t12 -47.5q0 -10 2 -22.5t6 -24.5q27 -10 48 -10q27 -18 55 -23q37 -6 67 4q18 12 34 28.5t28 33.5q16 14 30.5 28.5t24.5 30.5q20 23 36.5 48.5t25.5 53.5v7q8 14 10 31.5t-19 31.5q23 -4 35 -22q10 -16 10 -41q2 -41 -14 -82q-33 -47 -60.5 -84 t-72.5 -66q-29 -25 -70 -42t-90 -9q-33 8 -60.5 26.5t-47.5 43.5q-20 47 -15 88zM1378 1032q10 10 18.5 23.5t26.5 17.5q10 -2 21.5 -6t13.5 -27q0 -4 1 -10t-1 -10q-4 -16 -10 -28.5t-14 -24.5l-13 -15l-18 2v2l-2 2v3q-6 12 -6 24q6 16 14 28.5t12 28.5q0 -10 -1 -22 t-3 -23q-4 -4 -2 -4t-2 -4l6 -8l2 2q10 10 17 23q14 29 -0.5 44t-30.5 -1l-2 -2q-6 -4 -13.5 -7.5t-13.5 -7.5z" />
<glyph unicode="&#xf7;" horiz-adv-x="1013" d="M100 -322q18 115 57.5 214.5t84.5 193.5t90 190.5t76 206.5q14 47 42.5 108.5t45.5 108.5q14 47 27.5 93.5t27.5 93.5q25 70 50.5 138.5t53.5 135.5q29 43 57.5 85t59.5 83q33 41 69 77t77 58q-27 -23 -49.5 -52.5t-43.5 -59.5q-35 -43 -67.5 -103.5t-60 -130t-51 -144.5 t-42.5 -145q-80 -246 -172 -482.5t-215 -465.5q-25 -47 -57.5 -101t-59.5 -102z" />
<glyph unicode="&#x152;" horiz-adv-x="632" d="M-51 1006v73h907v-73h-907zM-49 799q2 -10 22.5 -16.5t45 -12.5t48 -10t33.5 -10q16 -4 35 -5.5t35 -5.5q-14 -16 -23.5 -34.5t-17.5 -36.5q-4 -12 -6 -23.5t-6 -23.5q-4 -25 0 -50q-4 -39 4 -73.5t20 -67.5q16 -29 31.5 -56.5t38.5 -49.5q39 -39 72.5 -90.5t64.5 -104.5 t62.5 -104.5t70.5 -87.5q-10 27 -20 65.5t-20.5 77.5t-22 72t-21.5 47q-35 72 -79 130t-85 122q-16 23 -28 48t-19 48q-8 29 -2 47q6 29 19 51q8 27 26.5 50.5t44.5 43.5q25 2 49.5 4t49.5 5q4 2 7 3t7 3q23 -6 44.5 -13.5t43.5 -15.5q33 4 78 2t94 -5t95 -4t79 3 q-6 8 -6 14t-10 10q-10 2 -32.5 10.5t-49.5 16.5t-49.5 15.5t-32.5 11.5h-8q-6 0 -12.5 1t-12.5 1q-2 0 -4 2h-12q-57 10 -115.5 15t-122.5 1q-57 -6 -112 -31q-2 2 -6 3q-35 0 -72 6q-55 -4 -111.5 -2t-101.5 4z" />
<glyph unicode="&#x153;" horiz-adv-x="1148" d="M-39 1006v73h1235v-73h-545v-7q0 -14 -1 -28.5t-3 -30.5q-4 -59 -13 -118.5t-22 -119.5q-12 -59 -27.5 -117.5t-37.5 -115.5q-4 -12 -6 -16q0 -8 -2 -13q-10 -61 -17.5 -122.5t-11.5 -120.5q2 6 3 13t3 13q16 51 31.5 102.5t38.5 102.5q12 27 27.5 52.5t50.5 47.5 q16 10 39.5 14.5t39.5 -1.5q29 -6 58 -23l43 -31q27 -31 41 -63.5t21 -64t12.5 -62.5t15.5 -57q8 -16 14 -23q2 -4 4 -5t4 -3q4 -2 6.5 -4t6.5 -4q14 -4 27.5 -6t27.5 2q29 8 52.5 29.5t45.5 45.5q-16 -27 -36.5 -50t-49.5 -38q-33 -16 -65 -6q-16 4 -31.5 12.5t-26.5 24.5 q-18 29 -26 57.5t-19 57.5q-10 29 -21 54.5t-30 45.5q-33 39 -90 49q-16 2 -35 -12q-12 -12 -26 -41q-25 -49 -39.5 -106.5t-28.5 -116.5q-12 -35 -24.5 -71t-26.5 -71l-19 -36q-4 -8 -9 -16.5t-13 -16.5q-2 -6 -8 -8l-4 -4l-2 -3q2 0 -4.5 1.5t-14.5 1.5h-11t5 0v2l-2 2 q-4 6 -5 11t-5 9q-2 10 -6 27q0 4 -1.5 6t-1.5 6q-4 41 -0.5 78t9.5 74q4 29 9 57.5t11 56.5q-10 -16 -19.5 -31.5t-19.5 -31.5q-27 -37 -57.5 -74t-73.5 -68q-23 -16 -49.5 -28.5t-60.5 -14.5q-18 0 -37 4.5t-33 14.5q-29 16 -49 43q-18 23 -28.5 46.5t-20.5 47.5 q-4 10 -7.5 22.5t-7.5 22.5q-4 14 -5 26.5t-3 24.5q-6 49 -3 96.5t11 94.5q16 63 40 122.5t61 112.5q18 27 40.5 51.5t51.5 43.5q29 18 60.5 28t64.5 6q61 -2 114 -43q25 -20 39.5 -45.5t24.5 -54.5q4 -10 8 -31q8 66 16.5 130.5t20.5 129.5q4 12 7 25.5t7 26.5h-606z M53 430q2 -37 7.5 -71.5t15.5 -67.5q12 -33 27.5 -63.5t37.5 -51.5q31 -37 68 -29q20 6 39.5 20.5t38.5 31.5q37 35 67.5 77.5t57.5 90.5q29 47 50.5 94t39.5 98q2 23 4 43.5t6 42.5q-4 16 -6 23q-12 43 -32.5 79.5t-53.5 57.5q-16 8 -37 14t-39 8q-35 2 -76 -14 q-35 -18 -62.5 -51t-47.5 -72q-39 -57 -63.5 -122.5t-41.5 -137.5z" />
<glyph unicode="&#x178;" horiz-adv-x="1073" d="M-125 1006v73h977q-4 4 -8 6l-4 5l-4 2q10 4 18 7t14 7q0 2 1 3t1 3q2 0 2 -1t2 -1q33 14 38.5 16t1 0t-9.5 -4t5 2v-2l-4 -30v-5q2 -2 3 -4t5 -4h181v-73h-129q18 -43 18 -93q-4 -70 -32.5 -132t-67.5 -117q-12 -16 -24.5 -31t-27.5 -29q-12 -86 -24 -170t-23 -170 l-4 -37q-20 -106 -34.5 -212.5t-24.5 -215.5q-6 182 5 362.5t28 362.5q-41 -39 -87 -72.5t-94 -62.5q-49 -29 -96 -47q-25 -10 -49.5 -18.5t-52.5 -12.5q-29 -6 -56.5 -9t-62.5 3q-16 4 -33.5 12.5t-32.5 24.5q-16 14 -23 32.5t-11 37.5q-6 53 9 94t34 78q39 72 98 131 q35 35 68 59h-68q-104 2 -207.5 -3t-208.5 -21q139 33 276.5 48t278.5 21q35 18 75 29.5t83 9.5q16 -4 31.5 -7t29.5 -9l9 -4q-10 -61 -13.5 -75.5t-2.5 -11.5t2 11t-1 -4h-2h-2h-12l-27 2q-27 4 -51.5 5t-50.5 3q-12 0 -23.5 1t-23.5 1q-33 -23 -59.5 -50.5t-49.5 -55.5 q-31 -33 -57.5 -69t-44.5 -77q-16 -41 -19.5 -82t27.5 -55q16 -10 39.5 -12t46.5 2q45 6 96 22q49 14 93 37t87 51q41 29 76 63l70 68v15q23 96 43 189t43 190h-973zM852 727q20 31 35.5 62.5t25.5 66.5q31 82 0 150h-20q0 -14 -4 -35q-10 -61 -18.5 -123t-18.5 -121z M856 1122q-10 -6 4 1t12 5v-4q0 -4 -1 -6t-1 -6l-4 4l-8 4z" />
<glyph unicode="&#x2c6;" horiz-adv-x="1081" d="M-18 1006v73h1155v-73h-377l-2 -2q-4 -10 -6 -20.5t-4 -20.5l-25 -80q-8 -25 -14.5 -49.5t-12.5 -49.5q51 31 96.5 45.5t80 16.5t60.5 -6.5t38 -20.5q39 -37 43 -79t-37 -101q8 70 -15.5 98.5t-58.5 33.5t-69.5 -3t-51.5 -10q-23 -4 -53.5 -28.5t-56.5 -47.5 q-29 -109 -44.5 -217.5t-35.5 -218.5l-17 -94q-6 -37 -10 -63t-5 -50.5t-2 -51t-1 -65.5q-10 45 -17.5 74t-10.5 56.5t-3 59t3 83t8.5 128t13.5 193.5q-12 -12 -27.5 -30.5t-33 -37t-36 -36t-32.5 -27.5q-53 -31 -121 -41t-133 12q-37 12 -66.5 39t-46.5 56 q-16 29 -26.5 59.5t-16.5 58.5q-2 84 17.5 158t48.5 141q16 35 35.5 66t42.5 59q8 8 10 13h-184zM102.5 624.5q-2.5 -30.5 10.5 -71.5q12 -41 40.5 -79t63.5 -42q57 -8 105.5 5.5t95.5 51.5q53 39 84.5 92.5t66.5 112.5q27 74 50.5 157t21.5 155h-399q-12 0 -22.5 -11.5 t-18.5 -27t-14.5 -31.5t-10.5 -29q-18 -47 -36.5 -102t-28.5 -109q-6 -41 -8.5 -71.5z" />
<glyph unicode="&#x2dc;" horiz-adv-x="681" d="M6 1219q0 104 57 165q57 63 148 64q61 0 168 -55q59 -29 94 -29q33 0 49.5 17.5t24.5 68.5h129q-2 -115 -57.5 -171t-139.5 -56q-61 0 -166 55q-66 37 -98 37q-33 0 -53 -25q-23 -25 -23 -71h-133z" />
<glyph unicode="&#x2000;" horiz-adv-x="818" />
<glyph unicode="&#x2001;" horiz-adv-x="1637" />
<glyph unicode="&#x2002;" horiz-adv-x="818" />
<glyph unicode="&#x2003;" horiz-adv-x="1637" />
<glyph unicode="&#x2004;" horiz-adv-x="545" />
<glyph unicode="&#x2005;" horiz-adv-x="409" />
<glyph unicode="&#x2006;" horiz-adv-x="272" />
<glyph unicode="&#x2007;" horiz-adv-x="272" />
<glyph unicode="&#x2008;" horiz-adv-x="204" />
<glyph unicode="&#x2009;" horiz-adv-x="327" />
<glyph unicode="&#x200a;" horiz-adv-x="90" />
<glyph unicode="&#x2010;" horiz-adv-x="548" d="M25 418q-2 92 14 184t33 178q29 117 82 222.5t157 177.5q41 29 88 43t84 4q-59 -4 -108 -49q-104 -104 -161.5 -236.5t-81 -277t-20.5 -294t21 -286.5q8 -49 28.5 -103.5t51.5 -104.5t74 -90t98 -58q-47 -4 -94 16t-84 53q-74 57 -112 133t-53 159t-15 168t-2 161z" />
<glyph unicode="&#x2011;" horiz-adv-x="548" d="M25 418q-2 92 14 184t33 178q29 117 82 222.5t157 177.5q41 29 88 43t84 4q-59 -4 -108 -49q-104 -104 -161.5 -236.5t-81 -277t-20.5 -294t21 -286.5q8 -49 28.5 -103.5t51.5 -104.5t74 -90t98 -58q-47 -4 -94 16t-84 53q-74 57 -112 133t-53 159t-15 168t-2 161z" />
<glyph unicode="&#x2012;" horiz-adv-x="548" d="M25 418q-2 92 14 184t33 178q29 117 82 222.5t157 177.5q41 29 88 43t84 4q-59 -4 -108 -49q-104 -104 -161.5 -236.5t-81 -277t-20.5 -294t21 -286.5q8 -49 28.5 -103.5t51.5 -104.5t74 -90t98 -58q-47 -4 -94 16t-84 53q-74 57 -112 133t-53 159t-15 168t-2 161z" />
<glyph unicode="&#x2013;" horiz-adv-x="731" d="M0 553q4 6 19.5 8t35 3t37 1h27.5l53 -2l33 -4l225 8l86 -6l125 -20q18 -10 38.5 -20.5t41.5 -20.5q-37 -6 -85 -7t-83 1l-158 6q-35 2 -71.5 1t-71.5 -3q-39 -4 -65.5 -2t-49 7t-43 14t-47.5 22q-4 2 -23.5 8t-23.5 6z" />
<glyph unicode="&#x2014;" horiz-adv-x="995" d="M0 555q6 4 26.5 6t47 3t52.5 1h38l72 -2l45 -2l311 6l117 -6l172 -16q27 -10 54.5 -18.5t55.5 -18.5q-51 -4 -116.5 -5t-114.5 1l-217 4q-47 2 -97.5 1t-99.5 -3q-53 -2 -90 -1t-67.5 6t-59.5 13t-63 19q-8 2 -34 7t-32 5z" />
<glyph unicode="&#x2018;" horiz-adv-x="569" d="M195 965v219q0 45 11 89t33.5 82t57.5 66.5t80 40.5v-88q-27 -10 -45.5 -31.5t-30.5 -49t-17 -57.5t-3 -54h86v-217h-172z" />
<glyph unicode="&#x2019;" horiz-adv-x="569" d="M193 965v88q27 8 45 29.5t30.5 50t17.5 58.5t3 54h-86v217h172v-219q0 -45 -11.5 -89t-34 -82t-56 -66.5t-80.5 -40.5z" />
<glyph unicode="&#x201a;" horiz-adv-x="1705" />
<glyph unicode="&#x201c;" horiz-adv-x="757" d="M131 965v219q0 45 11.5 89t34 82t57 66.5t79.5 40.5v-88q-27 -10 -45 -31.5t-30.5 -49t-17.5 -57.5t-3 -54h86v-217h-172zM446 965v219q0 45 11.5 89t34 82t57.5 66.5t80 40.5v-88q-27 -10 -45.5 -31.5t-30.5 -49t-17.5 -57.5t-3.5 -54h86v-217h-172z" />
<glyph unicode="&#x201d;" horiz-adv-x="757" d="M129 965v88q27 8 45.5 29.5t30.5 50t17 58.5t3 54h-86v217h172v-219q0 -45 -11 -89t-33.5 -82t-56.5 -66.5t-81 -40.5zM444 965v88q27 8 45.5 29.5t30.5 50t17.5 58.5t3.5 54h-86v217h172v-219q0 -45 -11.5 -89t-34 -82t-56 -66.5t-81.5 -40.5z" />
<glyph unicode="&#x2022;" horiz-adv-x="1380" d="M4 309q2 41 10.5 79t20.5 73q-8 -72 2 -142.5t51 -123.5t101.5 -76t125.5 -19q80 -16 168 -5t174 48q74 66 117 144q23 41 29 83t-8 76q-12 57 -61.5 95.5t-104.5 48.5q-23 6 -45 2q-6 -6 -13.5 -12.5t-13.5 -12.5q-12 -10 -25.5 -19t-27.5 -20l-8 -4q-4 -2 -11 -6 q-10 -6 -20 -10q-2 0 -4 -1t-4 -1l-2 -2h-2l-45 43v4q4 12 8 18q2 6 4 11.5t6 11.5q0 2 4 7t6 7q14 18 33.5 32.5t42.5 25.5q31 29 61 65q29 37 51.5 78t32.5 82q12 27 15.5 48t-8.5 40q-12 20 -43 32.5t-66 18.5q-16 2 -34.5 -1t-35.5 -7q-31 -8 -67 -29 q-16 -10 -31.5 -23.5t-21.5 -41.5q-4 -14 1 -28.5t13 -25.5q8 -10 17.5 -18t19.5 -14q-16 8 -32.5 19t-27.5 36q-10 25 -2 51q4 10 9.5 18.5t9.5 16.5q23 29 49.5 45t54.5 31q27 12 62 18l4 2h2h2h2h8h16q20 0 31 -2q29 -4 61.5 -14t61.5 -39q16 -27 18.5 -53.5t-4.5 -48.5 q-4 -23 -14 -43.5t-22 -38.5q-4 -43 -18.5 -86t-33.5 -84l-2 -2q14 -4 27.5 -10.5t28.5 -12.5q82 -29 133 -98q18 -8 39 -6q31 6 57 30q29 23 53.5 52.5t46.5 62.5q23 18 45.5 38.5t44.5 43.5l13 49q4 23 5 42.5t5 39.5q6 25 14 39q2 16 4 34.5t4 35.5h-393v73h633v-73h-131 q-27 -109 -74 -205q-10 -53 -19 -104.5t-20 -104.5q-43 -117 -80 -234q-29 -84 -52 -168t-27 -170v-18q-10 -51 -8.5 -105.5t20.5 -107.5q-33 43 -50.5 95.5t-25.5 105.5q-8 55 -7 110.5t7 108.5q29 63 58.5 120.5t64.5 114.5q8 53 16.5 103.5t18.5 101.5q-23 -23 -47.5 -44 t-53.5 -40q-23 -16 -47 -27.5t-49 -15.5q-31 -6 -57 10l12 -18q27 -47 28 -106.5t-20 -110.5q-23 -47 -56.5 -85t-68.5 -67q-72 -59 -159 -100q-66 -25 -133.5 -37t-139.5 -8q-70 4 -138.5 32.5t-115.5 88.5l-20 24q-20 41 -27.5 82t-5.5 82z" />
<glyph unicode="&#x202f;" horiz-adv-x="327" />
<glyph unicode="&#x203a;" horiz-adv-x="540" d="M170 147q10 43 24.5 83t30.5 81q-4 43 -6 87t-4 87q6 66 15.5 132.5t19.5 132.5q10 47 22.5 95t24.5 95l68 123l14 27v2l-2 6h-2v2q-8 4 -4 2t10 -6l8 10h4v-4l2 -10q10 8 18.5 15t-1.5 -3h-2v-6l-4 -15q0 -6 -5 -18l7 -31l-9 19q-4 -16 -9 -35t-9 -35l-47 -70 q2 -23 3 -43t5 -41q-8 -31 -15.5 -60.5t-13.5 -57.5q-10 -33 -18 -66t-19 -65q-2 -41 -2 -83v-83q-6 -39 -11 -77t-9 -79q-8 -55 -12 -111.5t0 -109.5l2 -12q-2 -33 2 -67t30 -62q-33 16 -51 47.5t-28 66.5q-20 63 -27 137zM387 1106v2l2 2v-2v-2h-2zM393 1106h2l2 -2 q4 -2 -1 1t-3 3v-2z" />
<glyph unicode="&#x205f;" horiz-adv-x="409" />
<glyph unicode="&#x20ac;" horiz-adv-x="948" d="M31 426l28 68h68q-2 4 -2 14v16q0 12 1 26.5t1 33.5h-96l26 67h78q33 188 139 299q117 123 297 123q188 0 283 -117l-41 -88q-100 119 -244 119q-139 0 -227 -100q-78 -90 -104 -236h505l-26 -67h-490q-4 -39 -4 -66v-12q0 -8 2 -12h461l-29 -68h-428q20 -158 97 -258 q90 -113 239 -113q80 0 146 35q53 31 118 96v-118q-115 -96 -266 -97q-193 0 -307 133q-102 121 -125 322h-100z" />
<glyph unicode="&#x2122;" horiz-adv-x="2027" d="M168 1370v92h657v-92h-274v-752h-109v752h-274zM975 618v844h174l272 -684l265 684h174v-844h-109v746h-4l-299 -746h-62l-299 746h-4v-746h-108z" />
<glyph unicode="&#x25fc;" horiz-adv-x="1075" d="M0 0v1075h1075v-1075h-1075z" />
</font>
</defs>
</svg>
