<?xml version="1.0" encoding="UTF-8" standalone="no"?>
<!-- Generator: Adobe Illustrator 14.0.0, SVG Export Plug-In . SVG Version: 6.00 Build 43363)  -->

<svg
   xmlns:dc="http://purl.org/dc/elements/1.1/"
   xmlns:cc="http://creativecommons.org/ns#"
   xmlns:rdf="http://www.w3.org/1999/02/22-rdf-syntax-ns#"
   xmlns:svg="http://www.w3.org/2000/svg"
   xmlns="http://www.w3.org/2000/svg"
   xmlns:sodipodi="http://sodipodi.sourceforge.net/DTD/sodipodi-0.dtd"
   xmlns:inkscape="http://www.inkscape.org/namespaces/inkscape"
   version="1.1"
   id="svg2963"
   inkscape:version="0.48.4 r9939"
   sodipodi:docname="mswin.svg"
   x="0px"
   y="0px"
   width="187.54999"
   height="152.83855"
   viewBox="0 0 187.54998 152.83855"
   enable-background="new 0 0 199.783 233.859"
   xml:space="preserve"><metadata
     id="metadata203"><rdf:RDF><cc:Work
         rdf:about=""><dc:format>image/svg+xml</dc:format><dc:type
           rdf:resource="http://purl.org/dc/dcmitype/StillImage" /></cc:Work></rdf:RDF></metadata><sodipodi:namedview
     id="namedview2995"
     inkscape:current-layer="svg2963"
     inkscape:window-y="0"
     inkscape:window-x="0"
     inkscape:window-height="481"
     inkscape:window-width="640"
     inkscape:pageshadow="2"
     inkscape:pageopacity="0"
     borderopacity="1"
     bordercolor="#666666"
     showgrid="false"
     pagecolor="#ffffff"
     guidetolerance="10"
     inkscape:cy="-14.726279"
     gridtolerance="10"
     inkscape:cx="183.55774"
     objecttolerance="10"
     inkscape:zoom="0.69259455"
     inkscape:window-maximized="0"
     fit-margin-top="0"
     fit-margin-left="0"
     fit-margin-right="0"
     fit-margin-bottom="0" /><defs
     id="defs4"><inkscape:perspective
       id="perspective2999"
       inkscape:vp_z="240.94501 : 120.4725 : 1"
       inkscape:vp_y="0 : 1000 : 0"
       inkscape:vp_x="0 : 120.4725 : 1"
       sodipodi:type="inkscape:persp3d"
       inkscape:persp3d-origin="120.4725 : 80.315002 : 1" /></defs><path
     style="fill:#231f20"
     inkscape:connector-curvature="0"
     id="path19"
     d="M 187.54999,10.968544 V 141.82855 c -31.3,-15.181 -61.26,-16.801 -89.478995,-0.4 v -18.74 c 9.108995,-4.27 19.269995,-7.07 29.829995,-8.94 V 73.978544 c -8.96,0.67 -18.86,3.07 -29.829995,8.4 v -13.03 c 9.898995,-4.53 19.799995,-7.6 29.829995,-8.4 v -41.65 c -8.431,0.54 -18.07,3.34 -29.829995,8.54 V 9.4885441 c 28.758995,-12.491 58.448995,-13.301 89.478995,1.4799999 z m -18.4,106.540006 V 76.128544 c -9.811,-3.9 -19.75,-5.11 -29.561,-3.9 v 40.980006 c 11.421,-0.54 20.151,1.21 29.561,4.3 z m 0,-53.340006 v -42.05 c -9.811,-4.16 -19.75,-5.64 -29.561,-4.7 v 42.59 h 11.82 c 5.241,0 13.841,2.679 17.741,4.16 z" /><path
     style="fill:#fefe00"
     inkscape:connector-curvature="0"
     id="path37"
     d="m 169.14999,76.128544 v 41.380006 c -9.41,-3.09 -18.141,-4.84 -29.561,-4.3 V 72.228544 c 9.811,-1.211 19.751,-0.001 29.561,3.9 z" /><path
     style="fill:#007f00"
     inkscape:connector-curvature="0"
     id="path39"
     d="m 169.14999,22.118544 v 42.05 c -3.9,-1.48 -12.5,-4.16 -17.74,-4.16 h -11.82 v -42.59 c 9.81,-0.941 19.75,0.539 29.56,4.7 z" /><path
     style="fill:#0000fe"
     inkscape:connector-curvature="0"
     id="path57"
     d="m 127.89999,73.977544 v 39.770006 c -10.561,1.87 -20.721,4.67 -29.829995,8.94 V 82.377544 c 10.969995,-5.329 20.869995,-7.729 29.829995,-8.4 z" /><path
     style="fill:#fe0000"
     inkscape:connector-curvature="0"
     id="path59"
     d="m 127.89999,19.298544 v 41.65 c -10.03,0.8 -19.931,3.87 -29.829995,8.4 v -41.51 c 11.759995,-5.2 21.399995,-8 29.829995,-8.54 z" /><path
     style="fill:#3e89d0"
     inkscape:connector-curvature="0"
     id="path71"
     d="m 98.069995,82.378544 v 40.310006 c -0.04,0.021 -0.09,0.04 -0.13,0.061 V 82.437544 c 0.04,-0.019 0.09,-0.039 0.13,-0.059 z" /><path
     style="fill:#f3652f"
     inkscape:connector-curvature="0"
     id="path73"
     d="m 98.069995,27.838544 v 41.51 c -0.04,0.02 -0.09,0.04 -0.13,0.06 v -41.51 c 0.04,-0.02 0.09,-0.04 0.13,-0.06 z" /><polygon
     style="fill:#231f20"
     id="polygon75"
     points="124.571,144.432 107.912,153.162 107.912,136.502 124.571,128.441 "
     transform="translate(-29.182005,-3.5434559)" /><polygon
     style="fill:#231f20"
     id="polygon77"
     points="124.571,125.481 107.912,134.082 107.912,117.422 124.571,109.362 "
     transform="translate(-29.182005,-3.5434559)" /><polygon
     style="fill:#231f20"
     id="polygon79"
     points="124.571,106.001 107.912,114.602 107.912,98.081 124.571,89.882 "
     transform="translate(-29.182005,-3.5434559)" /><polygon
     style="fill:#231f20"
     id="polygon81"
     points="124.571,87.192 107.912,95.932 107.912,79.271 124.571,71.202 "
     transform="translate(-29.182005,-3.5434559)" /><polygon
     style="fill:#231f20"
     id="polygon83"
     points="124.571,68.251 107.912,76.852 107.912,60.192 124.571,52.132 "
     transform="translate(-29.182005,-3.5434559)" /><polygon
     style="fill:#231f20"
     id="polygon85"
     points="124.571,49.311 107.912,58.041 107.912,41.382 124.571,33.182 "
     transform="translate(-29.182005,-3.5434559)" /><polygon
     style="fill:#231f20"
     id="polygon87"
     points="124.571,30.231 107.912,38.962 107.912,22.302 124.571,14.242 "
     transform="translate(-29.182005,-3.5434559)" /><polygon
     style="fill:#231f20"
     id="polygon99"
     points="104.552,148.592 89.102,156.382 89.102,141.342 104.552,133.552 "
     transform="translate(-29.182005,-3.5434559)" /><polygon
     style="fill:#0000fe"
     id="polygon101"
     points="104.552,129.512 89.102,137.441 89.102,122.262 104.552,114.472 "
     transform="translate(-29.182005,-3.5434559)" /><polygon
     style="fill:#0000fe"
     id="polygon103"
     points="104.552,111.112 89.102,119.041 89.102,103.852 104.552,96.061 "
     transform="translate(-29.182005,-3.5434559)" /><polygon
     style="fill:#231f20"
     id="polygon105"
     points="104.552,91.902 89.102,99.822 89.102,84.642 104.552,76.852 "
     transform="translate(-29.182005,-3.5434559)" /><polygon
     style="fill:#fe0000"
     id="polygon107"
     points="104.552,72.822 89.102,80.612 89.102,65.561 104.552,57.771 "
     transform="translate(-29.182005,-3.5434559)" /><polygon
     style="fill:#fe0000"
     id="polygon109"
     points="104.552,54.552 89.102,62.342 89.102,47.291 104.552,39.501 "
     transform="translate(-29.182005,-3.5434559)" /><polygon
     style="fill:#231f20"
     id="polygon111"
     points="104.552,35.331 89.102,43.132 89.102,28.081 104.552,20.282 "
     transform="translate(-29.182005,-3.5434559)" /><polygon
     style="fill:#231f20"
     id="polygon127"
     points="85.612,147.651 72.442,153.972 72.442,140.672 85.612,134.491 "
     transform="translate(-29.182005,-3.5434559)" /><polygon
     style="fill:#0000fe"
     id="polygon129"
     points="85.612,128.712 72.442,134.892 72.442,121.722 85.612,115.412 "
     transform="translate(-29.182005,-3.5434559)" /><polygon
     style="fill:#0000fe"
     id="polygon131"
     points="85.612,110.442 72.442,116.751 72.442,103.452 85.612,97.142 "
     transform="translate(-29.182005,-3.5434559)" /><polygon
     style="fill:#231f20"
     id="polygon133"
     points="85.612,91.092 72.442,97.402 72.442,84.102 85.612,77.922 "
     transform="translate(-29.182005,-3.5434559)" /><polygon
     style="fill:#fe0000"
     id="polygon135"
     points="85.612,72.012 72.442,78.331 72.442,65.021 85.612,58.852 "
     transform="translate(-29.182005,-3.5434559)" /><polygon
     style="fill:#fe0000"
     id="polygon137"
     points="85.612,53.742 72.442,60.052 72.442,46.751 85.612,40.442 "
     transform="translate(-29.182005,-3.5434559)" /><polygon
     style="fill:#231f20"
     id="polygon139"
     points="85.612,34.392 72.442,40.712 72.442,27.412 85.612,21.231 "
     transform="translate(-29.182005,-3.5434559)" /><polygon
     style="fill:#231f20"
     id="polygon151"
     points="67.742,146.042 56.992,150.882 56.992,141.342 67.742,136.231 "
     transform="translate(-29.182005,-3.5434559)" /><polygon
     style="fill:#0000fe"
     id="polygon153"
     points="67.742,126.962 56.992,131.932 56.992,122.262 67.742,117.152 "
     transform="translate(-29.182005,-3.5434559)" /><polygon
     style="fill:#0000fe"
     id="polygon155"
     points="67.742,108.561 56.992,113.532 56.992,103.852 67.742,98.751 "
     transform="translate(-29.182005,-3.5434559)" /><polygon
     style="fill:#231f20"
     id="polygon157"
     points="67.742,89.342 56.992,94.182 56.992,84.642 67.742,79.532 "
     transform="translate(-29.182005,-3.5434559)" /><polygon
     style="fill:#fe0000"
     id="polygon159"
     points="67.742,70.271 56.992,75.102 56.992,65.561 67.742,60.322 "
     transform="translate(-29.182005,-3.5434559)" /><polygon
     style="fill:#fe0000"
     id="polygon161"
     points="67.742,51.992 56.992,56.831 56.992,47.291 67.742,42.192 "
     transform="translate(-29.182005,-3.5434559)" /><polygon
     style="fill:#231f20"
     id="polygon163"
     points="67.742,32.782 56.992,37.622 56.992,28.081 67.742,22.972 "
     transform="translate(-29.182005,-3.5434559)" /><polygon
     style="fill:#231f20"
     id="polygon171"
     points="50.272,138.651 42.482,142.952 42.482,135.021 50.272,130.321 "
     transform="translate(-29.182005,-3.5434559)" /><polygon
     style="fill:#0000fe"
     id="polygon173"
     points="50.272,119.572 42.482,124.012 42.482,115.942 50.272,111.242 "
     transform="translate(-29.182005,-3.5434559)" /><polygon
     style="fill:#0000fe"
     id="polygon175"
     points="50.272,101.172 42.482,105.602 42.482,97.672 50.272,92.972 "
     transform="translate(-29.182005,-3.5434559)" /><polygon
     style="fill:#231f20"
     id="polygon177"
     points="50.272,81.952 42.482,86.392 42.482,78.331 50.272,73.622 "
     transform="translate(-29.182005,-3.5434559)" /><polygon
     style="fill:#fe0000"
     id="polygon179"
     points="50.272,62.882 42.482,67.311 42.482,59.251 50.272,54.552 "
     transform="translate(-29.182005,-3.5434559)" /><polygon
     style="fill:#fe0000"
     id="polygon181"
     points="50.272,44.602 42.482,48.902 42.482,40.981 50.272,36.271 "
     transform="translate(-29.182005,-3.5434559)" /><polygon
     style="fill:#231f20"
     id="polygon183"
     points="50.272,25.262 42.482,29.692 42.482,21.762 50.272,17.061 "
     transform="translate(-29.182005,-3.5434559)" /><polygon
     style="fill:#231f20"
     id="polygon187"
     points="35.222,133.412 29.182,136.102 29.182,130.592 35.222,127.502 "
     transform="translate(-29.182005,-3.5434559)" /><polygon
     style="fill:#0000fe"
     id="polygon189"
     points="35.222,114.331 29.182,117.021 29.182,111.512 35.222,108.561 "
     transform="translate(-29.182005,-3.5434559)" /><polygon
     style="fill:#0000fe"
     id="polygon191"
     points="35.222,95.932 29.182,98.612 29.182,93.112 35.222,90.152 "
     transform="translate(-29.182005,-3.5434559)" /><polygon
     style="fill:#231f20"
     id="polygon193"
     points="35.222,76.712 29.182,79.402 29.182,73.762 35.222,70.802 "
     transform="translate(-29.182005,-3.5434559)" /><polygon
     style="fill:#fe0000"
     id="polygon195"
     points="35.222,57.771 29.182,60.322 29.182,54.682 35.222,51.862 "
     transform="translate(-29.182005,-3.5434559)" /><polygon
     style="fill:#fe0000"
     id="polygon197"
     points="35.222,39.362 29.182,42.052 29.182,36.412 35.222,33.452 "
     transform="translate(-29.182005,-3.5434559)" /><polygon
     style="fill:#231f20"
     id="polygon199"
     points="35.222,20.152 29.182,22.842 29.182,17.331 35.222,14.242 "
     transform="translate(-29.182005,-3.5434559)" /></svg>